<?xml version="1.0" encoding="utf-8"?>
<!-- Generator: Adobe Illustrator 28.0.0, SVG Export Plug-In . SVG Version: 6.00 Build 0)  -->
<svg version="1.1" id="圖層_1" xmlns="http://www.w3.org/2000/svg" xmlns:xlink="http://www.w3.org/1999/xlink" x="0px" y="0px"
	 viewBox="0 0 1175.6 614.3" style="enable-background:new 0 0 1175.6 614.3;" xml:space="preserve">
<style type="text/css">
	.st0{clip-path:url(#SVGID_00000013913574932407134470000004181920827467824769_);}
	.st1{display:none;fill:#96B8E2;}
	.st2{fill:#FFFFFF;}
	.st3{fill:#BC271A;}
	.st4{fill:#193B85;}
	.st5{fill:#D75745;}
	.st6{fill:#7A7A7A;}
</style>
<g>
	<g>
		<defs>
			<path id="SVGID_1_" d="M1162.2-0.2h-547l18.8,54.5L510.3,155.9l100.8,123.7l-101.2,70.1l74.5,186.8L461.3,351l81.8-96.1
				l-95.1-83.7l83.7-148.4L504.1-0.2H13.4c-8,0-14.6,6.5-14.6,14.6v585.5c0,8,6.5,14.6,14.6,14.6h1148.7c8,0,14.6-6.5,14.6-14.6
				V14.4C1176.7,6.4,1170.2-0.2,1162.2-0.2z"/>
		</defs>
		<clipPath id="SVGID_00000116950745067371797580000002108527121805084297_">
			<use xlink:href="#SVGID_1_"  style="overflow:visible;"/>
		</clipPath>
		<g style="clip-path:url(#SVGID_00000116950745067371797580000002108527121805084297_);">
			<rect x="204" y="109.7" class="st1" width="737.9" height="369.4"/>
			<g>
				<g>
					<path class="st2" d="M1168,610.3H5.5c-4.2,0-7.7-3.4-7.7-7.7V3.3c0-4.2,3.4-7.7,7.7-7.7H1168c4.2,0,7.7,3.4,7.7,7.7v599.3
						C1175.7,606.9,1172.3,610.3,1168,610.3z"/>
				</g>
			</g>
			<g>
				<path class="st3" d="M1175.7,157.4H-2.2V3.3c0-4.2,3.4-7.7,7.7-7.7H1168c4.2,0,7.7,3.4,7.7,7.7V157.4z"/>
			</g>
			<g>
				<path class="st2" d="M37.1,63.6c6.8-6.9,11.7-14.2,14.6-21.9l6.9,2.6c-1.5,3.8-3.3,7.4-5.4,10.8v29.6h-7.4V65.4
					c-1.3,1.5-2.7,3-4.1,4.5L37.1,63.6z M37.8,104.3c2.6-5.2,4.6-10.7,6.1-16.5l6.9,1.7c-1.3,6-3.2,11.7-5.7,17.1L37.8,104.3z
					 M84.1,108.5H63c-5.6,0-8.4-2.8-8.4-8.3v-13h7.7v11.1c0,1.8,0.9,2.7,2.7,2.7h16.7c2,0,3-1,3-3V93l7.4,1.4v5.7
					C92.1,105.7,89.5,108.5,84.1,108.5z M71.3,46.5h31.8v6.8l-4.5,10.4L92,61.1l3.4-7.8H67.9c-2.1,3.8-4.6,7.4-7.4,10.9l-5.6-5
					c4.8-5.2,8.3-10.8,10.6-16.9H73C72.5,43.7,71.9,45.1,71.3,46.5z M56.3,75.6c3.8-4.2,7.1-8.8,10-13.8l5.8,3.2
					c-2.6,5.2-5.7,10.1-9.5,14.5L56.3,75.6z M67,88.5l5.5-4c3.4,2.9,6.3,5.9,8.7,9l-6,4.2C73.1,94.6,70.3,91.5,67,88.5z M77,74.3
					V56.8h7.4v19.8c0,5.2-2.6,7.8-7.8,7.8H69l-1.4-7.2h6.6C76.1,77.1,77,76.2,77,74.3z M96.5,79.6c-2.5-5.1-5.3-9.8-8.4-14l5.8-3.7
					c3.3,4.2,6.4,8.9,9.4,14L96.5,79.6z M92.1,89l6.7-2.3c3.3,5.5,6,11,8.1,16.3l-7.4,2.3C97.7,100.1,95.3,94.7,92.1,89z"/>
				<path class="st2" d="M118,108.2V60v-3.6v-3.6h8.3l3-10.2l7.7,0.6l-3,9.6h4h3.6h3.6v53.8H138v-4.8h-12.8v6.5H118z M125.2,60v13.9
					H138V60H125.2z M125.2,80.8v13.9H138V80.8H125.2z M145.3,66.3c5.6-7.3,9.3-15.4,11-24.3l7.4,1.4c-0.7,3.3-1.5,6.4-2.6,9.5h12.1
					h3.9h4c0,8,0.1,16.4,0.1,25.1c0,8.2-0.2,14.1-0.4,17.6c-0.2,4.8-1.3,8.3-3,10.5c-1.6,2-4.8,3-9.6,3c-3.7,0-7.3,0-11,0l-1.4-7.7
					c3.9,0,7.7,0,11.1,0c2.6,0,4.3-0.8,5.1-2.5c0.6-1,0.9-2.9,1.1-5.7c0.2-3.2,0.3-8.7,0.3-16.4c0-5.6,0-11.1,0-16.5h-15.4
					c-1.8,3.7-4,7.1-6.6,10.5L145.3,66.3z M160.4,90.9c-2.9-5.6-6.2-10.8-9.8-15.5l5.9-4c4,5,7.5,10.2,10.6,15.8L160.4,90.9z"/>
				<path class="st2" d="M204,109.7V60.5h-3.9v35.2h-5.6V60.5V57v-3.5h9.5V42.3h6.8v11.3h3.8h2.8h2.8v22.9h4.1V44.8h3.7h3.8h27.4
					v6.4h-27.4v4.8h25.8v5.6h-25.8v4.7h25.8v5.6h-25.8v4.5h29v6.4h-17.1c1,2.8,2,5.2,3.2,7.3c3-1.8,6.2-3.9,9.5-6.5l4.2,5.3
					c-3,2.2-6.4,4.2-10,6.1c2.8,3,6.8,5.8,11.8,8.3l-5,6.3c-6.2-3.8-10.9-7.8-14-12c-2.6-3.7-4.7-8.7-6.1-14.9h-5.6v6.4v5.7v5.8
					l10.7-1.9l0.6,6.8c-8.2,1.6-14.1,2.9-17.8,3.8l-2.7-7.1c1.2-0.9,1.8-2,1.8-3.3v-4v-5.7v-6.4h-4.1v6.9c0,3.9-1.7,5.8-5.1,5.8
					h-2.7l-1.4-7.7h1.7c1.3,0,1.9-0.6,1.9-1.9V60.5h-3.8v49.2H204z"/>
				<path class="st2" d="M270.5,71.2h26.1v6.5h-13.8l-1.3,6h4.7h3.5h3.5v13.8c0,4.1-1.1,7.1-3.1,9.1c-1.9,1.9-5,2.9-9.3,2.9h-5.7
					l-1.4-6.9h6.4c2.1,0,3.7-0.6,4.6-1.6c1-1,1.5-2.6,1.5-4.7v-6.1h-6.1h-3.5h-3.5l2.7-12.5h-5.3V71.2z M294.2,44.5v16.2v3.2V67
					h-20.9v-3.1v-3.2V44.5h3.2h3.2h8.2h3.2H294.2z M279.6,50.8v10h8.2v-10H279.6z M335.7,81.6h-16.6c-3.1,0-4.7-1.6-4.7-4.7v-5
					l-6.6,0.4v-5.8l6.6-0.4v-4.9h-6.3h-2.5V65v1.5V81c0,13-2,22.5-5.9,28.4l-6.4-3.2c3.6-5.5,5.3-13.9,5.3-25.1V66.5V65v-9.8h3.5
					h3.5h2.5h6.8v-13h7.4v2.9h15.4v5.8h-15.4v4.3h5.5h10.5v6.1l-2.2,6.4l-4.3-1.4v4.5l-10.7,0.7v3c0,0.7,0.3,1,1,1h13.5V81.6z
					 M310.5,91v-6.6h6.4V91c0,7.5-2.5,13.6-7.4,18.3l-4.8-5.1C308.6,100.9,310.5,96.5,310.5,91z M331.8,61.2h-3.9h-6.6v4.5l9.1-0.5
					L331.8,61.2z M322.3,104V84.4h6.4V101c0,0.7,0.3,1,1,1h2.6c0.7,0,1-0.3,1-1v-8.7l5.6,1.4V104c0,3.1-1.5,4.6-4.5,4.6h-7.4
					C323.8,108.6,322.3,107.1,322.3,104z"/>
				<path class="st2" d="M381.4,44.9v28.6V77v3.5h-22.2v16.4l13.1-3.4c-1.1-2.5-2.3-4.9-3.7-7.3l5.9-3.3c3.9,6.4,7,13.2,9.3,20.1
					l-6.6,3.3c-0.6-2-1.3-4-2-6.1c-10.2,2.6-17.7,4.7-22.5,6.2l-2.7-7.2c1.2-0.8,1.8-1.9,1.8-3.2v-16v-3.5V51.9v-3.5v-3.5H374h3.8
					H381.4z M359.3,59.8H374v-7.9h-14.7V59.8z M374,66.5h-14.7v7H374V66.5z M386.5,109.7V52.1v-3.7v-3.7h19.3h3.8h3.8v49.2
					c0,3.8-1.7,5.7-5.1,5.7h-10l-1.4-7.9h6.9c1.3,0,1.9-0.6,1.9-1.9V52.1h-11.7v57.6H386.5z"/>
				<path class="st2" d="M450.5,58.7v51h-7.4V82.8h-5.3v3.6c0,9.5-2.1,17.2-6.3,23.2l-5.9-5.1c3.5-4.6,5.3-10.7,5.3-18.1v-3.6h-4.5
					v-7.2h16.7v-8.2h-14.1v-3.5v-3.5V45.7h7v14.7h7.1V42.3h7.4v15.9c7.9-5.3,13.9-10.9,18-16.7l6.1,3.2c-0.7,0.9-1.4,1.8-2.2,2.7
					h20.1v6.5c-3.8,6.6-8.2,11.6-13.3,15c-5.6,3.8-13.5,6.6-23.5,8.5l-3-6.5c4-0.6,7.6-1.4,10.8-2.3c-1.4-1.4-3-2.9-4.7-4.3l4.8-3.9
					c2.4,2,4.5,3.9,6.4,5.9c1.5-0.7,3-1.4,4.3-2.2c-2.3-2.1-4.9-4.2-7.8-6.2l4.2-4h-4.4c-3.6,3.6-7.5,7-11.8,10.2L450.5,58.7z
					 M486.4,85.3v16.5c0,5.1-2.6,7.7-7.8,7.7h-10.4l-1.4-7.9h9.2c1.9,0,2.8-0.9,2.8-2.8V85.3h-25.8v-7h25.8v-7.1h7.7v7.1h7.8v7
					H486.4z M455.7,90.1l5.8-4c3.5,3.3,6.4,6.7,9,10.1l-6.4,4.1C461.9,97,459.1,93.6,455.7,90.1z M485,53.9h-14
					c3,2.2,5.8,4.4,8.3,6.7C481.4,58.7,483.3,56.5,485,53.9z"/>
				<path class="st2" d="M518.3,81.7v27.9h-7V83.2c-1.9,2-4,3.9-6.2,5.6l-2.5-7.5c6.8-5.1,12.2-12.6,16.2-22.6h-14.9v-7h7.7
					c-0.3-2.9-0.9-6-1.8-9.2l7.1-0.4c0.8,3.3,1.4,6.5,1.8,9.6h6.8v7c-1.7,5.8-4.1,11-7.2,15.7c0.9,0.7,1.7,1.4,2.5,2.2
					c1.4-1.8,2.9-3.8,4.4-6.1l4.5,2.9c-1.6,2.1-3.4,4.2-5.3,6.3c1.6,1.5,3.1,3,4.5,4.5l-4.4,5.3C522.6,87.1,520.6,84.4,518.3,81.7z
					 M560.9,76.6h-24c-0.2,15.1-3.2,26.1-8.7,33.1l-6.4-3.7c5.3-6.9,7.9-17.4,7.9-31.5V61.5v-2.7v-9.2h3.6h3.6h4.1h5.7v-7.3h7.2v7.3
					h4h11.6v7.2l-3.1,9.6l-6.2-1.9l2.5-7.7h-4.8h-4v12.8H568v7c-1.7,8.3-4.9,14.9-9.5,20c3.5,2.3,7.9,4.2,13.1,5.8l-3.9,7.3
					c-6.1-2.3-11-5-14.9-7.9c-4.4,3.3-9.5,6.1-15.2,8.4l-4.5-6.1c5.5-2.2,10.2-4.7,14.2-7.7c-3-3.8-5.7-8.7-8.2-14.8l5.9-2.4
					c2.4,5.2,4.9,9.4,7.7,12.5C556.5,87.7,559.2,82.7,560.9,76.6z M546.6,69.5V56.8h-5.7h-4.1v2v2.7v8.1H546.6z"/>
				<path class="st2" d="M647.3,107.5h-64.7v-6.9h17.8l-2.5-7.1h-5.9v-3v-3V74.2c-2.6,1.4-5.4,2.6-8.4,3.6l-3.4-6.4
					c4.5-1.5,8.5-3.4,12.2-5.7c-2.6-2.4-5.7-4.8-9.1-7.1l4.9-4.7c3.6,2.5,6.8,5,9.7,7.7c3.7-3.3,6.3-6.7,7.8-10.3H585v-6.7h27.9v6.7
					c-1,3.8-2.8,7.3-5.6,10.8h17.7c-3.3-4.5-6.2-10.5-8.6-18l6.2-1.9c1,2.8,2.1,5.4,3.2,7.7c3.3-2.3,6.6-4.9,10.1-7.8l4.6,5
					c-3.6,2.9-7.4,5.7-11.6,8.4c1.2,1.7,2.4,3.2,3.6,4.5c3.6-2.4,7.3-5.1,11.2-8.4l4.5,5.1c-3.2,2.6-6.8,5.1-10.6,7.5
					c3.4,2.4,7.5,4.6,12.4,6.6l-4.2,6.6c-2.9-1.3-5.6-2.7-8-4.2v14.2v3v3h-5.8l-3.1,7.1h18.6V107.5z M600,73h29.9h3.9h3.6
					c-3.7-2.3-6.7-4.6-9.2-7.1v2.7h-25.5v-1.7l-0.1,0.1c-2.6,2.3-5.4,4.3-8.3,6.1h1.8H600z M629.9,79.1H600v8.4h29.9V79.1z
					 M624.2,93.5h-18.6l2.4,7.1h13.2L624.2,93.5z"/>
				<path class="st2" d="M670.9,80.5v16.7h17.9V73.2h-23.4v-3.7v-3.8v-18h7.9v18h15.5V42.3h7.9v23.5h15.2v-18h7.9v25.4h-4h-3.9
					h-15.2v24.1h17.6V80.5h7.9v29.2h-7.9v-5h-51.2V101v-3.8V80.5H670.9z"/>
			</g>
			<g>
				<g>
					<g>
						<path class="st4" d="M789.8,569.8H516.9c-4.2,0-7.7-3.4-7.7-7.7v-100c0-4.2,3.4-7.7,7.7-7.7h272.9c4.2,0,7.7,3.4,7.7,7.7v100
							C797.4,566.4,794,569.8,789.8,569.8z"/>
					</g>
					<g>
						<path class="st2" d="M540.5,535.8c0.9-3.2,1.4-7,1.5-11.5l4,0.2c0.1,4.8-0.3,9-1.1,12.5L540.5,535.8z M559,519.9V490h4.6v17.2
							h27.1v4.3h-27.1v20.2h27.5v4.4H559v-2.2v-2.2v-11.1l-3.9,1.2c-0.1-0.8-0.2-1.6-0.4-2.4c-4.3,0.7-8.2,1.4-11.8,2.2l-1.4-4.6
							c1.6-0.7,2.7-1.7,3.5-3.1c1.2-2,2.4-4.2,3.5-6.5c-2.2,0.4-4.2,0.7-6.1,1.2l-1.4-4.6c1.4-0.6,2.4-1.4,2.9-2.6
							c1.7-3.8,3.1-8.2,4.3-13l4.7,0.8c-1.3,4.9-2.9,9.4-4.7,13.7l2.8-0.5c1-2.3,2-4.7,3-7.2l4.5,1.5c-2.8,6.9-5.9,13.3-9.4,19.1
							l4.7-0.8c-0.3-1.3-0.7-2.6-1.2-4.1l3.4-1.1C557.4,513.3,558.4,516.7,559,519.9z M548.5,534.3c0-3.5-0.3-6.8-0.9-9.9l3.9-0.5
							c0.7,3.4,1.1,6.8,1.2,10.2L548.5,534.3z M555.2,532.7c-0.4-3.1-1-6.1-1.9-8.9l3.4-0.7c1,3,1.7,6.1,2.1,9.2L555.2,532.7z
							 M577.3,516.4c-2.2,3.5-4.6,6.8-7.1,9.7l3-0.4c-0.2-0.7-0.5-1.4-0.7-2.2l2.9-1.1c1.1,2.5,1.9,4.9,2.4,7.1l-3.3,1.2
							c-0.1-0.6-0.2-1.3-0.4-2c-3.2,0.4-6.2,0.8-8.9,1.4l-1-3.4c1.2-0.5,2.3-1.3,3.2-2.4c0.6-0.7,1.3-1.5,1.9-2.4
							c-1.5,0.3-2.9,0.6-4.2,0.8l-1.1-3.4c1.1-0.5,1.9-1.2,2.6-2.2c1.1-1.6,2.1-3.4,3.2-5.5l3.3,1c-1,2.1-2.1,4.1-3.3,5.9l2.2-0.4
							c0.8-1.1,1.5-2.3,2.3-3.5L577.3,516.4z M577.5,492.5c-2.3,3.5-4.7,6.6-7.2,9.4c0.8-0.1,1.7-0.2,2.7-0.3
							c-0.2-0.6-0.4-1.2-0.5-1.9l2.9-1c1,2.4,1.7,4.7,2.1,6.8l-3.3,1.1c-0.1-0.6-0.2-1.2-0.3-1.9c-3.1,0.4-6,0.9-8.6,1.4l-1-3.4
							c1.2-0.6,2.3-1.4,3.2-2.4c0.5-0.6,1.1-1.2,1.6-1.9c-1.4,0.2-2.7,0.4-4,0.7l-1-3.4c1-0.4,1.9-1.1,2.5-2.1
							c1.1-1.6,2.1-3.5,3.1-5.6l3.3,0.9c-1,2.2-2.1,4.2-3.2,6.1l2.2-0.3c0.8-1.2,1.7-2.5,2.5-3.8L577.5,492.5z M588.6,498.1
							c1,2.6,1.8,5,2.3,7.2l-3.3,1.2c-0.1-0.6-0.2-1.3-0.4-2c-3.1,0.4-6,0.9-8.6,1.4l-1-3.4c1.2-0.5,2.2-1.3,3.1-2.4
							c0.4-0.5,0.8-1,1.3-1.5c-1.5,0.2-2.9,0.4-4.2,0.6l-0.9-3.4c1.1-0.4,1.9-1.1,2.5-2c1.1-1.7,2.1-3.5,3-5.7l3.3,0.9
							c-1,2.2-2.1,4.3-3.2,6.2l2.1-0.2c0.8-1.2,1.7-2.5,2.5-3.9l3.1,1.6c-1.4,2.3-2.9,4.4-4.4,6.5L588.6,498.1z M590.2,516.4
							c-2,3.4-4.1,6.4-6.4,9.3c0.9-0.1,1.9-0.2,3.1-0.4c-0.2-0.8-0.4-1.6-0.7-2.4l2.9-1c1,2.7,1.8,5.2,2.3,7.6l-3.4,1.1
							c-0.1-0.7-0.2-1.4-0.3-2.2c-3.2,0.4-6.1,0.9-8.7,1.4l-1-3.4c1.2-0.5,2.2-1.3,3-2.3c0.5-0.6,1-1.3,1.5-2
							c-1.6,0.2-3,0.4-4.3,0.6l-0.9-3.4c1.1-0.4,1.9-1.1,2.5-2c1.1-1.6,2.1-3.5,3-5.5l3.3,1c-1,2.1-2.1,4.1-3.2,5.9l2.1-0.2
							c0.7-1.1,1.5-2.3,2.2-3.6L590.2,516.4z M585.7,499.1c-0.7,0.9-1.3,1.7-2,2.5c0.8-0.1,1.7-0.2,2.7-0.4
							C586.2,500.6,586,499.9,585.7,499.1z"/>
						<path class="st2" d="M597.3,536.3c1-3.2,1.6-7.1,1.9-11.7l4.3,0.3c-0.1,4.9-0.6,9.2-1.6,12.8L597.3,536.3z M616.3,497.8
							c-3,6.7-6.4,12.8-10,18.5c1.7-0.2,3.6-0.5,5.7-0.8c-0.3-1.5-0.6-3.2-1.1-4.9l3.6-0.9c1.2,4.2,2,8.1,2.5,11.7l-4.2,1.1
							c0-0.7-0.1-1.4-0.2-2.1c-4.8,0.6-9.3,1.3-13.3,2.1l-1.5-5.1c1.8-0.7,3.1-1.8,4-3.3c1.1-1.8,2.2-3.6,3.3-5.6
							c-2.2,0.3-4.3,0.6-6.2,1l-1.3-5c1.5-0.5,2.6-1.4,3.2-2.5c1.8-4,3.5-8.5,4.9-13.5l4.9,0.9c-1.5,5.1-3.3,9.8-5.4,14.2l2.8-0.4
							c1.2-2.3,2.3-4.7,3.4-7.2L616.3,497.8z M606.2,535.9c0-3.9-0.4-7.6-1.1-11.2l4.3-0.5c0.8,3.8,1.3,7.6,1.4,11.5L606.2,535.9z
							 M613.2,531.7c-0.5-2.7-1.2-5.3-2.1-7.8l4-1.2c1.1,2.6,1.9,5.3,2.5,8L613.2,531.7z M622.6,513h17.8h2.4h2.4v15.3v1.5v1.4h-7.7
							c3.5,0.6,7.1,1.4,10.6,2.4l-2.4,4.3c-3.8-1.3-7.4-2.4-10.9-3.3l1.7-3.4H626l2.3,3.2c-3.5,1.4-7.3,2.6-11.5,3.5l-2-4.3
							c3.9-0.6,7.6-1.3,11.2-2.3h-8.1v-1.4v-1.5V513h2.4H622.6z M647.6,493.7h-13.5v2.4h12.1v3.2h-29.6v-3.2h12v-2.4h-13.1v-3.2
							h13.1v-2.2h5.4v2.2h13.5V493.7z M620.7,501.6h21.1h2.2h2.1v6.1v1.5v1.5h-29.7v-1.5v-1.5v-6.1h2.1H620.7z M625.2,507.7v-3.1
							h-4.5v3.1H625.2z M622.6,518.3h17.8v-2.4h-17.8V518.3z M622.6,523.3h17.8V521h-17.8V523.3z M640.5,526h-17.8v2.3h17.8V526z
							 M633.5,507.7v-3.1h-4.2v3.1H633.5z M637.6,504.6v3.1h4.2v-3.1H637.6z"/>
						<path class="st2" d="M660.1,512c-1.6-1.8-3.5-3.8-5.8-5.9l3.9-3.6c2.9,2.8,4.8,4.8,5.9,6L660.1,512z M660.4,498
							c-1.6-1.8-3.5-3.8-5.8-5.9l3.8-3.6c3,2.8,4.9,4.8,5.9,5.9L660.4,498z M654.8,536.4c1.3-5.6,2.5-12.1,3.5-19.5l5,1
							c-1.4,9.6-2.5,16.1-3.4,19.7L654.8,536.4z M689.3,535.5c-7.9,1.1-16.5,1.8-25.8,2l-0.2-4.4c3.6-0.1,7.2-0.2,10.6-0.4v-7.1
							h-9.3v-4.1h9.3v-3.3h-4.3v-2.3c-1.7,1-3.6,2-5.6,2.9l-1-5c5.4-2.5,9.7-5.4,13-8.6l4.2,2.1c-0.2,0.2-0.4,0.5-0.7,0.7
							c3.8,1.6,7.3,3.4,10.5,5.3l-3,4.1c-1.2-0.9-2.5-1.7-3.9-2.6v3.3H679v3.3h9v4.1h-9v6.8c1.7-0.1,3.3-0.3,4.9-0.4l-3.1-1.3
							c0.9-1.3,1.7-2.9,2.6-4.7l3.8,1.5c-0.7,1.4-1.5,2.9-2.4,4.4c1.4-0.1,2.7-0.3,4.1-0.4L689.3,535.5z M664.7,491
							c2.9-0.4,5.9-1.2,8.9-2.5l1.9,3.6c-2,1-4.3,1.8-6.7,2.4v3.1v1.7v2.5l4-1.4c-0.6-1.3-1.3-2.7-2-4l3.1-1.9
							c1.2,1.9,2.2,3.8,3.1,5.8c1-1.9,1.5-4,1.5-6.4h-2.1v-4.2h8.3h2h2c0,2.4,0.1,4.8,0.1,7.4c0,2.4-0.1,4.1-0.2,5.1
							c-0.1,1.4-0.5,2.5-1.1,3.1c-0.6,0.6-1.7,0.8-3.4,0.8c-0.9,0-1.8,0-2.8,0l-0.9-3.7c-0.5,1.1-1.2,2-2,3l-1.6-1.5l-2.3,1.2
							c-0.1-0.4-0.2-0.8-0.4-1.1c-4.1,1.6-7.1,2.9-9,3.8l-1.7-4.2c0.8-0.6,1.3-1.4,1.3-2.4v-2v-1.7v-2.3v-2.2V491z M665.6,527.7
							l3.6-1.7c1.3,1.7,2.3,3.3,3.2,4.9l-3.9,1.7C667.8,531.1,666.8,529.5,665.6,527.7z M672,514.5h10.4c-1.9-1.1-3.9-2.2-6-3.3
							C675.1,512.3,673.6,513.4,672,514.5z M684.7,500c0-0.8,0.1-2.2,0.1-4.1c0-0.6,0-1.1,0-1.7h-2.5c0,3-0.5,5.6-1.5,7.8
							c0.8,0,1.6,0,2.3,0c0.7,0,1.2-0.2,1.4-0.6C684.5,501.1,684.7,500.7,684.7,500z M690.9,526.9v-33.1h4.3v33.1H690.9z M698,530.3
							v-41.9h5v44.2c0,3.3-1.6,5-4.9,5h-5l-1.1-5.6h4.3C697.4,532,698,531.4,698,530.3z"/>
						<path class="st2" d="M722.9,510.8h27.1h2.8h2.8v15.1v1.5v1.5h-10.3v2.7c0,0.8,0.5,1.2,1.4,1.2h8c1.1,0,1.6-0.5,1.6-1.5v-2.5
							l5.2,1.1v2.4c0,3.1-1.4,4.7-4.3,4.7h-13.1c-2.9,0-4.3-1.6-4.3-4.7V529h-8.1c-1.5,2.9-3.8,5-6.8,6.4c-3.6,1.6-7.4,2.3-11.3,2.2
							l-1.7-5c3.7,0.5,6.9,0.3,9.6-0.7c1.9-0.7,3.4-1.7,4.6-2.9h-8.9v-1.5v-1.5v-15.1h2.8H722.9z M713.9,505.7v-16.2h2.4h2.4h15.6v3
							h-6.2v2.6h0.6h2.5h2.4v5.3v1.3v1.3h-5.6v2.6h6.2v3h-20.4v-1.5V505.7z M723.6,492.6h-4.9v2.6h4.9V492.6z M728.7,497.8h-10v2.7
							h10V497.8z M723.6,503.1h-4.9v2.6h4.9V503.1z M722.9,516.2h27.1v-2.3h-27.1V516.2z M750.1,518.9h-27.1v2.1h27.1V518.9z
							 M750.1,523.7h-27.1v2.2h27.1V523.7z M759.6,493.6h-17c-0.4,0.6-0.7,1.1-1.1,1.6h16.4v2.9h-17.8v-1.1c-0.8,1-1.7,1.9-2.7,2.8
							l-3.8-3.4c3-2.2,5.2-4.9,6.5-8h5.1c-0.3,0.7-0.6,1.4-0.9,2.1h15.2V493.6z M740.1,499.9h14.5h1.9h1.9v6v1.5v1.5h-21.9v-1.5
							v-1.5v-6h1.9H740.1z M743,505.9v-3h-2.9v3H743z M748.6,505.9v-3h-2.6v3H748.6z M751.6,502.9v3h3v-3H751.6z"/>
					</g>
				</g>
				<g>
					<g>
						<path class="st5" d="M1110.9,569.8H838.1c-4.2,0-7.7-3.4-7.7-7.7v-100c0-4.2,3.4-7.7,7.7-7.7h272.9c4.2,0,7.7,3.4,7.7,7.7v100
							C1118.6,566.4,1115.2,569.8,1110.9,569.8z"/>
					</g>
					<g>
						<path class="st2" d="M890.9,529.8c3.3-7.4,6.3-15.8,9-25.1l5.6,1.4c-2.3,7.8-5.1,15.7-8.6,23.7h14.7v5.8h-48.8v-5.8H890.9z
							 M888.2,488.3c0.7,2.6,1.3,5.1,1.7,7.5h20.4v5.8h-46.1v-5.8h19.9c-0.4-2.2-0.9-4.6-1.6-7L888.2,488.3z M868.7,507.2l5.2-2.1
							c3,7.2,5.3,13.9,6.9,20.2l-5.6,2.2C874.1,522,871.9,515.3,868.7,507.2z"/>
						<path class="st2" d="M943.4,490.3v20.9v2.5v2.5h-16.2v12l9.6-2.5c-0.8-1.8-1.7-3.6-2.7-5.3l4.3-2.4c2.9,4.7,5.1,9.6,6.8,14.8
							l-4.9,2.4c-0.5-1.5-1-3-1.5-4.4c-7.5,1.9-13,3.5-16.5,4.5l-2-5.3c0.9-0.6,1.3-1.4,1.3-2.4v-11.7v-2.6v-18v-2.5v-2.5H938h2.8
							H943.4z M927.2,501.2H938v-5.8h-10.8V501.2z M938,506.1h-10.8v5.1H938V506.1z M947.1,537.7v-42.2v-2.7v-2.7h14.2h2.8h2.8v36
							c0,2.8-1.3,4.2-3.8,4.2h-7.3l-1.1-5.8h5.1c1,0,1.4-0.5,1.4-1.4v-27.6h-8.6v42.2H947.1z"/>
						<path class="st2" d="M1024.5,536.1h-47.4v-5.1h13.1l-1.8-5.2h-4.3v-2.2v-2.2v-9.7c-1.9,1.1-4,1.9-6.1,2.6l-2.5-4.7
							c3.3-1.1,6.3-2.5,8.9-4.2c-1.9-1.8-4.2-3.5-6.7-5.2l3.6-3.4c2.6,1.8,5,3.7,7.1,5.6c2.7-2.4,4.6-4.9,5.7-7.6h-15.3V490h20.4
							v4.9c-0.7,2.8-2.1,5.4-4.1,7.9h13c-2.4-3.3-4.5-7.7-6.3-13.2l4.5-1.4c0.7,2.1,1.5,4,2.4,5.7c2.4-1.7,4.9-3.6,7.4-5.7l3.4,3.6
							c-2.6,2.1-5.4,4.2-8.5,6.1c0.8,1.2,1.7,2.3,2.6,3.3c2.6-1.7,5.3-3.8,8.2-6.1l3.3,3.8c-2.4,1.9-5,3.7-7.8,5.5
							c2.5,1.8,5.5,3.4,9.1,4.8l-3.1,4.8c-2.2-1-4.1-2-5.9-3.1v10.4v2.2v2.2h-4.3l-2.3,5.2h13.6V536.1z M989.8,510.9h21.9h2.9h2.6
							c-2.7-1.7-4.9-3.4-6.8-5.2v2h-18.7v-1.3l-0.1,0.1c-1.9,1.7-3.9,3.2-6.1,4.4h1.3H989.8z M1011.7,515.3h-21.9v6.1h21.9V515.3z
							 M1007.6,525.9H994l1.7,5.2h9.7L1007.6,525.9z"/>
						<path class="st2" d="M1041.8,516.4v12.3h13.1V511h-17.1v-2.7v-2.8v-13.2h5.8v13.2h11.4v-17.2h5.8v17.2h11.2v-13.2h5.8V511
							h-2.9h-2.9h-11.2v17.7h12.9v-12.3h5.8v21.4h-5.8v-3.6h-37.6v-2.7v-2.8v-12.3H1041.8z"/>
					</g>
				</g>
			</g>
			<g>
				<path class="st6" d="M57,220.6c5.2-5.3,8.9-10.8,11-16.6l3.6,1.3c-1.1,2.7-2.4,5.3-3.9,7.8v22.3h-3.9v-16.7
					c-1.4,1.7-2.9,3.4-4.5,5.1L57,220.6z M57.9,250.1c1.9-3.8,3.4-7.9,4.4-12L66,239c-1,4.3-2.4,8.4-4.3,12.3L57.9,250.1z
					 M91.1,252.5H75.6c-3.6,0-5.4-1.8-5.4-5.3v-9.8h3.9v9.2c0,1.4,0.7,2,2,2h14.1c1.5,0,2.2-0.7,2.2-2.2v-4.7l3.9,1v4.4
					C96.4,250.6,94.6,252.5,91.1,252.5z M81,207.7h23.7v3.7l-3.6,8.2l-3.4-1.4l2.9-6.8H79.2c-1.6,3-3.6,5.9-5.9,8.5l-2.9-2.6
					c3.4-3.7,6.1-8,7.9-12.8h3.9C81.9,205.6,81.4,206.6,81,207.7z M71.3,229.1c2.8-3.2,5.3-6.7,7.4-10.4l3.1,1.7
					c-2,3.9-4.4,7.5-7.1,10.8L71.3,229.1z M86.8,228.7v-13.9h3.9v14.8c0,3.2-1.6,4.8-4.8,4.8h-5.8l-1-3.8h5.8
					C86.2,230.6,86.8,230,86.8,228.7z M79.2,237.9l3-2.2c2.5,2.2,4.6,4.4,6.4,6.6l-3.3,2.3C83.7,242.3,81.6,240.1,79.2,237.9z
					 M101.2,231.4c-2.1-3.8-4.3-7.3-6.8-10.5l3-2c2.6,3.1,5,6.6,7.3,10.4L101.2,231.4z M97.8,238.4l3.6-1.3c2.4,4,4.4,8,6,11.9
					l-3.9,1.3C102.1,246.6,100.2,242.6,97.8,238.4z"/>
				<path class="st6" d="M116.9,252.6v-36.3v-1.9v-1.9h6.1l2.4-7.9l3.9,0.5l-2.4,7.5h5h1.9h1.9v38.9H132v-4h-11.2v5.3H116.9z
					 M120.7,216.3v11.8H132v-11.8H120.7z M120.7,231.7v11.8H132v-11.8H120.7z M136.7,222.8c4.2-5.5,7-11.7,8.3-18.5l3.8,0.7
					c-0.5,2.6-1.2,5.1-2.1,7.5h11.7h2h2c0,3.9,0,9.6,0,16.8c0,7.1-0.1,12.1-0.4,14.8c-0.2,3.1-1.1,5.3-2.5,6.7
					c-1.3,1.4-3.5,2.1-6.7,2.1c-2.5,0-5,0-7.5,0l-1-3.9c2.9,0,5.6,0,8.1,0c1.8,0,3.2-0.5,4-1.4c0.7-0.8,1.2-2.3,1.5-4.6
					c0.2-2.5,0.4-6.9,0.4-13.4c0-4.9,0-9.3,0-13.2h-13.4c-1.4,3.1-3.2,6-5.3,8.7L136.7,222.8z M148.3,239.6c-2.2-4.2-4.6-8-7.4-11.4
					l3.1-2.1c2.9,3.6,5.5,7.4,7.8,11.5L148.3,239.6z"/>
				<path class="st6" d="M180.3,253.7v-37h-3.8v26.7h-3.3v-26.7v-1.8v-1.8h7.1v-8.7h3.7v8.7h3.6h1.7h1.7v16.7h4v-23.3h1.9h2h21.3
					v3.6h-21.3v4.5H219v3.3h-20.1v4.6H219v3.3h-20.1v4h22.3v3.6h-13.3c0.9,2.7,2,5,3.2,6.9c2.4-1.4,4.9-3.1,7.5-5.1l2.3,2.9
					c-2.4,1.8-5,3.4-7.8,5c2.2,2.5,5.3,4.8,9.3,6.9l-2.6,3.4c-4.6-2.7-8-5.6-10.3-8.7c-2.1-2.8-3.7-6.6-5.1-11.2h-5.6v5.3v4.3v5.8
					l9.6-1.8l0.4,3.7c-6.3,1.2-10.8,2.2-13.5,3l-1.8-3.9c0.9-0.5,1.3-1.3,1.3-2.4V243v-4.3v-5.3h-4v5.8c0,2.6-1.1,3.9-3.4,3.9h-1.7
					l-1-3.9h1.3c1,0,1.4-0.5,1.4-1.4v-21H184v37H180.3z"/>
				<path class="st6" d="M229,226.1h19.1v3.5h-10.7l-1.4,5.8h5.3h1.9h1.9v9.6c0,2.9-0.8,5-2.3,6.4c-1.4,1.3-3.4,1.9-6.2,1.9h-4.4
					l-1-3.7h5.2c1.7,0,2.9-0.5,3.7-1.3c0.7-0.9,1.1-2.2,1.2-3.8v-5.5h-6.1h-1.9h-1.9l2.2-9.3H229V226.1z M245.8,206.2v12.3v1.8v1.7
					h-14.5v-1.7v-1.8v-12.3h1.8h1.8h7.3h1.8H245.8z M234.8,209.6v8.8h7.3v-8.8H234.8z M276.9,232.7h-12.6c-2.1,0-3.1-1-3.1-3.1v-4.2
					l-5.2,0.4v-3.4l5.2-0.3v-4.6h-4.5H254v3.3v1.3v10.1c0,9.6-1.5,16.6-4.6,21l-3.5-1.8c2.8-4.3,4.3-10.7,4.3-19.3v-10.1v-1.3v-6.7
					h1.9h1.9h2.6h5.5v-10h3.9v2.5h12.2v3.4H266v4.2h5.2h7.4v3.4l-1.9,5.2l-3.3-1.1l1.5-4.2h-3.7h-6.3v4.3l7.7-0.5v3.3l-7.7,0.5v3.4
					c0,0.5,0.2,0.7,0.7,0.7h11.2V232.7z M258.8,240.2v-5h3.6v5c0,5.3-1.9,9.6-5.6,13l-2.6-2.9C257.3,247.7,258.8,244.4,258.8,240.2z
					 M267.4,249.4v-14.2h3.6v12.9c0,0.5,0.2,0.7,0.7,0.7h3.1c0.5,0,0.7-0.2,0.7-0.7v-6.9l3.3,1v7.1c0,2.1-1.1,3.2-3.2,3.2h-5.1
					C268.5,252.6,267.4,251.5,267.4,249.4z"/>
				<path class="st6" d="M303.7,204.3v49.3h-3.9v-20.6h-5.7v3.6c0,6.7-1.4,12.3-4.3,16.5l-3.1-2.6c2.6-3.5,3.8-8.2,3.8-13.9v-3.6
					h-3.6v-3.8h12.9v-7.2h-11v-1.9v-1.9v-11.5h3.8v11.5h7.2v-14H303.7z M326.8,222.1c-4.7,3.7-10.9,6.2-18.7,7.5l-1.7-3.5
					c3.4-0.5,6.4-1.3,9.2-2.2c-1.4-1.5-2.9-2.9-4.7-4.4l2.7-2.2c2,1.7,3.8,3.4,5.4,5.2c1.6-0.7,3.1-1.5,4.4-2.4
					c-1.9-1.8-4.1-3.6-6.6-5.4l2.4-2.3c2.5,1.8,4.8,3.7,6.8,5.6c2.1-1.8,3.9-3.9,5.3-6.3h-15.1c-2.7,2.8-5.7,5.5-9.1,8l-2.3-3
					c6-4.1,10.5-8.4,13.6-12.8l3.3,1.7c-0.7,0.9-1.4,1.8-2.1,2.7h15.8v3.5C333.1,215.9,330.3,219.3,326.8,222.1z M330.2,235.1v13.4
					c0,3.2-1.6,4.8-4.8,4.8h-7.9l-1-4h7.8c1.2,0,1.9-0.6,1.9-1.9v-12.3h-19.9v-3.8h19.9v-5.8h3.9v5.8h6.3v3.8H330.2z M308.9,239
					l3.1-2.1c2.5,2.5,4.6,5,6.4,7.5l-3.4,2.1C313.5,244.1,311.5,241.6,308.9,239z"/>
				<path class="st6" d="M352.7,227.7c-0.4,10.2-2.7,18.8-6.8,25.8l-2.6-4.2c3.7-6,5.6-14.4,5.6-25.3v-7.9h-4.7v-3.9h10.6
					c-0.3-2.4-0.9-4.9-1.7-7.7l3.9-0.3c0.7,2.8,1.3,5.4,1.7,8h8.2v3.9h-14.1v7.7h8h1.9h2c0,2.9,0,7,0,12.3c0,5.3-0.1,8.9-0.3,10.9
					c-0.2,2.2-0.9,3.9-2,4.9c-1,1-2.8,1.5-5.4,1.5c-1.4,0-2.9,0-4.3,0l-1-4c1.8,0,3.4,0,4.9,0c1.3,0,2.3-0.3,2.9-1
					c0.5-0.6,0.9-1.7,1-3.3c0.2-1.7,0.3-4.8,0.3-9.4c0-2.9,0-5.6,0-8H352.7z M365.4,222.8c6-6.1,10.4-12.3,13.2-18.5l3.6,0.3
					c-0.4,0.9-0.7,1.8-1.1,2.7c3.7,5.3,8,10.2,12.9,14.8l-2.1,3.4c-4.2-3.7-8.4-8.7-12.5-14.8c-2.9,5.3-6.9,10.5-11.8,15.5
					L365.4,222.8z M368.4,241.4l2.3-3.1c7.5,3.7,14.2,7.6,20.2,11.8l-2.6,3.3C382.8,249,376.1,245.1,368.4,241.4z M386.3,236
					c-3.8-2.7-8.3-5.6-13.6-8.6l2.2-3.3c6.8,4,11.4,6.9,13.8,8.7L386.3,236z"/>
				<path class="st3" d="M431.9,250.1c-4.1,0-7.1-0.9-9-2.9c-1.9-1.9-2.9-4.4-2.9-7.4h4.4c0,1.8,0.6,3.3,1.8,4.5
					c1.2,1.2,3.1,1.8,5.7,1.8c2.6,0,4.5-0.7,5.8-2.2c1.3-1.4,1.9-3.4,1.9-5.9c0-2.4-0.6-4.3-1.8-5.7c-1.2-1.4-2.9-2.1-5.2-2.1h-3
					v-3.9h2.6c1.8,0,3.4-0.6,4.7-1.9c1.3-1.2,1.9-3.1,1.9-5.7c0-2.2-0.6-3.8-1.8-5c-1.2-1.2-2.9-1.8-5-1.8c-2.2,0-3.8,0.5-5,1.5
					c-1.2,1-1.8,2.4-1.9,4.3h-4.4c0-2.7,1-5,3-7c2-2,4.8-3,8.4-3c3.4,0,6.2,1,8.3,2.9c2.1,1.9,3.1,4.6,3.1,8c0,2.6-0.6,4.7-1.7,6.3
					c-1.1,1.6-2.5,2.6-4.1,3.1c1.9,0.5,3.5,1.6,4.7,3.3c1.3,1.7,1.9,3.9,1.9,6.7c0,3.8-1.1,6.8-3.2,9
					C438.8,249,435.8,250.1,431.9,250.1z"/>
				<path class="st6" d="M483.5,223.5v30h-3.9v-22.7c-1.9,4.9-4.5,9.4-7.6,13.4l-1.2-4.8c3.6-4.4,6.3-9.7,8.2-16h-7.1v-3.9h7.8v-8.7
					c-2.2,0.4-4.4,0.7-6.7,1l-1.4-3.6c6-0.7,11.8-1.9,17.3-3.4l2,3.3c-2.4,0.7-4.8,1.3-7.2,1.9v9.5h7.2v3.9H483.5z M484,231.4l2.3-2
					c2.1,2.6,3.9,5.2,5.4,7.7l-2.9,2.4C487.6,236.9,486,234.2,484,231.4z M489,250.5c12.5-4.9,21.6-11.7,27.2-20.6l3.7,1.8
					c-7,10.2-16.4,17.6-28.2,22.1L489,250.5z M495.6,210.8l3.5,1c-1.2,6.6-2.8,12.7-4.5,18.4l-3.7-1.1
					C493,223.5,494.6,217.4,495.6,210.8z M503.5,231.4v-27.1h3.9v28.2c0,2.9-1.3,4.4-4,4.4h-5.5l-1-4h5.1
					C502.9,233,503.5,232.4,503.5,231.4z M511.4,211.4l3.3-1.5c2.7,5.9,4.8,11.4,6.3,16.5l-3.6,1.5
					C516.3,223.6,514.3,218.1,511.4,211.4z"/>
				<path class="st6" d="M538.7,227.8v25.9h-3.9v-21.2c-1.5,1.6-3.1,3.2-4.7,4.6l-2-3.4c5.1-4.4,9.2-9.7,12.3-15.9l3.4,1.4
					C542.3,222.3,540.7,225.1,538.7,227.8z M528.5,216.8c4.3-3.4,7.8-7.6,10.5-12.5l3.4,1.6c-3,5.6-7,10.4-12,14.4L528.5,216.8z
					 M571.6,208.9c-3.3,3.2-6.9,6.3-10.7,9.4c-2.6,2.1-5.5,4.2-8.5,6.3c5-0.4,11-0.9,18-1.4c-1-1.8-2.1-3.6-3.4-5.5l3.1-1.2
					c2.9,4.3,5.4,8.6,7.4,12.8l-3.5,1.4c-0.5-1.4-1.2-2.7-1.9-4.1c-5.2,0.3-10.1,0.7-14.8,1.1c-0.9,1.6-1.9,3.2-3,4.7h18.3v3.3
					c-2.1,4-4.9,7.3-8.3,10c4,2,8.6,3.5,13.7,4.5l-1.9,3.6c-5.9-1.4-11-3.3-15.3-5.8c-4.5,2.7-10.2,4.6-16.9,5.8l-1.7-3.6
					c6-0.9,11-2.4,15.1-4.4c-3.1-2.2-5.6-4.7-7.7-7.6c-1.6,1.7-3.4,3.4-5.3,5l-2.8-2.6c4.9-4,8.7-8.3,11.6-12.6
					c-2.8,0.2-5.6,0.5-8.2,0.8l-0.8-3.6c2.8-1.2,5.6-2.8,8.3-4.7c1.3-1,2.6-2,3.9-3c-3.6,0.3-6.9,0.7-10,1.1l-0.8-3.4
					c1.8-0.9,3.8-2.4,6.1-4.5c2.2-2.2,4.3-4.4,6.1-6.6l3.3,1.5c-3.3,3.7-6.4,6.7-9.2,9.1c2.7-0.2,5.7-0.4,8.8-0.6
					c2.7-2.2,5.1-4.5,7.4-6.7L571.6,208.9z M568.8,235.7h-16.8c2.4,3.2,5.4,5.8,9,8l0.3-0.2C564.3,241.4,566.8,238.8,568.8,235.7z"
					/>
				<path class="st6" d="M630.4,209.8v43.7h-4v-4.2h-31.6v4.2h-4v-39.9v-1.9v-2h15.6l1.8-5.9l4,0.5l-1.7,5.4h15.9h2H630.4z
					 M626.4,213.7h-31.6v8.1h31.6V213.7z M626.4,225.5h-31.6v7.7h31.6V225.5z M626.4,237h-31.6v8.4h31.6V237z"/>
				<path class="st6" d="M644,207.3c8.8-0.2,17.4-0.9,25.5-2.3l1.5,3.1c-3.7,0.6-7.5,1.2-11.3,1.5v4.2h11.6v3.3h-11.6v3.3h6.4h1.8
					h1.9v13.2v1.6v1.6h-10.1v3.8h11.2v3.3h-11.2v4.2c3.7-0.3,7.3-0.7,10.7-1.1l0.3,2.6c4.5-7.2,6.8-16.5,6.8-27.9V218H673v-3.9h4.4
					v-9.6h3.8v9.6h6.2h1.9h1.9v29.6c0,2.3-0.2,4.1-0.5,5.4c-0.3,1.3-0.9,2.3-1.9,3c-1,0.7-2.4,1.1-4.3,1.1h-4.5l-1-3.9h4.8
					c1.3,0,2.1-0.3,2.6-0.9c0.4-0.5,0.6-1.3,0.7-2.2c0.1-0.9,0.1-2.2,0.1-3.8V218h-6.2v3.7c0,13.1-2.8,23.8-8.5,32l-3.1-2.6
					c0.2-0.3,0.4-0.7,0.7-1c-8.4,1.3-17.3,2.1-26.7,2.6l-0.2-3.6c4.3-0.2,8.5-0.4,12.5-0.7V244h-11.6v-3.3h11.6v-3.8h-10.3v-1.6
					v-1.6v-13.2h1.8h1.9h6.7v-3.3h-12.4v-3.3h12.4V210c-3.6,0.3-7.3,0.4-11,0.5L644,207.3z M655.8,227.1v-3.5h-6.7v3.5H655.8z
					 M655.8,233.6v-3.6h-6.7v3.6H655.8z M659.6,223.6v3.5h6.4v-3.5H659.6z M659.6,230.1v3.6h6.4v-3.6H659.6z"/>
				<path class="st6" d="M703.1,206.4h20.2v3.6c-1.1,3.5-3,6.6-5.5,9.4h16.3c-2.9-3.5-5.4-8.2-7.5-14l3.4-1c0.9,2.3,1.8,4.4,2.8,6.2
					c2.6-1.7,5.3-3.8,8.2-6.2l2.6,2.7c-2.7,2.2-5.7,4.4-9,6.5c1,1.6,2.1,3,3.2,4.2c0.1,0.1,0.2,0.2,0.3,0.3c2.8-1.8,5.7-4,8.8-6.6
					l2.5,2.8c-2.6,2.1-5.5,4.2-8.6,6.1c2.7,2.1,6,3.9,10,5.6l-2.2,3.5c-5.8-2.7-10.3-5.8-13.5-9.3v2.6H716v-1.8
					c-0.3,0.3-0.6,0.6-0.9,0.8c-3.9,3.3-8.4,6-13.5,7.9l-1.8-3.4c3.7-1.3,7-3,9.9-5c-2-2-4.4-3.9-7.1-5.7l2.6-2.5
					c2.8,1.9,5.3,3.9,7.5,6c3.1-2.7,5.3-5.7,6.7-9.2h-16.3V206.4z M713,227h24.6h2h2v11.2v1.7v1.7H737l-2.9,6.5h14.7v3.6h-47.2v-3.6
					h14.1l-2.4-6.5H709v-1.7v-1.7V227h2H713z M737.6,230.4H713v7.8h24.6V230.4z M733,241.6h-15.5l2.3,6.5h10.4L733,241.6z"/>
				<path class="st6" d="M765.4,232.4v13.1h15.2v-19.3H763v-1.9v-2v-14.1h4v14.1h13.7v-17.9h4v17.9h13.5v-14.1h4v18h-2h-2h-13.5
					v19.3h15v-13.1h4v21.3h-4v-4.4h-38.3v-1.9v-2v-13.1H765.4z"/>
				<path class="st6" d="M838.8,226h6.2l-7,14.5h-3.5L838.8,226z"/>
				<path class="st6" d="M874.3,234.3c1.8-5.3,3.3-10.9,4.4-16.7h-6.3v-3.8h7c0.5-3,0.8-6.1,1.1-9.3h4c-0.3,3.2-0.7,6.3-1.2,9.3h7.1
					h1.9h1.9c-0.1,9.7-1.3,17.4-3.7,23.1c-0.5,1.2-1.2,2.5-2,3.7c2.6,2.2,5.2,4.6,7.8,7.1l-3,2.9c-2.1-2.3-4.5-4.6-7.1-6.9
					c-2.8,3.3-6.6,6.5-11.4,9.7l-2.7-3.1c4.7-3,8.3-6.1,11-9.2C880.4,238.9,877.4,236.6,874.3,234.3z M882.5,217.6
					c-1,5.7-2.3,10.8-3.8,15.4c2.2,1.6,4.5,3.3,6.7,5c0.7-1,1.2-2.1,1.7-3.1c1.9-4.5,3-10.3,3.2-17.3H882.5z M898.7,253.1v-39.6
					v-1.9v-2h16.4h1.9h2v43.5h-3.9v-4.8h-12.5v4.8H898.7z M902.6,213.5v31h12.5v-31H902.6z"/>
				<path class="st6" d="M930.1,229.9h48.3v3.4H955l-1.4,4h17.3h1.9h2v11.3c0,3-1.5,4.5-4.5,4.5h-4.9l-1-3.8h4.7
					c1.2,0,1.8-0.6,1.8-1.8v-6.8h-9.1v11.9h-3.7v-11.9h-7.6v11.9h-3.7v-11.9H938v12.6h-3.9v-12.6V239v-1.7h15.5l1.3-4h-20.8V229.9z
					 M931.8,212.7h20.7v-3.4h-19.3v-3.5h42.1v3.5h-18.9v3.4h16.8h1.9h1.9v10.4h-3.8V216h-16.8v11.6h-3.9V216h-16.9v7.4h-3.8V216
					v-1.7V212.7z M938.6,219.1h10.6v2.8h-10.6V219.1z M938.6,224.4h10.6v2.8h-10.6V224.4z M959.7,219.1h10.6v2.8h-10.6V219.1z
					 M959.7,224.3h10.6v2.8h-10.6V224.3z"/>
				<path class="st6" d="M986.7,252.2c0.9-3.3,1.4-7.2,1.5-11.9l3.1,0.1c0,4.9-0.4,9.1-1.2,12.7L986.7,252.2z M1003.2,211.9
					c-2.9,7.8-6,14.6-9.5,20.3c1.8-0.3,3.8-0.7,6.1-1.1c-0.4-1.4-0.9-2.9-1.4-4.6l2.8-1c1.5,4,2.5,7.7,3.1,11l-3.1,1
					c-0.1-1-0.3-2-0.6-3.1c-4.3,0.7-8.2,1.5-11.8,2.2l-1-3.4c1.3-0.7,2.4-1.8,3.4-3.4c1.3-2.3,2.6-4.9,3.9-7.6
					c-2.5,0.4-4.7,0.8-6.8,1.2l-1-3.5c1.2-0.6,2.2-1.7,2.8-3c1.7-3.8,3.1-8.2,4.3-13.1l3.5,0.6c-1.5,5.5-3.2,10.4-5.1,14.7
					c1.2-0.2,2.5-0.4,3.9-0.6c1.1-2.5,2.1-5.1,3-7.8L1003.2,211.9z M994.8,250.4c0-3.5-0.4-6.8-1-10l3-0.4c0.7,3.4,1.2,6.8,1.3,10.2
					L994.8,250.4z M1001.4,248.7c-0.5-3.1-1.1-6.1-2-9l2.8-0.6c1,3,1.8,6.1,2.3,9.2L1001.4,248.7z M1005.2,248.2v-42.4h3.5v17.7
					h27.5v3.4h-27.5v21.3h28v3.4h-31.4v-1.7V248.2z M1022.8,232.3c-2.3,4-4.7,7.4-7.2,10.3c1.2-0.1,2.5-0.3,3.8-0.5
					c-0.2-0.8-0.6-1.6-0.9-2.6l2.3-0.9c1,2.6,1.8,5,2.3,7.2l-2.6,0.9c-0.1-0.7-0.3-1.4-0.5-2.2c-3.2,0.4-6.1,0.8-8.7,1.3l-0.7-2.7
					c1.1-0.5,2.1-1.4,3.1-2.6c0.8-1,1.6-2,2.4-3.1c-1.8,0.3-3.5,0.6-5.1,0.9l-0.8-2.7c1-0.6,1.9-1.4,2.7-2.5c1-1.5,2-3.3,3-5.3
					l2.6,0.8c-1.1,2.4-2.3,4.5-3.6,6.4c1-0.1,2-0.3,3.1-0.4c0.7-1.1,1.5-2.3,2.2-3.6L1022.8,232.3z M1023,208.1
					c-2.4,3.9-4.8,7.2-7.3,10c1.1-0.1,2.2-0.3,3.5-0.4c-0.2-0.7-0.4-1.5-0.7-2.2l2.3-0.9c0.9,2.5,1.6,4.8,2,6.9l-2.6,0.9
					c-0.1-0.7-0.2-1.4-0.4-2.2c-3.1,0.4-5.8,0.8-8.4,1.3l-0.7-2.7c1.1-0.6,2.1-1.4,3.1-2.6c0.7-0.9,1.4-1.7,2.2-2.7
					c-1.7,0.2-3.4,0.5-4.9,0.8l-0.7-2.7c1-0.5,1.8-1.3,2.6-2.5c1-1.5,2-3.3,2.9-5.3l2.6,0.7c-1.1,2.5-2.3,4.6-3.6,6.4
					c1-0.1,2-0.2,3.1-0.4c0.8-1.2,1.6-2.5,2.5-3.8L1023,208.1z M1035.6,208.3c-2.1,3.7-4.2,6.9-6.4,9.6c1.1-0.1,2.3-0.3,3.6-0.4
					c-0.2-0.8-0.5-1.7-0.9-2.6l2.3-0.9c1,2.6,1.7,5,2.2,7.2l-2.6,0.9c-0.1-0.7-0.2-1.4-0.4-2.2c-3.1,0.4-5.8,0.8-8.4,1.3l-0.7-2.7
					c1.1-0.5,2.1-1.4,3-2.6c0.5-0.7,1.1-1.4,1.6-2.1c-1.7,0.2-3.3,0.4-4.7,0.6l-0.7-2.7c1-0.5,1.8-1.3,2.5-2.3
					c1.1-1.6,2-3.4,2.9-5.5l2.6,0.7c-1.1,2.5-2.3,4.7-3.5,6.7c0.9-0.1,1.8-0.2,2.8-0.3c0.8-1.2,1.5-2.6,2.3-3.9L1035.6,208.3z
					 M1035.7,232.2c-2.1,3.8-4.2,7.1-6.4,9.9c1.2-0.1,2.5-0.3,3.9-0.4c-0.2-0.9-0.5-1.8-0.9-2.8l2.3-0.8c1,2.7,1.7,5.3,2.2,7.7
					l-2.7,0.8c-0.1-0.7-0.2-1.5-0.4-2.4c-3.1,0.4-5.9,0.8-8.5,1.3l-0.7-2.7c1.1-0.5,2.1-1.4,3-2.6c0.6-0.8,1.3-1.7,1.9-2.6
					c-1.8,0.2-3.5,0.5-5.1,0.7l-0.7-2.7c1-0.5,1.8-1.3,2.6-2.3c1-1.6,2-3.4,2.9-5.4l2.6,0.8c-1.1,2.4-2.3,4.5-3.5,6.4
					c0.9-0.1,1.9-0.2,3-0.3c0.7-1.2,1.4-2.4,2.1-3.7L1035.7,232.2z"/>
				<path class="st6" d="M1061.3,213.3c-3.2,7.6-6.6,14.2-10.3,19.7c2.1-0.3,4.6-0.7,7.4-1c-0.4-1.7-0.8-3.6-1.3-5.5l2.8-0.7
					c1.2,4.3,2.1,8.3,2.6,11.9l-3.2,0.8c0-0.9-0.1-1.8-0.3-2.8c-4.8,0.6-9.2,1.3-13.2,2l-1-3.6c1.5-0.7,2.7-1.8,3.6-3.4
					c1.4-2.2,2.8-4.6,4.1-7.1c-2.8,0.3-5.3,0.7-7.7,1.1l-0.9-3.6c1.3-0.6,2.3-1.7,3.1-3c2.1-4,3.9-8.5,5.5-13.7l3.6,0.8
					c-1.9,5.8-4,10.8-6.3,15.1c1.4-0.2,3-0.4,4.8-0.6c1.1-2.4,2.3-4.9,3.4-7.5L1061.3,213.3z M1044,252.8c1-3.3,1.6-7.4,1.9-12.1
					l3.2,0.2c-0.1,5-0.7,9.3-1.7,12.9L1044,252.8z M1053.1,252c-0.1-3.9-0.5-7.7-1.2-11.3l3.2-0.4c0.8,3.8,1.3,7.6,1.4,11.5
					L1053.1,252z M1060.2,247.7c-0.5-2.7-1.3-5.3-2.2-7.8l2.9-0.9c1.1,2.6,1.9,5.3,2.6,8L1060.2,247.7z M1062.4,253.8l-1.4-3.2
					c4-0.6,7.9-1.5,11.6-2.6l1.8,2.5C1070.5,251.9,1066.5,253,1062.4,253.8z M1093.7,209.2h-14.2v3.2h12.6v2.7h-29.1v-2.7h12.6v-3.2
					h-13.8v-2.7h13.8v-2.1h3.9v2.1h14.2V209.2z M1066.2,217.8h22.6h1.7h1.7v6.5v1.3v1.2h-29.4v-1.2v-1.3v-6.5h1.7H1066.2z
					 M1067.8,229.3h19.8h1.8h1.8v15.4v1.3v1.3h-26.8V246v-1.3v-15.4h1.8H1067.8z M1071.7,224.3v-4h-5.5v4H1071.7z M1067.8,234.6
					h19.8v-2.7h-19.8V234.6z M1067.8,239.6h19.8V237h-19.8V239.6z M1087.6,242h-19.8v2.7h19.8V242z M1080.2,224.3v-4h-5.3v4H1080.2z
					 M1080.9,251l1.3-2.9c3.9,0.6,7.9,1.5,11.9,2.6l-1.7,3.3C1088.4,252.6,1084.6,251.7,1080.9,251z M1083.3,220.3v4h5.5v-4H1083.3z
					"/>
				<path class="st6" d="M57,320.4c4.6-6.8,7.9-15.1,9.9-24.7l3.8,0.3c-1.1,4.7-2.3,9.1-3.8,13.1v35.8h-3.9v-27.2
					c-1.6,2.9-3.3,5.6-5.2,7.9L57,320.4z M106,344.9c-7.9-1-14.7-3.1-20.2-6.3c-3.1,3.2-7.6,5.3-13.5,6.4l-2.1-3.4
					c5.2-0.9,9.2-2.6,12-5.3c-2.9-2.1-5.5-4.5-7.6-7.3l3.2-1.4c2,2.2,4.3,4.2,6.8,5.9c1.5-2.3,2.3-5,2.4-8.2H73.7v-1.8v-1.8v-11.3
					h1.9h1.9H87v-5.9H71.7V301H87v-5.3h3.9v5.3h15.5v3.8H90.9v5.9h9.5h1.9h1.9v11.3v1.8v1.8H90.9c-0.2,4-1.1,7.4-2.8,10.2
					c5.4,2.8,11.9,4.7,19.5,5.4L106,344.9z M87,314.1h-9.5v7.8H87V314.1z M100.5,314.1h-9.5v7.8h9.5V314.1z"/>
				<path class="st6" d="M120.1,298h36.3h2h2v41.8c0,3-1.5,4.5-4.5,4.5h-5.8l-0.9-4h5.4c1.2,0,1.8-0.6,1.8-1.8v-10.3h-14.6v15.3
					h-3.9v-15.3h-14c-0.5,6.7-2.3,12.3-5.3,16.8l-3.3-2.7c3.2-4.6,4.8-10.7,4.8-18.3v-8.3v-5.4v-8.5v-1.9V298z M124,311.3h13.9v-9.4
					H124v8.5V311.3z M124,324.5h13.9V315H124v0.7v8.3C124,324.2,124,324.4,124,324.5z M141.8,311.3h14.6v-9.4h-14.6V311.3z
					 M141.8,324.5h14.6V315h-14.6V324.5z"/>
				<path class="st6" d="M195.7,317.4h6.2l-7,14.5h-3.5L195.7,317.4z"/>
				<path class="st6" d="M247.5,305H229v-3.6h7.8c-0.3-1.8-0.7-3.7-1.2-5.6l3.8-0.3c0.6,2.1,1,4,1.3,6h6.8V305z M230.2,310.1h16.1
					v3.5h-16.1V310.1z M230.2,318.5h16.1v3.5h-16.1V318.5z M245.7,326.9v17.2h-3.5v-2.7h-8.1v3.3h-3.5v-14.3v-1.7v-1.8h11.6h1.8
					H245.7z M242.2,330.4h-8.1v7.5h8.1V330.4z M278.2,302.8h-12.8v3.7h11.9v3.1h-11.9v3.5h13.4v3.3h-30.7v-3.3h13.4v-3.5h-11.1v-3.1
					h11.1v-3.7H249v-3.3h12.5v-3.9h3.9v3.9h12.8V302.8z M251.2,344.9v-22.2v-1.5v-1.6h20.8h1.9h1.9v21.4c0,2.7-1.1,4-3.4,4h-8
					l-0.9-3.5h7.1c1,0,1.4-0.5,1.4-1.4v-3.7h-17v8.7H251.2z M255.1,326.6h17v-4h-17V326.6z M272.1,329.5h-17v3.7h17V329.5z"/>
				<path class="st6" d="M286.4,343.5c0.9-3.3,1.4-7.2,1.5-11.9l3.1,0.1c0,4.9-0.4,9.1-1.2,12.7L286.4,343.5z M302.9,303.2
					c-2.9,7.8-6,14.6-9.5,20.3c1.8-0.3,3.8-0.7,6.1-1.1c-0.4-1.4-0.9-2.9-1.4-4.6l2.8-1c1.5,4,2.5,7.7,3.1,11l-3.1,1
					c-0.1-1-0.3-2-0.6-3.1c-4.3,0.7-8.2,1.5-11.8,2.2l-1-3.4c1.3-0.7,2.4-1.8,3.4-3.4c1.3-2.3,2.6-4.9,3.9-7.6
					c-2.5,0.4-4.7,0.8-6.8,1.2l-1-3.5c1.2-0.6,2.2-1.7,2.8-3c1.7-3.8,3.1-8.2,4.3-13.1l3.5,0.6c-1.5,5.5-3.2,10.4-5.1,14.7
					c1.2-0.2,2.5-0.4,3.9-0.6c1.1-2.5,2.1-5.1,3-7.8L302.9,303.2z M294.4,341.8c0-3.5-0.4-6.8-1-10l3-0.4c0.7,3.4,1.2,6.8,1.3,10.2
					L294.4,341.8z M301.1,340.1c-0.5-3.1-1.1-6.1-2-9l2.8-0.6c1,3,1.8,6.1,2.3,9.2L301.1,340.1z M304.9,339.5v-42.4h3.5v17.7h27.5
					v3.4h-27.5v21.3h28v3.4h-31.4v-1.7V339.5z M322.4,323.6c-2.3,4-4.7,7.4-7.2,10.3c1.2-0.1,2.5-0.3,3.8-0.5
					c-0.2-0.8-0.6-1.6-0.9-2.6l2.3-0.9c1,2.6,1.8,5,2.3,7.2l-2.6,0.9c-0.1-0.7-0.3-1.4-0.5-2.2c-3.2,0.4-6.1,0.8-8.7,1.3l-0.7-2.7
					c1.1-0.5,2.1-1.4,3.1-2.6c0.8-1,1.6-2,2.4-3.1c-1.8,0.3-3.5,0.6-5.1,0.9l-0.8-2.7c1-0.6,1.9-1.4,2.7-2.5c1-1.5,2-3.3,3-5.3
					l2.6,0.8c-1.1,2.4-2.3,4.5-3.6,6.4c1-0.1,2-0.3,3.1-0.4c0.7-1.1,1.5-2.3,2.2-3.6L322.4,323.6z M322.6,299.5
					c-2.4,3.9-4.8,7.2-7.3,10c1.1-0.1,2.2-0.3,3.5-0.4c-0.2-0.7-0.4-1.5-0.7-2.2l2.3-0.9c0.9,2.5,1.6,4.8,2,6.9l-2.6,0.9
					c-0.1-0.7-0.2-1.4-0.4-2.2c-3.1,0.4-5.8,0.8-8.4,1.3l-0.7-2.7c1.1-0.6,2.1-1.4,3.1-2.6c0.7-0.9,1.4-1.7,2.2-2.7
					c-1.7,0.2-3.4,0.5-4.9,0.8l-0.7-2.7c1-0.5,1.8-1.3,2.6-2.5c1-1.5,2-3.3,2.9-5.3l2.6,0.7c-1.1,2.5-2.3,4.6-3.6,6.4
					c1-0.1,2-0.2,3.1-0.4c0.8-1.2,1.6-2.5,2.5-3.8L322.6,299.5z M335.2,299.6c-2.1,3.7-4.2,6.9-6.4,9.6c1.1-0.1,2.3-0.3,3.6-0.4
					c-0.2-0.8-0.5-1.7-0.9-2.6l2.3-0.9c1,2.6,1.7,5,2.2,7.2l-2.6,0.9c-0.1-0.7-0.2-1.4-0.4-2.2c-3.1,0.4-5.8,0.8-8.4,1.3l-0.7-2.7
					c1.1-0.5,2.1-1.4,3-2.6c0.5-0.7,1.1-1.4,1.6-2.1c-1.7,0.2-3.3,0.4-4.7,0.6l-0.7-2.7c1-0.5,1.8-1.3,2.5-2.3
					c1.1-1.6,2-3.4,2.9-5.5l2.6,0.7c-1.1,2.5-2.3,4.7-3.5,6.7c0.9-0.1,1.8-0.2,2.8-0.3c0.8-1.2,1.5-2.6,2.3-3.9L335.2,299.6z
					 M335.3,323.5c-2.1,3.8-4.2,7.1-6.4,9.9c1.2-0.1,2.5-0.3,3.9-0.4c-0.2-0.9-0.5-1.8-0.9-2.8l2.3-0.8c1,2.7,1.7,5.3,2.2,7.7
					l-2.7,0.8c-0.1-0.7-0.2-1.5-0.4-2.4c-3.1,0.4-5.9,0.8-8.5,1.3l-0.7-2.7c1.1-0.5,2.1-1.4,3-2.6c0.6-0.8,1.3-1.7,1.9-2.6
					c-1.8,0.2-3.5,0.5-5.1,0.7l-0.7-2.7c1-0.5,1.8-1.3,2.6-2.3c1-1.6,2-3.4,2.9-5.4l2.6,0.8c-1.1,2.4-2.3,4.5-3.5,6.4
					c0.9-0.1,1.9-0.2,3-0.3c0.7-1.2,1.4-2.4,2.1-3.7L335.3,323.5z"/>
				<path class="st6" d="M361,304.7c-3.2,7.6-6.6,14.2-10.3,19.7c2.1-0.3,4.6-0.7,7.4-1c-0.4-1.7-0.8-3.6-1.3-5.5l2.8-0.7
					c1.2,4.3,2.1,8.3,2.6,11.9l-3.3,0.8c0-0.9-0.1-1.8-0.3-2.8c-4.8,0.6-9.2,1.3-13.2,2l-1-3.6c1.5-0.7,2.7-1.8,3.6-3.4
					c1.4-2.2,2.8-4.6,4.1-7.1c-2.8,0.3-5.3,0.7-7.7,1.1l-0.9-3.6c1.3-0.6,2.3-1.7,3.1-3c2.1-4,3.9-8.5,5.5-13.7l3.6,0.8
					c-1.9,5.8-4,10.8-6.3,15.1c1.4-0.2,3-0.4,4.8-0.6c1.1-2.4,2.3-4.9,3.4-7.5L361,304.7z M343.6,344.1c1-3.3,1.6-7.4,1.9-12.1
					l3.3,0.2c-0.1,5-0.7,9.3-1.7,12.9L343.6,344.1z M352.8,343.3c-0.1-3.9-0.5-7.7-1.2-11.3l3.3-0.4c0.8,3.8,1.3,7.6,1.4,11.5
					L352.8,343.3z M359.8,339c-0.5-2.7-1.3-5.3-2.2-7.8l2.9-0.9c1.1,2.6,1.9,5.3,2.6,8L359.8,339z M362,345.1l-1.4-3.2
					c4-0.6,7.9-1.5,11.6-2.6l1.8,2.5C370.1,343.2,366.2,344.3,362,345.1z M393.3,300.5h-14.2v3.2h12.6v2.7h-29.1v-2.7h12.6v-3.2
					h-13.8v-2.7h13.8v-2.1h3.9v2.1h14.2V300.5z M365.8,309.1h22.6h1.7h1.7v6.5v1.3v1.2h-29.4v-1.2v-1.3v-6.5h1.7H365.8z
					 M367.4,320.6h19.8h1.8h1.8V336v1.3v1.3h-26.8v-1.3V336v-15.4h1.8H367.4z M371.3,315.6v-4h-5.5v4H371.3z M367.4,325.9h19.8v-2.7
					h-19.8V325.9z M367.4,330.9h19.8v-2.6h-19.8V330.9z M387.2,333.3h-19.8v2.7h19.8V333.3z M379.8,315.6v-4h-5.3v4H379.8z
					 M380.6,342.3l1.3-2.9c3.9,0.6,7.9,1.5,11.9,2.6l-1.7,3.3C388.1,344,384.2,343,380.6,342.3z M382.9,311.6v4h5.5v-4H382.9z"/>
				<path class="st6" d="M406.8,318.7c-1.6-1.8-3.6-3.8-5.9-5.9l2.7-2.5c2.9,2.8,4.9,4.7,5.9,5.9L406.8,318.7z M407,304.5
					c-1.6-1.7-3.6-3.7-5.9-5.8l2.7-2.6c2.9,2.7,4.9,4.7,6,5.8L407,304.5z M401.7,343.9c1.3-5.6,2.4-12.1,3.4-19.6l3.6,0.7
					c-1.4,9.6-2.5,16.1-3.4,19.8L401.7,343.9z M435.4,342.5c-8.1,1.1-16.7,1.7-25.8,2l-0.1-3.5c3.9-0.1,7.6-0.3,11.2-0.5v-8h-10
					v-3.1h10v-4.2h-5v-2.8c-1.8,1.1-3.8,2.1-5.9,3.1l-0.7-3.6c5.5-2.6,10-5.6,13.5-9.1l3.1,1.5c-0.4,0.5-0.9,0.9-1.3,1.3
					c4.1,1.7,7.8,3.6,11.3,5.6l-2.2,3.1c-3.3-2.3-7.2-4.4-11.6-6.4c-1.8,1.5-3.7,2.9-5.9,4.2h13.3v3h-5v4.2h9.8v3.1h-9.8v7.8
					c3.7-0.2,7.2-0.6,10.6-1L435.4,342.5z M411.3,298.7c2.9-0.4,5.8-1.3,8.8-2.7l1.3,2.7c-2.1,1.1-4.5,2-7,2.6v3.5v1.8v2.9l5-1.7
					c-0.6-1.5-1.2-2.9-2-4.3l2.4-1.3c1.3,2.2,2.4,4.5,3.3,6.9c1.4-2.1,2.1-4.7,2.1-7.8v-0.6h-2.5v-3.2h9h1.5h1.5c0,1.5,0,3.7,0,6.6
					c0,2.8-0.1,4.7-0.2,5.8c-0.1,1.2-0.6,2.1-1.2,2.7c-0.7,0.5-1.8,0.8-3.4,0.8c-0.8,0-1.5,0-2.3,0l-0.9-3.4c1,0,2,0,2.8,0
					c0.7,0,1.2-0.2,1.5-0.5c0.2-0.3,0.4-0.8,0.5-1.6c0.1-0.9,0.1-2.4,0.1-4.6c0-0.9,0-1.7,0-2.6H428v0.6c0,4.7-1.2,8.5-3.7,11.5
					l-1.4-1.4l-2,1c-0.1-0.5-0.3-1.1-0.5-1.6c-4.1,1.6-7,2.8-8.8,3.7l-1.7-3.3c0.9-0.5,1.3-1.3,1.3-2.4v-2.1v-1.8V302v-1.6V298.7z
					 M412.1,335l2.8-1.3c1.3,1.6,2.3,3.3,3.2,4.9l-3,1.4C414.3,338.4,413.3,336.7,412.1,335z M430.1,333.5l2.9,1.2
					c-0.7,1.6-1.6,3.2-2.7,4.8l-2.9-1.3C428.4,336.9,429.2,335.3,430.1,333.5z M437.6,334.3V301h3.4v33.3H437.6z M444.9,339.3v-43.6
					h3.7v44.7c0,2.9-1.3,4.4-4,4.4h-5.2l-1-3.9h4.9C444.4,340.8,444.9,340.3,444.9,339.3z"/>
				<path class="st6" d="M468.3,318.2h29.5h2h2v15.3v1.3v1.3h-10.4v3.3c0,0.9,0.5,1.4,1.4,1.4h9.8c1.2,0,1.8-0.6,1.8-1.7v-2.7l3.7,1
					v2c0,3.2-1.5,4.7-4.4,4.7h-11.8c-2.9,0-4.4-1.6-4.4-4.7v-3.3h-9.7c-1.7,3-4,5.2-7,6.4c-3.5,1.5-7.2,2.1-11,1.9l-1.2-3.6
					c3.5,0.4,6.7,0.2,9.5-0.8c2.4-0.8,4.3-2.1,5.7-3.9h-9.4v-1.3v-1.3v-15.3h2H468.3z M460.9,313.3v-16.4h1.8h1.8h16.4v2.5h-6.8v3
					h2.2h1.8h1.8v5.4v1.2v1.2h-5.8v3.1h6.8v2.5h-19.9v-1.2V313.3z M470.5,299.4h-6.1v3h6.1V299.4z M476.1,304.7h-11.7v3h11.7V304.7z
					 M470.5,310.1h-6.1v3.1h6.1V310.1z M468.3,323.7h29.5v-2.8h-29.5V323.7z M497.8,326.1h-29.5v2.6h29.5V326.1z M497.8,331.1h-29.5
					v2.5h29.5V331.1z M506.1,300.4h-17.4c-0.5,0.7-1,1.5-1.5,2.1h17.3v2.4h-17.7V303c-1,1.2-2.1,2.3-3.3,3.4l-2.7-2.4
					c3.1-2.4,5.3-5.2,6.8-8.4h3.6c-0.3,0.7-0.6,1.5-1,2.2h15.9V300.4z M486.3,307.2h15.6h1.4h1.4v6.1v1.3v1.2h-21.4v-1.2v-1.3v-6.1
					h1.4H486.3z M489.8,313.3v-3.6h-3.5v3.6H489.8z M495.6,313.3v-3.6h-3.1v3.6H495.6z M498.2,309.7v3.6h3.7v-3.6H498.2z"/>
				<path class="st6" d="M542.6,328.7h-4.2l-0.5-28.9h5.2L542.6,328.7z M543.1,340.5H538v-5h5.1V340.5z"/>
			</g>
		</g>
	</g>
</g>
</svg>
