<?xml version="1.0" encoding="utf-8"?>
<!-- Generator: Adobe Illustrator 28.0.0, SVG Export Plug-In . SVG Version: 6.00 Build 0)  -->
<svg version="1.1" id="圖層_1" xmlns="http://www.w3.org/2000/svg" xmlns:xlink="http://www.w3.org/1999/xlink" x="0px" y="0px"
	 viewBox="0 0 1175.6 614.3" style="enable-background:new 0 0 1175.6 614.3;" xml:space="preserve">
<style type="text/css">
	.st0{clip-path:url(#SVGID_00000044879399969540636190000015332851087399398824_);}
	.st1{fill:#FFFFFF;}
	.st2{opacity:0.34;}
	.st3{clip-path:url(#SVGID_00000173858462447257564980000016950034220825121183_);fill:#FFFFFF;}
	.st4{clip-path:url(#SVGID_00000093893363145490337570000004499892495264633017_);fill:#FFFFFF;}
	.st5{clip-path:url(#SVGID_00000111161249966279035120000001002498940351889043_);fill:#FEFEFE;}
	.st6{clip-path:url(#SVGID_00000075877004771183380850000005346598265960709532_);fill:#FDFDFD;}
	.st7{clip-path:url(#SVGID_00000127042972512073605990000007090323423927918742_);fill:#FCFCFC;}
	.st8{clip-path:url(#SVGID_00000183237981144161405040000003552612529493719696_);fill:#FBFBFB;}
	.st9{clip-path:url(#SVGID_00000039102737405365998530000012904817696202538157_);fill:#FAFAFA;}
	.st10{clip-path:url(#SVGID_00000157306843870846350030000009708948721859931062_);fill:#F9F9F9;}
	.st11{clip-path:url(#SVGID_00000107563540616926052880000004993669495062877068_);fill:#F8F8F8;}
	.st12{clip-path:url(#SVGID_00000121255904765011625040000001473353980287476113_);fill:#F7F7F7;}
	.st13{clip-path:url(#SVGID_00000054252024299259545700000006960501657321638021_);fill:#F6F6F6;}
	.st14{clip-path:url(#SVGID_00000137820757106395457460000000117766117551770761_);fill:#F4F4F4;}
	.st15{clip-path:url(#SVGID_00000021836657455485329280000002949033495788039598_);fill:#F3F3F3;}
	.st16{clip-path:url(#SVGID_00000077302321369892577050000016755472585657728426_);fill:#F2F2F2;}
	.st17{clip-path:url(#SVGID_00000090977803438582556480000011781646596316445321_);fill:#F1F1F1;}
	.st18{clip-path:url(#SVGID_00000106831704470433140010000006772967748103027624_);fill:#F0F0F0;}
	.st19{clip-path:url(#SVGID_00000018935168091510252920000000700884520577545379_);fill:#EFEFEF;}
	.st20{clip-path:url(#SVGID_00000019669540772965501720000010336430072522664871_);fill:#EEEEEE;}
	.st21{clip-path:url(#SVGID_00000025410497455283045100000016285235432645743532_);fill:#EDEDED;}
	.st22{clip-path:url(#SVGID_00000090296043018099363950000012137872587818520473_);fill:#ECECEC;}
	.st23{clip-path:url(#SVGID_00000173155152186185571550000004063503084227319197_);fill:#EBEBEB;}
	.st24{clip-path:url(#SVGID_00000070816413271301622090000006726423000717505179_);fill:#EBEBEB;}
	.st25{display:none;fill:#E2E2E2;}
	.st26{fill:none;}
	.st27{fill:#F1F3F4;}
	.st28{fill:#E8EAED;}
	.st29{clip-path:url(#SVGID_00000126309448343147248570000001348638883567255186_);}
	.st30{fill:url(#SVGID_00000039102372291748124650000015059797168764909984_);}
	.st31{fill:url(#SVGID_00000009563242276712580560000014827633342210798240_);}
	.st32{fill:url(#SVGID_00000109011434888977663750000006463976702708500352_);}
	.st33{fill:#1A73E8;}
	.st34{opacity:0.1;fill:#BDC1C6;enable-background:new    ;}
	.st35{fill:#606367;}
	.st36{clip-path:url(#SVGID_00000137821508437720805500000015088522356084763561_);}
	.st37{fill:#052F6D;}
	.st38{fill:#A6CAFF;}
	.st39{display:none;}
	.st40{display:inline;}
	.st41{fill:#111111;}
	.st42{fill:#3871E0;}
	.st43{fill:#636363;}
	.st44{fill:#3265CB;}
	.st45{fill:none;stroke:#C4C4C4;stroke-miterlimit:10;}
	.st46{fill:#202124;}
	.st47{fill:#7F7F7F;}
	.st48{fill:none;stroke:#0057B5;stroke-width:2;stroke-miterlimit:10;}
</style>
<g>
	<g>
		<defs>
			<path id="SVGID_1_" d="M1161.8,614.3H13.8c-7.6,0-13.8-6.2-13.8-13.8V13.8C0,6.2,6.2,0,13.8,0h1148c7.6,0,13.8,6.2,13.8,13.8
				v586.7C1175.6,608.1,1169.4,614.3,1161.8,614.3z"/>
		</defs>
		<clipPath id="SVGID_00000154404893475858534260000002985274795341429904_">
			<use xlink:href="#SVGID_1_"  style="overflow:visible;"/>
		</clipPath>
		<g style="clip-path:url(#SVGID_00000154404893475858534260000002985274795341429904_);">
			<rect class="st1" width="1175.6" height="614.3"/>
			<g class="st2">
				<g>
					<g>
						<g>
							<defs>
								<rect id="SVGID_00000132803820646020654390000006451910944138762672_" y="155.8" width="1175.6" height="15"/>
							</defs>
							<clipPath id="SVGID_00000042708807231499135990000002698909745462779042_">
								<use xlink:href="#SVGID_00000132803820646020654390000006451910944138762672_"  style="overflow:visible;"/>
							</clipPath>
							<path style="clip-path:url(#SVGID_00000042708807231499135990000002698909745462779042_);fill:#FFFFFF;" d="M0,170.8h1175.6
								H0z"/>
						</g>
						<g>
							<defs>
								<rect id="SVGID_00000168816832375434357530000004764832467595246740_" y="155.8" width="1175.6" height="15"/>
							</defs>
							<clipPath id="SVGID_00000166673822049297021800000005838553506329676714_">
								<use xlink:href="#SVGID_00000168816832375434357530000004764832467595246740_"  style="overflow:visible;"/>
							</clipPath>
							
								<rect y="170.1" style="clip-path:url(#SVGID_00000166673822049297021800000005838553506329676714_);fill:#FFFFFF;" width="1175.6" height="0.8"/>
						</g>
						<g>
							<defs>
								<rect id="SVGID_00000023966248285474196870000011866920463201033863_" y="155.8" width="1175.6" height="15"/>
							</defs>
							<clipPath id="SVGID_00000070113434599778152030000007333891427385184902_">
								<use xlink:href="#SVGID_00000023966248285474196870000011866920463201033863_"  style="overflow:visible;"/>
							</clipPath>
							
								<rect y="169.3" style="clip-path:url(#SVGID_00000070113434599778152030000007333891427385184902_);fill:#FEFEFE;" width="1175.6" height="0.8"/>
						</g>
						<g>
							<defs>
								<rect id="SVGID_00000043426993180709777630000006168707272590706364_" y="155.8" width="1175.6" height="15"/>
							</defs>
							<clipPath id="SVGID_00000137115368151578261440000011848215460808018067_">
								<use xlink:href="#SVGID_00000043426993180709777630000006168707272590706364_"  style="overflow:visible;"/>
							</clipPath>
							
								<rect y="168.6" style="clip-path:url(#SVGID_00000137115368151578261440000011848215460808018067_);fill:#FDFDFD;" width="1175.6" height="0.8"/>
						</g>
						<g>
							<defs>
								<rect id="SVGID_00000081615151732504710300000010918586430551238797_" y="155.8" width="1175.6" height="15"/>
							</defs>
							<clipPath id="SVGID_00000065776108931176421620000008160228262317485216_">
								<use xlink:href="#SVGID_00000081615151732504710300000010918586430551238797_"  style="overflow:visible;"/>
							</clipPath>
							
								<rect y="167.8" style="clip-path:url(#SVGID_00000065776108931176421620000008160228262317485216_);fill:#FCFCFC;" width="1175.6" height="0.8"/>
						</g>
						<g>
							<defs>
								<rect id="SVGID_00000150099338929785266390000007112754421785152901_" y="155.8" width="1175.6" height="15"/>
							</defs>
							<clipPath id="SVGID_00000111171944599202073810000004854255586225107635_">
								<use xlink:href="#SVGID_00000150099338929785266390000007112754421785152901_"  style="overflow:visible;"/>
							</clipPath>
							
								<rect y="167.1" style="clip-path:url(#SVGID_00000111171944599202073810000004854255586225107635_);fill:#FBFBFB;" width="1175.6" height="0.8"/>
						</g>
						<g>
							<defs>
								<rect id="SVGID_00000012438286542573783940000006927511596238625420_" y="155.8" width="1175.6" height="15"/>
							</defs>
							<clipPath id="SVGID_00000021821456795587097320000001387279401886598059_">
								<use xlink:href="#SVGID_00000012438286542573783940000006927511596238625420_"  style="overflow:visible;"/>
							</clipPath>
							
								<rect y="166.3" style="clip-path:url(#SVGID_00000021821456795587097320000001387279401886598059_);fill:#FAFAFA;" width="1175.6" height="0.8"/>
						</g>
						<g>
							<defs>
								<rect id="SVGID_00000019660831456764594120000011100253244501035421_" y="155.8" width="1175.6" height="15"/>
							</defs>
							<clipPath id="SVGID_00000096781765249492851760000011904727990517854865_">
								<use xlink:href="#SVGID_00000019660831456764594120000011100253244501035421_"  style="overflow:visible;"/>
							</clipPath>
							
								<rect y="165.6" style="clip-path:url(#SVGID_00000096781765249492851760000011904727990517854865_);fill:#F9F9F9;" width="1175.6" height="0.8"/>
						</g>
						<g>
							<defs>
								<rect id="SVGID_00000047032297690576442870000009204537533789857970_" y="155.8" width="1175.6" height="15"/>
							</defs>
							<clipPath id="SVGID_00000152945768557998496530000004564132216398822314_">
								<use xlink:href="#SVGID_00000047032297690576442870000009204537533789857970_"  style="overflow:visible;"/>
							</clipPath>
							
								<rect y="164.8" style="clip-path:url(#SVGID_00000152945768557998496530000004564132216398822314_);fill:#F8F8F8;" width="1175.6" height="0.8"/>
						</g>
						<g>
							<defs>
								<rect id="SVGID_00000171696100002568894620000014224804393216865442_" y="155.8" width="1175.6" height="15"/>
							</defs>
							<clipPath id="SVGID_00000101805928625875555430000008907815359709365682_">
								<use xlink:href="#SVGID_00000171696100002568894620000014224804393216865442_"  style="overflow:visible;"/>
							</clipPath>
							
								<rect y="164.1" style="clip-path:url(#SVGID_00000101805928625875555430000008907815359709365682_);fill:#F7F7F7;" width="1175.6" height="0.8"/>
						</g>
						<g>
							<defs>
								<rect id="SVGID_00000013881282900589385050000011521354630738695858_" y="155.8" width="1175.6" height="15"/>
							</defs>
							<clipPath id="SVGID_00000180350893880823926130000004568026670713272735_">
								<use xlink:href="#SVGID_00000013881282900589385050000011521354630738695858_"  style="overflow:visible;"/>
							</clipPath>
							
								<rect y="163.3" style="clip-path:url(#SVGID_00000180350893880823926130000004568026670713272735_);fill:#F6F6F6;" width="1175.6" height="0.8"/>
						</g>
						<g>
							<defs>
								<rect id="SVGID_00000147922576199141298130000017457324057846901894_" y="155.8" width="1175.6" height="15"/>
							</defs>
							<clipPath id="SVGID_00000124876218538706669330000007983559684875817881_">
								<use xlink:href="#SVGID_00000147922576199141298130000017457324057846901894_"  style="overflow:visible;"/>
							</clipPath>
							
								<rect y="162.6" style="clip-path:url(#SVGID_00000124876218538706669330000007983559684875817881_);fill:#F4F4F4;" width="1175.6" height="0.8"/>
						</g>
						<g>
							<defs>
								<rect id="SVGID_00000156549299043723232810000017415494288638804891_" y="155.8" width="1175.6" height="15"/>
							</defs>
							<clipPath id="SVGID_00000128487426973669796090000016662363498914764461_">
								<use xlink:href="#SVGID_00000156549299043723232810000017415494288638804891_"  style="overflow:visible;"/>
							</clipPath>
							
								<rect y="161.8" style="clip-path:url(#SVGID_00000128487426973669796090000016662363498914764461_);fill:#F3F3F3;" width="1175.6" height="0.8"/>
						</g>
						<g>
							<defs>
								<rect id="SVGID_00000160150482477701776270000006676944409597303724_" y="155.8" width="1175.6" height="15"/>
							</defs>
							<clipPath id="SVGID_00000050651906165436178930000012864734545245444786_">
								<use xlink:href="#SVGID_00000160150482477701776270000006676944409597303724_"  style="overflow:visible;"/>
							</clipPath>
							
								<rect y="161.1" style="clip-path:url(#SVGID_00000050651906165436178930000012864734545245444786_);fill:#F2F2F2;" width="1175.6" height="0.8"/>
						</g>
						<g>
							<defs>
								<rect id="SVGID_00000179639827949250915730000012926731483983466157_" y="155.8" width="1175.6" height="15"/>
							</defs>
							<clipPath id="SVGID_00000031172042755897916950000016691858896465935530_">
								<use xlink:href="#SVGID_00000179639827949250915730000012926731483983466157_"  style="overflow:visible;"/>
							</clipPath>
							
								<rect y="160.3" style="clip-path:url(#SVGID_00000031172042755897916950000016691858896465935530_);fill:#F1F1F1;" width="1175.6" height="0.8"/>
						</g>
						<g>
							<defs>
								<rect id="SVGID_00000138575490313234045720000007408114308422175153_" y="155.8" width="1175.6" height="15"/>
							</defs>
							<clipPath id="SVGID_00000037664548584774794450000008195806715181022365_">
								<use xlink:href="#SVGID_00000138575490313234045720000007408114308422175153_"  style="overflow:visible;"/>
							</clipPath>
							
								<rect y="159.6" style="clip-path:url(#SVGID_00000037664548584774794450000008195806715181022365_);fill:#F0F0F0;" width="1175.6" height="0.8"/>
						</g>
						<g>
							<defs>
								<rect id="SVGID_00000136388289552338002530000010067408878267335314_" y="155.8" width="1175.6" height="15"/>
							</defs>
							<clipPath id="SVGID_00000157995269294598637550000010842002797908046992_">
								<use xlink:href="#SVGID_00000136388289552338002530000010067408878267335314_"  style="overflow:visible;"/>
							</clipPath>
							
								<rect y="158.8" style="clip-path:url(#SVGID_00000157995269294598637550000010842002797908046992_);fill:#EFEFEF;" width="1175.6" height="0.8"/>
						</g>
						<g>
							<defs>
								<rect id="SVGID_00000171719176754795520600000001919505929406082205_" y="155.8" width="1175.6" height="15"/>
							</defs>
							<clipPath id="SVGID_00000178926356041752529910000007289872046983469237_">
								<use xlink:href="#SVGID_00000171719176754795520600000001919505929406082205_"  style="overflow:visible;"/>
							</clipPath>
							
								<rect y="158.1" style="clip-path:url(#SVGID_00000178926356041752529910000007289872046983469237_);fill:#EEEEEE;" width="1175.6" height="0.8"/>
						</g>
						<g>
							<defs>
								<rect id="SVGID_00000165938425807574912680000010009955422265576836_" y="155.8" width="1175.6" height="15"/>
							</defs>
							<clipPath id="SVGID_00000058550324765267472390000010610260706253302413_">
								<use xlink:href="#SVGID_00000165938425807574912680000010009955422265576836_"  style="overflow:visible;"/>
							</clipPath>
							
								<rect y="157.3" style="clip-path:url(#SVGID_00000058550324765267472390000010610260706253302413_);fill:#EDEDED;" width="1175.6" height="0.8"/>
						</g>
						<g>
							<defs>
								<rect id="SVGID_00000135656541012106815010000004037607091688912006_" y="155.8" width="1175.6" height="15"/>
							</defs>
							<clipPath id="SVGID_00000180362677682276630900000003055922674834835332_">
								<use xlink:href="#SVGID_00000135656541012106815010000004037607091688912006_"  style="overflow:visible;"/>
							</clipPath>
							
								<rect y="156.6" style="clip-path:url(#SVGID_00000180362677682276630900000003055922674834835332_);fill:#ECECEC;" width="1175.6" height="0.8"/>
						</g>
						<g>
							<defs>
								<rect id="SVGID_00000147909612074665315730000016195020138270780574_" y="155.8" width="1175.6" height="15"/>
							</defs>
							<clipPath id="SVGID_00000052083348576999318840000000029192441498256547_">
								<use xlink:href="#SVGID_00000147909612074665315730000016195020138270780574_"  style="overflow:visible;"/>
							</clipPath>
							
								<rect y="155.8" style="clip-path:url(#SVGID_00000052083348576999318840000000029192441498256547_);fill:#EBEBEB;" width="1175.6" height="0.8"/>
						</g>
						<g>
							<defs>
								<rect id="SVGID_00000062886266217530185380000001264125790743061648_" y="155.8" width="1175.6" height="15"/>
							</defs>
							<clipPath id="SVGID_00000142153635239559967690000002364517907395082403_">
								<use xlink:href="#SVGID_00000062886266217530185380000001264125790743061648_"  style="overflow:visible;"/>
							</clipPath>
							<path style="clip-path:url(#SVGID_00000142153635239559967690000002364517907395082403_);fill:#EBEBEB;" d="M1175.6,155.8H0
								H1175.6z"/>
						</g>
					</g>
				</g>
			</g>
			<rect class="st1" width="1175.6" height="156.3"/>
		</g>
	</g>
</g>
<rect x="-120.8" y="-404.8" class="st25" width="1423.8" height="1423.8"/>
<rect id="bounding-box-1_00000178890544577748415000000004910105471760625827_" x="32.7" y="17.4" class="st26" width="119.1" height="119.1"/>
<g id="art-layer_00000177464415843627658160000005240545444850184609_">
	<g>
		<path class="st27" d="M139.4,34.7H45.1v75.5c0,3.5,2.9,6.4,6.4,6.4H133c3.5,0,6.4-2.9,6.4-6.4V34.7L139.4,34.7z"/>
		<path class="st27" d="M139.4,34.7H45.1v75.5c0,3.5,2.9,6.4,6.4,6.4H133c3.5,0,6.4-2.9,6.4-6.4V34.7L139.4,34.7z"/>
		<rect x="45.1" y="34.7" class="st28" width="94.3" height="41.2"/>
		<path class="st1" d="M103,52.3H81.6c-2.4,0-4.3-1.9-4.3-4.3l0,0c0-2.4,1.9-4.3,4.3-4.3H103c2.4,0,4.3,1.9,4.3,4.3l0,0
			C107.3,50.4,105.4,52.3,103,52.3z"/>
		<g>
			<g>
				<g>
					<g>
						<g>
							<defs>
								<path id="SVGID_00000127749814892434520120000016181115827416056487_" d="M139.4,34.7H45.1v75.5c0,3.5,2.9,6.4,6.4,6.4H133
									c3.5,0,6.4-2.9,6.4-6.4V34.7L139.4,34.7z"/>
							</defs>
							<clipPath id="SVGID_00000063596040530220348650000009841053593617215903_">
								<use xlink:href="#SVGID_00000127749814892434520120000016181115827416056487_"  style="overflow:visible;"/>
							</clipPath>
							<g style="clip-path:url(#SVGID_00000063596040530220348650000009841053593617215903_);">
								
									<linearGradient id="SVGID_00000129927265732236241060000014858382457157601411_" gradientUnits="userSpaceOnUse" x1="-157.0978" y1="799.1147" x2="-135.0631" y2="799.1147" gradientTransform="matrix(3.1995 0 0 3.1995 559.6345 -2461.9175)">
									<stop  offset="0" style="stop-color:#D93025"/>
									<stop  offset="1" style="stop-color:#EA4335"/>
								</linearGradient>
								<path style="fill:url(#SVGID_00000129927265732236241060000014858382457157601411_);" d="M57,89.8l5.6,17.1l12,13.4
									l17.6-30.5h35.3c-7-12.2-20.2-20.4-35.3-20.4S64.1,77.7,57,89.8z"/>
								
									<linearGradient id="SVGID_00000080190302626078267490000009395176258351585420_" gradientUnits="userSpaceOnUse" x1="-1002.0287" y1="52.4999" x2="-979.9774" y2="52.4999" gradientTransform="matrix(-1.5997 -2.7707 2.7707 -1.5997 -1651.7606 -2543.981)">
									<stop  offset="0" style="stop-color:#1E8E3E"/>
									<stop  offset="1" style="stop-color:#34A853"/>
								</linearGradient>
								<path style="fill:url(#SVGID_00000080190302626078267490000009395176258351585420_);" d="M92.3,151l12-13.4l5.6-17.1H74.6
									L57,89.8c-7,12.2-7.5,27.7,0,40.7C64.5,143.6,78.2,150.9,92.3,151z"/>
								
									<linearGradient id="SVGID_00000119097399993889718290000017832106607331877294_" gradientUnits="userSpaceOnUse" x1="65.9388" y1="-341.0911" x2="87.9789" y2="-341.0911" gradientTransform="matrix(-1.5997 2.7707 -2.7707 -1.5997 -717.8122 -638.5563)">
									<stop  offset="0" style="stop-color:#FBBC04"/>
									<stop  offset="1" style="stop-color:#FCC934"/>
								</linearGradient>
								<path style="fill:url(#SVGID_00000119097399993889718290000017832106607331877294_);" d="M127.5,89.9H92.3l17.6,30.5
									L92.3,151c14.1,0,27.7-7.3,35.3-20.4C135.1,117.5,134.6,102,127.5,89.9z"/>
								<ellipse class="st27" cx="92.3" cy="110.2" rx="20.4" ry="20.4"/>
								<ellipse class="st33" cx="92.3" cy="110.2" rx="16.5" ry="16.5"/>
							</g>
						</g>
					</g>
				</g>
			</g>
		</g>
		<rect x="45.1" y="75.9" class="st34" width="94.3" height="0.5"/>
		<rect x="45.1" y="75.4" class="st34" width="94.3" height="0.5"/>
	</g>
</g>
<g>
	<path class="st35" d="M190.2,87.5h3c-0.3,3.1-1.4,5.6-3.6,7.4c-2.1,1.8-4.9,2.7-8.5,2.7c-4.2,0-7.6-1.4-10.2-4.1
		c-2.6-2.7-3.9-6.6-3.9-11.6c0-4.9,1.3-8.7,3.9-11.5c2.6-2.8,6-4.3,10.1-4.3c3.3,0,5.9,0.8,8,2.4s3.3,3.6,3.7,6h-3
		c-0.3-1.7-1.2-3.2-2.8-4.2c-1.6-1.1-3.5-1.6-5.8-1.6c-3.2,0-5.8,1.1-7.9,3.3c-2.1,2.2-3.1,5.5-3.1,9.9c0,4.2,1,7.5,3,9.7
		s4.6,3.4,8,3.4c2.6,0,4.7-0.7,6.4-2C189.1,91.6,190,89.8,190.2,87.5z"/>
	<path class="st35" d="M208.4,73.9c2.4,0,4.2,0.7,5.6,2.1c1.3,1.4,2,3.2,2,5.3v15.8h-3V81.4c0-1.5-0.4-2.7-1.2-3.6s-2-1.3-3.5-1.3
		s-3.1,0.6-4.6,1.8c-1.1,0.9-2,1.9-2.5,3.2v15.7h-3V64.3h3v13.1c0.8-1,1.7-1.7,2.8-2.3C205.3,74.3,206.8,73.9,208.4,73.9z"/>
	<path class="st35" d="M224.7,97.2h-2.9v-23h2.9v3.9c0.9-1.3,1.9-2.2,3-2.9c1.5-0.9,3-1.3,4.5-1.3v2.7c-1.8,0-3.4,0.6-5,1.9
		c-1,0.9-1.9,2-2.4,3.4v15.3H224.7z"/>
	<path class="st35" d="M245.3,73.9c3.2,0,5.8,1.1,7.7,3.2c1.9,2.2,2.9,5,2.9,8.4c0,3.5-1,6.4-2.9,8.6c-1.9,2.3-4.5,3.4-7.7,3.4
		c-3.1,0-5.6-1.1-7.6-3.4s-3-5.1-3-8.6c0-3.4,1-6.2,2.9-8.4C239.6,75,242.2,73.9,245.3,73.9z M245.3,76.6c-2.2,0-4,0.8-5.4,2.4
		s-2.1,3.8-2.1,6.6c0,2.8,0.7,5.1,2.1,6.8c1.4,1.7,3.2,2.5,5.4,2.5c2.1,0,3.9-0.8,5.3-2.4c1.4-1.6,2.2-3.9,2.2-6.8
		c0-2.8-0.7-5-2.2-6.6C249.2,77.4,247.4,76.6,245.3,76.6z"/>
	<path class="st35" d="M264.2,97.2h-3v-23h3v3.2c0.8-1,1.6-1.8,2.5-2.4c1.3-0.8,2.6-1.1,3.9-1.1c2.1,0,3.7,0.7,4.9,2
		c0.5,0.6,0.9,1.3,1.2,2c0.9-1.2,1.9-2.2,2.9-2.8c1.3-0.8,2.6-1.2,4-1.2c2.1,0,3.8,0.7,5,2c1.2,1.4,1.8,3.2,1.8,5.4v15.8h-3V81.4
		c0-1.5-0.3-2.7-1-3.6s-1.7-1.3-2.9-1.3c-1.3,0-2.7,0.6-4.1,1.7c-0.8,0.6-1.5,1.6-2.1,2.9v16h-2.9V81.4c0-1.5-0.3-2.7-1-3.6
		s-1.7-1.3-2.9-1.3c-1.3,0-2.7,0.6-4.1,1.8c-0.9,0.8-1.6,1.8-2.1,3.1L264.2,97.2L264.2,97.2z"/>
	<path class="st35" d="M300.8,92.7c1.3,1.4,3.1,2.1,5.5,2.1c1.8,0,3.3-0.3,4.3-1s1.7-1.6,1.8-2.7h3c-0.4,2.1-1.4,3.7-3,4.8
		c-1.6,1.1-3.7,1.7-6.1,1.7c-3.1,0-5.7-1-7.6-3.1s-2.9-4.9-2.9-8.6c0-3.5,0.9-6.3,2.7-8.5c1.9-2.2,4.4-3.4,7.5-3.4
		c3,0,5.3,1.1,7,3.2s2.6,5.4,2.6,9.7h-16.8C298.9,89.4,299.5,91.4,300.8,92.7z M310.7,78.8c-1.2-1.5-2.7-2.2-4.7-2.2s-3.6,0.7-5,2.2
		c-1.3,1.3-1.9,3-2.1,5.3h13.6C312.3,81.8,311.7,80.1,310.7,78.8z"/>
	<path class="st35" d="M333.9,66.4c-3.3,7-6.7,12.8-10.2,17.4c2.4-0.4,5-0.9,7.8-1.4c-0.3-1.5-0.8-3.2-1.3-5l1.9-0.5
		c1.1,3.5,1.8,6.8,2.2,9.7l-2,0.6c-0.1-0.8-0.2-1.7-0.3-2.7c-4.2,0.7-8.1,1.4-11.5,2.2l-0.7-2.2c1-0.6,1.9-1.5,2.8-2.7
		c1.5-2.1,2.9-4.4,4.4-6.9c-2.6,0.4-5,0.8-7.2,1.3l-0.6-2.2c0.9-0.6,1.7-1.4,2.4-2.6c1.8-3.1,3.4-6.8,4.9-10.9l2.2,0.6
		c-1.8,4.8-3.7,8.9-5.7,12.3c1.6-0.3,3.4-0.5,5.3-0.7c1.2-2.3,2.4-4.7,3.6-7.2L333.9,66.4z M319.2,99.5c0.8-2.9,1.4-6.4,1.5-10.5
		l2,0.1c-0.1,4.2-0.6,7.9-1.4,10.9L319.2,99.5z M327.1,98.5c0-3.3-0.3-6.5-0.8-9.5l2-0.2c0.6,3.2,1,6.4,1,9.7H327.1z M332.8,94
		c-0.3-1.9-0.9-3.8-1.5-5.5l2-0.6c0.8,1.8,1.4,3.7,1.8,5.6L332.8,94z M334.9,83.8h7.9V86c-0.7,3.2-1.8,5.8-3.4,7.9s-3.4,3.9-5.5,5.2
		l-1.5-1.8c2.2-1.3,4-2.9,5.4-4.8c1.4-1.8,2.4-4,3.1-6.5h-5.8v-2.2H334.9z M359.4,84.1c-2.1,2.2-4.3,4.2-6.6,5.9
		c2,2.6,4.4,4.9,7.1,6.8l-1.3,2.1c-4.2-3.2-7.6-7.2-10.1-11.9v9.9c0,2.4-1.2,3.6-3.6,3.6h-4.2l-0.7-2.4h4.7c1,0,1.5-0.5,1.5-1.5
		V79.7h-9V64.1h7l1.5-3.9l2.4,0.4l-1.4,3.5h10.1v15.6h-8.2v2.9c0.9,2.1,2,4,3.2,5.8c2-1.7,4-3.6,6.1-5.8L359.4,84.1z M339.5,70.9
		h14.8v-4.6h-14.8V70.9z M354.3,73.1h-14.8v4.4h14.8V73.1z"/>
	<path class="st35" d="M402.7,98.1h-39.2v-2.5h16.8v-35h2.5v12.9h17.3V76h-17.3v19.6h19.8v2.5H402.7z"/>
	<path class="st35" d="M446.3,66.1H412v17.6c0,6-1.1,11.6-3.4,16.7l-1.9-1.2c2-4.9,3.1-10.1,3.1-15.6V63.9h18
		c-0.2-1.1-0.4-2.3-0.8-3.6l2.3-0.1c0.3,1.3,0.5,2.5,0.7,3.7h16.4v2.2H446.3z M413.4,77.3c3.2-2.9,5.6-6.4,7.3-10.3l2,0.7
		c-0.9,2-1.9,3.8-3.1,5.6v16.2h-2.1V76.1c-0.9,1.1-1.9,2.2-3,3.1L413.4,77.3z M413.7,99.2c1.4-2.5,2.5-5.1,3.3-7.9l2,0.6
		c-0.8,2.8-1.8,5.6-3.2,8.1L413.7,99.2z M421.8,77.5c2.8-3,4.9-6.4,6.3-10.2l2,0.6c-0.4,1.1-0.9,2.2-1.4,3.2h6.5l-0.9-2.7l2.3-0.6
		l1,3.3h8.2v2h-8v3.1h7.3V78h-7.3v2.7h7.3v1.8h-7.3V86h8.2v2h-20.2V76c-0.8,1-1.7,2.1-2.6,3.1L421.8,77.5z M437.5,96.3v-2.9l2.3,0.7
		v2c0,2.8-1.4,4.2-4.1,4.2h-9.5c-2.7,0-4.1-1.4-4.1-4.1v-5.6h2.3v5.8c0,1.1,0.6,1.7,1.7,1.7h9.6C436.9,98.1,437.5,97.5,437.5,96.3z
		 M435.6,73.1h-7.9v3.1h7.9V73.1z M435.6,78h-7.9v2.7h7.9V78z M435.6,82.6h-7.9v3.5h7.9V82.6z M428.2,90.4l1.8-1
		c1.5,1.5,2.7,2.9,3.8,4.3l-1.9,1C431.1,93.4,429.8,92,428.2,90.4z M441.2,91.8l1.7-1.1c1.7,2.5,3.1,4.9,4.1,7.2l-1.8,1.2
		C444.4,97,443.1,94.6,441.2,91.8z"/>
	<path class="st35" d="M454.6,62.5h32.5v34.2c0,2.3-1.1,3.4-3.4,3.4H479l-0.7-2.5h4.8c1,0,1.5-0.5,1.5-1.5v-9.4h-12.8v12.8h-2.5
		V86.8H457c-0.4,5.6-1.9,10.2-4.4,13.9l-2.1-1.7c2.7-3.8,4.1-8.9,4.1-15.2V62.5z M457.1,73.5h12.1V65h-12.1V73.5z M457.1,84.4h12.1
		v-8.5h-12.1V84.4z M471.8,73.5h12.8V65h-12.8V73.5z M471.8,84.4h12.8v-8.5h-12.8V84.4z"/>
	<path class="st35" d="M502.9,75.9v24.9h-2.4V81.3c-1.6,4.4-3.8,8.3-6.6,11.7l-0.8-3.1c3.2-3.8,5.5-8.5,7-14h-6.2v-2.4h6.6v-7.9
		c-1.9,0.3-3.8,0.6-5.7,0.8l-0.9-2.3c4.9-0.6,9.5-1.4,13.9-2.6l1.3,2.1c-2.1,0.6-4.1,1-6.2,1.5v8.3h5.9v2.4L502.9,75.9L502.9,75.9z
		 M504.1,81.9l1.3-1.5c1.5,1.9,2.7,3.8,3.7,5.6l-1.6,2C506.7,86,505.5,84,504.1,81.9z M534,98.9h-26.1v-2.4h12.3v-6.4h-9.7v-2.4h9.7
		v-5.5c-3.3,0.1-6.7,0.1-10.1,0l-0.5-2.4c7.9,0.2,15.6-0.1,23-1l1,2.3c-3.6,0.4-7.2,0.8-10.9,1v5.6h9.3v2.4h-9.3v6.4H534V98.9z
		 M531.7,62.6v12h-20v-12H531.7z M529.2,64.9h-15.1v7.5h15.1V64.9z"/>
	<path class="st35" d="M539.1,78.2h18.1v2.5h-7.8v12.9c3.3-0.5,6.4-1,9.4-1.6l0.2,2.4c-6.7,1.4-13.8,2.5-21.2,3.4l-0.3-2.6
		c3.2-0.3,6.3-0.7,9.3-1.1V80.7H539L539.1,78.2L539.1,78.2z M560.8,70.8H538v-2.5h22.9v-7.8h2.5v7.8H577v2.5h-13.6
		c0.1,9,0.9,15.7,2.5,20.1c1.6,4.6,3.3,6.9,5.3,6.9c1.5,0,3.1-2.5,4.5-7.6l2.1,2c-1.9,5.5-4.1,8.3-6.6,8.3c-2.8,0-5.2-2.6-7.2-7.9
		C561.9,87.6,560.9,80.3,560.8,70.8z M567.6,62.4l2.1-1.4c1.7,1.5,3.2,3,4.5,4.4l-2.2,1.4C570.9,65.6,569.5,64.1,567.6,62.4z"/>
	<path class="st35" d="M583.4,100.8V73h9.6l-2.7-6.1h-8.7v-2.4h18.7c-0.3-1.2-0.7-2.4-1.1-3.7l2.4-0.3c0.5,1.4,0.9,2.7,1.2,4.1h17.9
		V67h-8.9l-3.1,6.1h10.1v24.2c0,2.3-1.1,3.4-3.4,3.4h-6.5l-0.7-2.4h6.7c1,0,1.5-0.5,1.5-1.5V83.1H607c-1.6,0-2.4-0.8-2.4-2.4v-5.3
		h-6.8c-0.3,4.7-2.9,7.9-7.8,9.5l-1.7-2c4.2-1.3,6.6-3.8,7.1-7.5h-9.5v25.3h-2.5V100.8z M609.3,85v11.3h-16.9V85H609.3z M609,66.9
		h-16.1l2.5,6.1H606L609,66.9z M606.9,87.2h-12V94h12V87.2z M616.3,75.4H607v4.8c0,0.4,0.2,0.6,0.6,0.6h8.7V75.4z"/>
	<path class="st35" d="M664.5,67.4h-33v13.5c0,7.1-1.7,13.6-5.2,19.6l-1.8-2.2c3-4.9,4.5-10.7,4.5-17.4V65h17.2
		c-0.2-1.4-0.5-2.8-1-4.3l2.4-0.3c0.5,1.6,0.8,3.1,1,4.6h15.8L664.5,67.4L664.5,67.4z M658.8,98.2h-20v2.6h-2.5V83.9h9.6V70.1h2.5
		V75h15.9v2.4h-15.9v6.5h13v16.8h-2.5L658.8,98.2L658.8,98.2z M638.9,95.8h20v-9.6h-20V95.8z"/>
</g>
<g>
	<g>
		<path class="st35" d="M1105.2,77.2c0.1-0.7,0.1-1.3,0.1-2s-0.1-1.4-0.1-2l4.3-3.4c0.4-0.3,0.5-0.9,0.2-1.3l-4.1-7.1
			c-0.2-0.5-0.8-0.6-1.3-0.5l-5.1,2.1c-1.1-0.8-2.2-1.5-3.5-2l-0.8-5.5c-0.1-0.5-0.5-0.9-1-0.9h-8.2c-0.5,0-0.9,0.4-1,0.9L1084,61
			c-1.3,0.5-2.4,1.2-3.5,2l-5.1-2.1c-0.5-0.2-1,0-1.3,0.5l-4.1,7.1c-0.3,0.5-0.1,1,0.2,1.3l4.3,3.4c-0.1,0.7-0.1,1.3-0.1,2
			s0.1,1.4,0.1,2l-4.3,3.4c-0.4,0.3-0.5,0.9-0.2,1.3l4.1,7.1c0.2,0.5,0.8,0.6,1.3,0.5l5.1-2.1c1.1,0.8,2.2,1.5,3.5,2l0.8,5.5
			c0.1,0.5,0.5,0.9,1,0.9h8.2c0.5,0,0.9-0.4,1-0.9l0.8-5.5c1.3-0.5,2.4-1.2,3.5-2l5.1,2.1c0.5,0.2,1,0,1.3-0.5l4.1-7.1
			c0.2-0.5,0.1-1-0.2-1.3L1105.2,77.2z M1089.9,82.4c-4,0-7.2-3.2-7.2-7.2s3.2-7.2,7.2-7.2s7.2,3.2,7.2,7.2S1093.9,82.4,1089.9,82.4
			z"/>
	</g>
</g>
<g>
	<defs>
		<path id="SVGID_00000009582029675233836280000010283938809888350084_" d="M227.3,402.8H126.1c-6.2,0-11.3-5.1-11.3-11.3V290.3
			c0-6.2,5.1-11.3,11.3-11.3h101.2c6.2,0,11.3,5.1,11.3,11.3v101.2C238.6,397.8,233.5,402.8,227.3,402.8z"/>
	</defs>
	<clipPath id="SVGID_00000016760777047092799300000016242531354588154527_">
		<use xlink:href="#SVGID_00000009582029675233836280000010283938809888350084_"  style="overflow:visible;"/>
	</clipPath>
	<g style="clip-path:url(#SVGID_00000016760777047092799300000016242531354588154527_);">
		<g transform="matrix( 2.25787353515625, 0, 0, 2.25787353515625, 0.05,0.05) ">
			<g transform="matrix( 1, 0, 0, 1, 0,0) ">
				<g>
					<g id="___1_0_Layer0_0_FILL_00000178183515727567435080000007645488545074815376_">
						<path class="st37" d="M49.5,122.2v57.6h57.6v-57.6H49.5z"/>
					</g>
				</g>
			</g>
			<g transform="matrix( 1, 0, 0, 1, 0,0) ">
				<g>
					<g id="___1_0_Layer0_1_MEMBER_0_MEMBER_0_FILL_00000125594827523417452300000000541703414703119520_">
						<path class="st38" d="M74.9,174.2c0,0-0.1,0-0.1,0.1c-0.1,0.1,0,0,0.2-0.1C75,174.2,75,174.2,74.9,174.2 M81.6,127.9
							c0,0,0.1,0,0.1,0c0,0,0.1,0,0.1-0.1c0,0,0,0,0,0C81.6,127.9,81.6,127.9,81.6,127.9 M102.3,138.4c-0.3-1.3-0.8-2.5-1.4-3.8
							c-1.2-2.3-3.1-4.2-5.5-5.7c-2.4-1.4-4.9-2.2-7.6-2.2c-1.4,0-2.7,0.1-4,0.5c-0.3,0.1-0.6,0.2-0.8,0.2c-0.1,0-0.3,0.1-0.7,0.3
							c-0.2,0.1-0.4,0.2-0.5,0.2c-0.1,0-0.1,0.1-0.2,0.1c-0.2,0-0.3,0.1-0.4,0.1c-0.1,0-0.2,0.1-0.4,0.2c-0.3,0.2-0.6,0.3-0.8,0.4
							c-1.1,0.6-2.1,1.4-3,2.3c-0.9,0.9-1.6,2-2.2,3.1c-1.1,2.2-1.7,4.5-1.7,7.1c0,2.5,0.5,4.9,1.5,7.1c0.4,0.8,0.9,2,1.6,3.5
							c0.8,1.6,1.3,2.7,1.7,3.5l0.4,0.9c0,0.1,0.1,0.3,0.2,0.6c0.1,0.3,0.2,0.5,0.2,0.7c0.1,0.4,0.2,0.8,0.3,1.4l0,0.3
							c0,0.3,0,0.6,0.1,0.8c0,0.5,0,1.1,0,1.6c0,0.1,0,0.2,0,0.4c0,0.1,0,0.2,0,0.3c0,0.1,0,0.3-0.1,0.4c-0.1,0.5-0.2,1.1-0.4,1.5
							c-0.1,0.4-0.2,0.6-0.3,0.7l-0.1,0.3c-0.2,0.5-0.5,1-0.8,1.4c-0.2,0.3-0.3,0.5-0.4,0.6l0,0l-0.2,0.2c-0.4,0.5-0.8,0.9-1.2,1.2
							l-0.1,0.1c-0.1,0.1-0.2,0.1-0.2,0.1c-0.2,0.2-0.5,0.3-0.8,0.5c-0.2,0.1-0.4,0.2-0.7,0.4l-0.4,0.2l0.2-0.1
							c-0.1,0.1-0.2,0.1-0.4,0.2c0,0-0.1,0-0.1,0.1c-0.1,0-0.1,0.1-0.2,0.1c-0.1,0-0.2,0.1-0.4,0.1c-0.3,0.1-0.6,0.2-0.9,0.3
							c-0.2,0-0.4,0.1-0.8,0.2c-0.1,0-0.1,0-0.2,0c-0.1,0-0.2,0-0.3,0c-0.6,0-1.2,0-1.7,0c-0.2,0-0.4,0-0.5,0c-0.1,0-0.2,0-0.2,0
							c0.3,0,0.3,0.1,0.1,0c-0.2,0-0.2,0-0.1,0c0,0,0,0,0,0c0,0-0.1,0-0.1,0l-0.5-0.1c-0.6-0.1-1.1-0.3-1.7-0.5
							c-0.1,0-0.2-0.1-0.3-0.1c-0.1-0.1-0.2-0.1-0.4-0.2c-0.3-0.1-0.4-0.2-0.4-0.2c-0.5-0.3-1-0.6-1.5-0.9c-0.2-0.1-0.3-0.2-0.3-0.2
							l0,0c-0.2-0.2-0.4-0.4-0.7-0.6c-0.1-0.1-0.3-0.3-0.6-0.6c0,0-0.1-0.2-0.3-0.4c-0.1-0.2-0.2-0.3-0.3-0.3l0,0l-0.2-0.3
							c-0.2-0.3-0.3-0.6-0.5-0.8c-0.1-0.2-0.3-0.5-0.4-0.8c0,0,0,0,0,0c0,0,0-0.1-0.1-0.2c-0.1-0.1-0.1-0.1,0,0l0.1,0.2c0,0,0,0,0,0
							c0-0.1,0-0.1-0.1-0.2c-0.1-0.1-0.1-0.2-0.1-0.2c-0.2-0.6-0.4-1.2-0.5-1.7c-0.1-0.2-0.1-0.5-0.2-0.8c0,0,0,0,0,0l0,0l0-0.4
							c0-0.6,0-1.2,0-1.7l0-0.4c0,0,0,0,0-0.1c0-0.2,0-0.2,0-0.3c0-0.1,0-0.3,0.1-0.4c0.1-0.5,0.3-1.1,0.5-1.7l0.1-0.4
							c0-0.1,0.1-0.2,0.2-0.3c0.1-0.2,0.1-0.3,0.2-0.4c0.3-0.5,0.6-1,0.8-1.4l0.3-0.4l0,0c0.2-0.3,0.4-0.5,0.5-0.6
							c0.4-0.4,0.8-0.8,1.2-1.2l0.3-0.2c0,0,0,0,0,0c0.3-0.2,0.5-0.4,0.7-0.5c0.5-0.3,1-0.6,1.5-0.8c0,0,0,0,0,0c0,0,0,0,0,0
							c0.1,0,0.1,0,0.2-0.1c0.1,0,0.1,0,0.2-0.1c0.4-0.1,0.7-0.2,0.9-0.3c0.3-0.1,0.6-0.2,0.8-0.2c0.1,0,0.2,0,0.4-0.1
							c0.1,0,0.1,0,0.2,0c0,0-0.1,0-0.1,0c-0.1,0-0.1,0,0.1,0c0.2,0,0.2,0,0,0c0.1,0,0.1,0,0.2,0l0.4,0c0.4,0,0.7,0,1,0
							c0.6,0,1.1-0.2,1.6-0.7c0.5-0.5,0.7-1,0.7-1.6c0-0.6-0.3-1.2-0.7-1.6c-0.4-0.4-1-0.7-1.6-0.7c-2.6,0-5.1,0.6-7.5,2
							c-2.3,1.3-4.2,3.1-5.5,5.4c-0.7,1.1-1.2,2.3-1.6,3.5c-0.4,1.3-0.6,2.5-0.6,3.8c-0.1,1.3,0.1,2.6,0.4,4
							c0.3,1.3,0.8,2.5,1.4,3.8c1.2,2.3,3.1,4.2,5.5,5.7c2.4,1.4,4.9,2.1,7.6,2.2c1.3,0,2.7-0.1,4-0.5c0.3-0.1,0.6-0.2,0.8-0.2
							c0.1,0,0.3-0.1,0.7-0.3c0.2-0.1,0.4-0.2,0.5-0.2c0.1,0,0.1-0.1,0.2-0.1c0.2-0.1,0.3-0.1,0.3-0.1l0.4-0.2
							c0.3-0.1,0.6-0.3,0.8-0.4c1.1-0.6,2.1-1.4,2.9-2.3c0.9-0.9,1.6-1.9,2.2-3.1c1.1-2.1,1.7-4.4,1.8-6.8c0.1-2.5-0.3-4.8-1.3-7
							c-0.4-1-0.9-2.1-1.6-3.4c-0.7-1.5-1.3-2.6-1.6-3.4c-0.3-0.6-0.5-1.1-0.7-1.4c0,0,0,0,0,0l-0.1-0.3c-0.1-0.2-0.2-0.5-0.3-0.8
							c-0.2-0.6-0.3-1.1-0.4-1.6l-0.1-0.3c0-0.1,0-0.2,0-0.3c0-0.2,0-0.3,0-0.4c0-0.5,0-1.1,0-1.6c0-0.3,0-0.5,0.1-0.8
							c0-0.1,0-0.2,0.1-0.4c0.1-0.5,0.2-1,0.4-1.5c0-0.2,0.1-0.4,0.3-0.7l0.1-0.4c0.3-0.5,0.5-1,0.8-1.4c0.1-0.2,0.2-0.4,0.4-0.6
							c0,0,0,0,0,0c0.1-0.1,0.2-0.3,0.3-0.3c0.3-0.4,0.7-0.8,1.2-1.2l0.1-0.1c0,0,0,0,0,0c-0.1,0.1-0.1,0.1-0.2,0.1l0.2-0.2
							c0,0,0,0,0,0c0.1,0,0.1-0.1,0.2-0.1c0.3-0.2,0.5-0.4,0.8-0.5c0.3-0.2,0.5-0.3,0.7-0.4l0.4-0.2c0.2-0.1,0.1,0-0.2,0.1
							c0.2-0.1,0.5-0.2,0.7-0.3c0,0-0.1,0-0.2,0.1l0.1,0c0,0,0.1,0,0.2-0.1c0.1,0,0.2-0.1,0.4-0.1c0.3-0.1,0.6-0.2,0.9-0.3
							c0.2,0,0.4-0.1,0.8-0.2c0.1,0,0.1,0,0.2,0c0.1,0,0.2,0,0.3,0c0.6,0,1.2,0,1.7,0c0.2,0,0.4,0,0.5,0c0,0,0.1,0,0.3,0
							c0,0,0,0,0,0c0,0,0.1,0,0.1,0l0.5,0.1c0.6,0.1,1.1,0.3,1.7,0.5c0.1,0,0.2,0.1,0.3,0.1c0.1,0.1,0.2,0.1,0.4,0.2
							c0.3,0.1,0.4,0.2,0.4,0.2c0.5,0.3,1,0.6,1.5,0.9c0.2,0.1,0.3,0.2,0.3,0.2l0,0c0.1,0.1,0.3,0.3,0.7,0.6
							c0.1,0.1,0.3,0.3,0.6,0.6c0,0,0.1,0.2,0.3,0.4c0.1,0.2,0.2,0.3,0.3,0.3l0,0l0.2,0.4c0.2,0.3,0.3,0.6,0.5,0.8
							c0.1,0.2,0.3,0.5,0.4,0.8c0,0.1,0.1,0.3,0.2,0.5c0.2,0.6,0.4,1.2,0.5,1.7c0.1,0.2,0.1,0.5,0.2,0.8c0,0,0,0,0,0v0l0,0.4
							c0,0.6,0,1.2,0,1.7l0,0.4c0,0,0,0,0,0.1c0,0,0,0,0,0c0,0.2,0,0.2,0,0.3c0,0.1,0,0.3-0.1,0.4c-0.1,0.5-0.3,1.1-0.5,1.7
							l-0.1,0.4c0,0.1-0.1,0.2-0.2,0.3c-0.1,0.2-0.1,0.3-0.2,0.4c-0.3,0.5-0.5,1-0.8,1.4l-0.3,0.4l0,0c-0.2,0.3-0.4,0.5-0.5,0.6
							c-0.4,0.4-0.8,0.8-1.2,1.2l-0.3,0.2c0,0,0,0,0,0c-0.3,0.2-0.5,0.4-0.7,0.5c-0.5,0.3-1,0.6-1.5,0.8c0,0,0,0,0,0c0,0,0,0,0,0
							c-0.1,0-0.1,0-0.2,0.1c-0.1,0-0.1,0.1-0.2,0.1c-0.4,0.1-0.7,0.2-0.9,0.3c-0.3,0.1-0.6,0.2-0.8,0.2l-0.4,0.1c0,0-0.1,0-0.2,0h0
							c-0.1,0-0.1,0-0.1,0l-0.4,0c-0.2,0-0.5,0-1,0c-0.6,0-1.1,0.2-1.6,0.7c-0.5,0.5-0.7,1-0.7,1.6c0,0.6,0.2,1.2,0.7,1.6
							c0.4,0.5,1,0.7,1.6,0.7c2.6,0,5.1-0.6,7.5-2c2.3-1.3,4.1-3.1,5.5-5.4c0.7-1.1,1.2-2.3,1.6-3.5c0.4-1.3,0.6-2.5,0.7-3.8
							C102.7,141.1,102.6,139.7,102.3,138.4 M88.7,131.3L88.7,131.3C88.8,131.3,88.7,131.3,88.7,131.3
							C88.7,131.3,88.7,131.3,88.7,131.3 M98,143.2C98,143.2,98,143.2,98,143.2L98,143.2C98,143.2,98,143.2,98,143.2z"/>
					</g>
				</g>
			</g>
		</g>
	</g>
</g>
<g class="st39">
	<g class="st40">
		<path class="st41" d="M311,327.3v3.2h-40.9v-3.2H311z M309.9,291.6v3.2h-38.3v-3.2H309.9z M276.4,302.2h3.2v26.6h-3.2V302.2z
			 M290.1,293.2h3.2v35.6h-3.2V293.2z M308.2,308.6v3.1h-16.4v-3.1H308.2z"/>
		<path class="st41" d="M322.5,288.4l3,0.2c-1.9,10.8-5.2,19.3-9.9,25.5l-0.8-4.2C318.5,303.9,321.1,296.8,322.5,288.4z
			 M319.7,302.2l3.1-5.3v35.7h-3.1V302.2z M326.7,295.5h2.9v31h-2.9V295.5z M355.1,320l2.3,2c-7,5-15.3,8.5-25.1,10.5l-1.8-2.7
			C341.1,327.6,349.3,324.4,355.1,320z M339.5,289h3.2c-2.1,5.1-5.3,9.5-9.6,13.2l-2.2-1.9C334.7,297,337.6,293.3,339.5,289z
			 M351.8,293.7l2.5,1.5c-4.4,7.6-11.5,12.8-21.4,15.5l-1.6-2.9C340.9,305.3,347.8,300.6,351.8,293.7z M351.6,314.3l2.3,1.9
			c-5.4,4-12,6.8-19.8,8.4l-1.7-2.6C340.7,320.3,347.1,317.7,351.6,314.3z M347.1,308.9l2.3,1.9c-4.1,3.1-9.2,5.4-15.1,6.7l-1.8-2.5
			C338.9,313.7,343.7,311.6,347.1,308.9z M337.9,295.9c4.1,5.9,10.5,9.9,19.5,12l-1.7,2.9c-9.7-2.7-16.5-7.4-20.3-14.1L337.9,295.9z
			 M356.3,292.8v2.9H338v-2.9H356.3z"/>
		<path class="st41" d="M376.2,293.7v2.9h-15.6v-2.9H376.2z M375.3,301.5v2.9h-13.7v-2.9H375.3z M375.3,309.1v2.9h-13.7v-2.9H375.3z
			 M373.3,316.5v2.8h-11.4v-2.8H373.3z M361.9,318h2.9v14.2h-2.9V318z M373.3,326.3v2.9h-10v-2.9H373.3z M369.3,288.4
			c0.6,2.4,1.1,4.6,1.3,6.8l-3.1,0.2c-0.2-2.1-0.6-4.4-1.2-6.8L369.3,288.4z M371.8,316.5h2.9v15.1h-2.9V316.5z M402.8,304.2v2.8
			h-26v-2.8H402.8z M402.2,292.1v2.8h-24.6v-2.8H402.2z M401.5,298.3v2.7h-22.8v-2.7H401.5z M398.7,309.9v2.6h-19.3v-2.6H398.7z
			 M379.4,311.2h3.1v21.2h-3.1V311.2z M398.9,316.3v2.4h-17.7v-2.4H398.9z M398.9,322.1v2.5h-17.7v-2.5H398.9z M388.2,288.6h3.2
			v17.1h-3.2V288.6z M397.2,309.9h3.1v19c0,2.3-1,3.5-3,3.5h-6.6l-0.8-2.9h6c0.9,0,1.3-0.4,1.3-1.3V309.9z"/>
		<path class="st41" d="M414,288.5l3,0.2c-2.1,11.1-5.7,19.7-10.6,26.1l-0.7-4C409.6,304.5,412.4,297.1,414,288.5z M411.1,301.4
			l3.1-5.4v36.3h-3.1V301.4z M429.7,290.4v2.9h-11.1v-2.9H429.7z M418.6,291.9h3.1v40.5h-3.1V291.9z M431.3,301.9v2.9h-11.1v-2.9
			H431.3z M431.4,320.4v2.9h-11.2v-2.9H431.4z M430.5,310.6v2.9h-10.2v-2.9H430.5z M428.1,290.4h3.1v12.9h-3.1V290.4z M444,310.6
			l2.7,1.7c-0.6,4.2-2,7.9-4.2,11.1s-5.9,6.1-11.1,8.9l-1.9-2.4c5-2.5,8.5-5.3,10.5-8.2S443.3,315.1,444,310.6z M431.7,309.3h14.9
			v2.9h-14.9V309.3z M433,315.2l2.6-0.6c1.4,3.9,3,7,4.8,9.3c1.8,2.2,4.6,4.2,8.4,6.1l-1.9,2.6c-3.9-2.1-6.8-4.4-8.8-7
			C436,322.9,434.3,319.5,433,315.2z M444.3,290.4v2.9h-10.9v-2.9H444.3z M445.9,301.9v2.9h-12.4v-2.9H445.9z M442.8,290.4h3.1v13
			h-3.1V290.4z"/>
		<path class="st41" d="M463.3,319.1l2.3,1.7c-2.9,4-6.8,7.3-11.4,10.1l-1.9-2.5C456.9,325.7,460.6,322.6,463.3,319.1z M454.7,292.5
			c12.1-0.2,23.7-1.2,34.8-2.9l1.3,2.7c-11.5,1.9-23.3,2.9-35.4,3.1L454.7,292.5z M482.1,296.4l2.9,1.6c-3.6,3.1-7.6,6.2-12,9.4
			c-4.3,3.1-9.2,6.2-14.6,9.4l-3.5-1.9c2.7-1,5.7-2.6,9.2-4.9c3-2,6-4.1,9.2-6.4C476.5,301.2,479.5,298.8,482.1,296.4z M455,314.8
			c8-0.7,18.8-1.6,32.3-2.6l0.4,2.9c-11.8,0.8-22.5,1.6-32,2.7L455,314.8z M470.5,292.3l2.9,1.4c-4.4,4.3-8.9,8-13.4,11.2l-3-1.3
			C460,301.8,464.5,298.1,470.5,292.3z M457,303.6c5.4-0.6,11.8-1.3,19.2-2l0.4,2.9c-6.8,0.5-13,1.2-18.6,1.9L457,303.6z
			 M471.8,314.7h3.2V328c0,2.8-1.4,4.1-4.1,4.1h-6.8l-0.8-3.2h6.8c1.1,0,1.7-0.6,1.7-1.7L471.8,314.7L471.8,314.7z M482.2,319.2
			c4.3,3.2,8,6.4,11,9.6l-2.7,1.9c-2.4-2.8-6-6.1-10.8-9.8L482.2,319.2z M482.5,305.3c3.8,4.3,7.1,8.7,9.8,13.1l-2.9,1.6
			c-2.4-4.2-5.5-8.6-9.4-13.2L482.5,305.3z"/>
		<path class="st41" d="M505.6,288.6l2.9,0.7c-2.3,6.2-4.8,11.4-7.6,15.6l-3.7-1.4c1.1-0.6,2.1-1.5,2.9-2.8
			C502,297.3,503.9,293.2,505.6,288.6z M497.2,303.6c2.8-0.4,6.5-0.9,11-1.4L508,305c-3.7,0.5-7.1,1-10.1,1.5L497.2,303.6z
			 M499.2,320l2.9,0.2c-0.2,4.6-0.7,8.6-1.6,11.9l-3-0.9C498.4,328.1,499,324.4,499.2,320z M511.2,295l2.8,1.1
			c-4.1,8.3-8.3,15.1-12.7,20.4l-3.7-1c1.2-0.7,2.4-1.8,3.5-3.2C504.5,307.3,507.9,301.6,511.2,295z M497.5,315.5
			c4-0.9,9.3-1.9,15.9-3.1l-0.1,2.9c-5.4,1-10.3,2.1-14.7,3.2L497.5,315.5z M504.9,320.1l2.7-0.4c0.8,3.5,1.3,7,1.4,10.6l-3,0.2
			C505.9,326.9,505.6,323.4,504.9,320.1z M512.2,306.6c1.6,3.8,2.7,7.4,3.5,10.7l-2.9,1c-0.5-2.8-1.5-6.5-3.1-10.8L512.2,306.6z
			 M510.5,319.3l2.4-0.7c1,2.6,1.8,5.2,2.3,7.9l-2.8,0.5C512.1,324.4,511.4,321.8,510.5,319.3z M520,308.8h3.1v6.4
			c0,7.2-2.8,13-8.3,17.4l-2.1-2.6c4.9-3.8,7.4-8.7,7.4-14.9v-6.3H520z M539,294.1v3.1h-24.7v-3.1H539z M525.4,288.7l2.9,0.9
			c-3,7.9-6.3,14.6-9.9,19.9l-3.7-1.6c1.2-0.5,2.2-1.4,3-2.7C520.6,300.4,523.1,294.9,525.4,288.7z M514.8,307.9
			c5.4-0.5,12.4-1,21.1-1.5l-0.1,3.1c-7.5,0.3-14.3,0.8-20.4,1.5L514.8,307.9z M536.5,319.8l2.9,0.8v7.8c0,2.3-1.2,3.5-3.5,3.5h-4
			c-2.3,0-3.5-1.2-3.5-3.5v-20.2h3.1v19.1c0,0.9,0.4,1.4,1.3,1.4h2.1c1,0,1.5-0.4,1.5-1.2v-7.7H536.5z M532.3,299.7
			c2.9,4.4,5.2,8.7,7.1,12.9l-2.9,1c-1.6-4.1-3.9-8.4-6.8-12.9L532.3,299.7z"/>
		<path class="st41" d="M584.3,326.3v3.2h-40.1v-3.2H584.3z M582.1,292.5v3.2h-35.7v-3.2H582.1z M562.7,294.1h3.2V328h-3.2V294.1z"
			/>
		<path class="st41" d="M630.6,319.8v2.9h-41.4v-2.9H630.6z M589.3,329.6c4.9-1.5,9.5-3.2,13.9-5.3l2,2.2c-4.5,2.2-9.2,4.1-14.2,5.7
			L589.3,329.6z M623.3,290.6v2.8h-28.5v-2.8H623.3z M594.8,292h3.2v29.3h-3.2V292z M623.3,298.2v2.7h-26.9v-2.7H623.3z
			 M623.3,305.7v2.6h-26.9v-2.6H623.3z M623.3,313v2.6h-26.9V313H623.3z M616.1,324.4c4.2,1.4,8.9,3.1,14.1,5.3l-2.3,2.6
			c-4.7-2.3-9.4-4.3-13.9-5.9L616.1,324.4z M621.7,290.6h3.2v30.7h-3.2V290.6z"/>
	</g>
</g>
<g>
	<g>
		<path class="st42" d="M117.9,206v-16.1h6.4l1-2.9h-10.6v-1.5h7l-1.4-3.1l1.5-0.3l1.5,3.4h6.4l1.8-3.4l1.5,0.2l-1.8,3.2h7.1v1.5
			h-11.4l-1.1,2.9h9.4V206h-1.5v-1.8h-14.3v1.8H117.9z M119.4,194.2h14.3v-2.8h-14.3C119.4,191.4,119.4,194.2,119.4,194.2z
			 M119.4,198.4h14.3v-2.8h-14.3C119.4,195.6,119.4,198.4,119.4,198.4z M133.7,199.8h-14.3v2.9h14.3V199.8z"/>
		<path class="st42" d="M141.3,205.8l-0.7-1.3c3.1-0.6,6-1.4,8.7-2.4l0.8,1.1C147.3,204.2,144.4,205.1,141.3,205.8z M161.6,201.2
			h-17.9v-13.7h6.7l1-2.8H141v-1.4h23.3v1.4H153l-1.1,2.8h9.7L161.6,201.2L161.6,201.2z M145.2,191.7h14.9v-2.8h-14.9V191.7z
			 M145.2,195.7h14.9v-2.6h-14.9V195.7z M160.1,197.1h-14.9v2.7h14.9V197.1z M154.9,203.1l1-1.1c2.6,0.6,5.5,1.4,8.7,2.5l-1,1.3
			C160.7,204.7,157.8,203.8,154.9,203.1z"/>
	</g>
	<g>
		<path class="st43" d="M186.4,190.9v-3l12.5,7.6h-4.7L186.4,190.9z M186.4,200.1l7.7-4.6h4.7l-12.5,7.7v-3.1H186.4z"/>
	</g>
	<g>
		<path class="st43" d="M342.6,190.9v-3l12.5,7.6h-4.7L342.6,190.9z M342.6,200l7.7-4.6h4.7l-12.5,7.7L342.6,200L342.6,200z"/>
	</g>
	<g>
		<path class="st42" d="M226,195.5v8.2c0,1.3-0.6,1.9-1.8,1.9h-1.9l-0.4-1.2h2.1c0.5,0,0.7-0.2,0.7-0.7v-8c-1,0.2-2,0.3-3,0.5
			l-0.2-1.3c1.1-0.2,2.1-0.3,3.2-0.5V188H222v-1.2h2.7v-4.6h1.2v4.6h2.4v1.2H226v6.2c0.9-0.2,1.8-0.3,2.6-0.5l0.1,1.2
			C227.8,195.2,226.9,195.3,226,195.5z M245.8,193.6h-14.9v1.5c0,3.8-0.7,7.4-2,10.7l-1.1-0.6c1.2-3.2,1.9-6.5,1.9-10.1v-10.9h7.9
			c-0.1-0.6-0.2-1.3-0.4-2l1.2-0.1c0.2,0.7,0.4,1.5,0.4,2.1h6.8v1.1h-3.1v1.9h3v1.1h-3v2.9h-7.7v-2.9h-4v4.3h14.9v1H245.8z
			 M230.9,187.2h4v-1.9h-4V187.2z M231.9,205.9l-0.6-1.1c1.8-0.5,3.6-1,5.2-1.7l0.7,0.8C235.5,204.8,233.8,205.4,231.9,205.9z
			 M244.7,195.3v7.2h-12.1v-7.2H244.7z M238.1,198.3v-1.9h-4.4v1.9H238.1z M238.1,201.4v-2h-4.4v2H238.1z M236.1,187.2h5.3v-1.9
			h-5.3V187.2z M236.1,190.1h5.3v-1.9h-5.3V190.1z M239.3,196.4v1.9h4.2v-1.9H239.3z M239.3,199.4v2h4.2v-2H239.3z M240.2,204
			l0.9-0.8c1.5,0.4,3.2,1,5,1.8l-0.9,1C243.5,205.2,241.8,204.5,240.2,204z"/>
		<path class="st42" d="M271.7,187h-13.6c-1.6,2.2-3.4,4.3-5.2,6.2c4.1-0.2,8.7-0.5,13.9-0.7c-0.9-1.1-1.9-2.2-3.1-3.3l1.2-0.8
			c2.4,2.4,4.5,4.9,6.3,7.4l-1.3,0.8c-0.6-0.9-1.2-1.8-2-2.7c-1.4,0-2.7,0.1-4,0.2v8.9c0,0.7,0.3,1,1,1h3.9c0.7,0,1.1-0.4,1.1-1.1
			v-3.4l1.5,0.4v3.1c0,1.7-0.8,2.5-2.4,2.5h-4.2c-1.6,0-2.4-0.8-2.4-2.4v-8.9c-1.9,0.1-3.8,0.2-5.6,0.3v1.4c0,4.6-2.6,8-7.9,10.1
			l-0.9-1.2c4.9-1.9,7.3-4.9,7.3-8.9v-1.3c-1.8,0.1-3.4,0.2-5,0.4l-0.2-1.5c0.6-0.2,1.2-0.6,1.8-1.2c1.5-1.6,2.9-3.3,4.3-5.1h-7.9
			v-1.5h9.1c0.7-1.1,1.5-2.2,2.2-3.3l1.3,0.6c-0.6,0.9-1.2,1.8-1.8,2.6h12.5L271.7,187L271.7,187z"/>
		<path class="st42" d="M274.4,184.9h9v1.5h-3.7v12.4c1.4-0.4,2.7-0.7,4-1.1l0.1,1.3c-2.9,1-6,1.9-9.3,2.6l-0.3-1.4
			c1.4-0.3,2.7-0.6,4-1v-12.8h-3.8L274.4,184.9L274.4,184.9z M296.8,187.2v7.5c0,3.6-0.1,6-0.2,7.4c-0.1,1.3-0.5,2.3-1.2,2.9
			c-0.6,0.6-1.6,0.9-3,0.9h-2.8l-0.4-1.5h3.2c0.8,0,1.5-0.2,1.9-0.6c0.4-0.4,0.7-1.2,0.8-2.3c0.1-1.2,0.2-3.3,0.2-6.5v-6.3h-5.7v1.9
			c0,6.3-2.6,11.4-7.8,15.3l-1-1.3c4.9-3.6,7.3-8.2,7.3-14v-1.9h-4.3v-1.5h4.3v-4.9h1.5v4.9L296.8,187.2L296.8,187.2z"/>
		<path class="st42" d="M306.8,182.7c-1.3,2.2-2.6,4-3.9,5.4c2.1-0.2,4.5-0.4,7-0.5c-0.5-0.9-1.1-1.9-1.7-2.8l1.2-0.5
			c1.3,2,2.4,3.9,3.3,5.8l-1.4,0.5c-0.2-0.6-0.5-1.1-0.8-1.7c-3.6,0.2-7,0.4-10,0.8l-0.3-1.4c0.6-0.3,1.2-0.8,1.8-1.5
			c1.1-1.3,2.2-2.9,3.3-4.8L306.8,182.7z M301.6,206v-14.5h9.6V204c0,1.2-0.5,1.9-1.6,1.9h-3.2l-0.4-1.4h3c0.5,0,0.7-0.2,0.7-0.7
			V201H303v5H301.6z M309.8,193H303v2.6h6.7L309.8,193L309.8,193z M309.8,197H303v2.7h6.7L309.8,197L309.8,197z M324,185
			c-2.7,1-5.5,1.9-8.3,2.5v3c0,0.5,0.2,0.7,0.7,0.7h7.6v1.4h-7.6c-1.4,0-2.1-0.7-2.1-2.1v-8.4h1.4v4c2.6-0.6,5.1-1.4,7.4-2.3
			L324,185z M314.2,203.4v-9.3h1.4v3.9c2.6-0.7,5-1.5,7.3-2.5l0.9,1.1c-2.7,1.1-5.4,2-8.2,2.7v4.2c0,0.5,0.2,0.7,0.7,0.7h5.4
			c0.6,0,0.9-0.3,0.9-0.9v-2.9l1.3,0.4v2.6c0,1.5-0.7,2.3-2.1,2.3h-5.5C314.9,205.7,314.2,204.9,314.2,203.4z"/>
	</g>
</g>
<g>
	<path class="st44" d="M333.9,373.6v13.9h-2.3v-2.1c-0.4,0.7-1.1,1.3-1.8,1.7c-0.8,0.4-1.7,0.6-2.6,0.6c-1.1,0-2.1-0.2-2.9-0.7
		c-0.9-0.4-1.5-1.1-2-2s-0.7-2-0.7-3.3v-8.1h2.3v7.8c0,1.4,0.3,2.4,1,3.2c0.7,0.7,1.6,1.1,2.8,1.1c1.2,0,2.2-0.4,2.9-1.1
		c0.7-0.8,1.1-1.9,1.1-3.3v-7.6h2.2V373.6z"/>
	<path class="st44" d="M348.9,374.9c1,1,1.6,2.5,1.6,4.4v8.2h-2.3v-7.9c0-1.4-0.3-2.4-1-3.2c-0.7-0.7-1.6-1.1-2.8-1.1
		c-1.2,0-2.2,0.4-2.9,1.1c-0.7,0.8-1.1,1.9-1.1,3.3v7.7H338v-13.9h2.3v2c0.5-0.7,1.1-1.3,1.9-1.6c0.8-0.4,1.7-0.6,2.6-0.6
		C346.5,373.3,347.9,373.9,348.9,374.9z"/>
	<path class="st44" d="M358.9,374.2c0.9-0.5,2-0.8,3.1-0.8c1.3,0,2.4,0.3,3.4,0.9s1.8,1.4,2.4,2.5s0.9,2.3,0.9,3.7
		c0,1.4-0.3,2.7-0.9,3.8c-0.6,1.1-1.4,2-2.4,2.6s-2.1,0.9-3.4,0.9c-1.2,0-2.3-0.3-3.2-0.8c-0.9-0.5-1.6-1.2-2-2v2.6h-2.3v-18.8h2.3
		v7.5C357.3,375.4,358,374.7,358.9,374.2z M365.6,377.8c-0.4-0.8-1-1.4-1.7-1.8s-1.5-0.6-2.4-0.6c-0.8,0-1.6,0.2-2.3,0.6
		c-0.7,0.4-1.3,1-1.7,1.8s-0.6,1.7-0.6,2.7s0.2,2,0.6,2.8s1,1.4,1.7,1.8s1.5,0.6,2.3,0.6c0.9,0,1.7-0.2,2.4-0.6s1.3-1,1.7-1.8
		c0.4-0.8,0.6-1.7,0.6-2.8C366.3,379.4,366.1,378.5,365.6,377.8z"/>
	<path class="st44" d="M374.2,368.7v18.8h-2.3v-18.8H374.2z"/>
	<path class="st44" d="M380.9,386.8c-1.1-0.6-1.9-1.4-2.5-2.5s-0.9-2.4-0.9-3.8s0.3-2.7,0.9-3.8s1.5-1.9,2.5-2.5s2.3-0.9,3.6-0.9
		s2.5,0.3,3.6,0.9s1.9,1.4,2.5,2.5s0.9,2.3,0.9,3.8c0,1.4-0.3,2.7-1,3.8c-0.6,1.1-1.5,1.9-2.6,2.5s-2.3,0.9-3.6,0.9
		C383.2,387.7,382,387.4,380.9,386.8z M386.8,385.1c0.7-0.4,1.3-1,1.8-1.8c0.4-0.8,0.7-1.7,0.7-2.8c0-1.1-0.2-2.1-0.7-2.8
		c-0.4-0.8-1-1.4-1.7-1.7c-0.7-0.4-1.5-0.6-2.3-0.6s-1.6,0.2-2.3,0.6c-0.7,0.4-1.3,1-1.7,1.7c-0.4,0.8-0.6,1.7-0.6,2.8
		c0,1.1,0.2,2.1,0.6,2.9s1,1.4,1.7,1.7c0.7,0.4,1.5,0.6,2.3,0.6C385.3,385.7,386.1,385.5,386.8,385.1z"/>
	<path class="st44" d="M394.9,376.8c0.6-1.1,1.4-1.9,2.4-2.5s2.2-0.9,3.5-0.9c1.7,0,3.1,0.4,4.2,1.2c1.1,0.8,1.8,2,2.2,3.4h-2.5
		c-0.2-0.8-0.7-1.5-1.4-2c-0.7-0.5-1.5-0.7-2.5-0.7c-1.3,0-2.4,0.5-3.2,1.4c-0.8,0.9-1.2,2.2-1.2,3.8c0,1.7,0.4,3,1.2,3.9
		s1.9,1.4,3.2,1.4c1,0,1.9-0.2,2.5-0.7c0.7-0.5,1.1-1.1,1.4-2h2.5c-0.4,1.4-1.1,2.6-2.2,3.4c-1.1,0.9-2.5,1.3-4.2,1.3
		c-1.3,0-2.5-0.3-3.5-0.9s-1.8-1.4-2.4-2.5s-0.9-2.3-0.9-3.8C394,379.1,394.3,377.8,394.9,376.8z"/>
	<path class="st44" d="M418.3,387.5l-5.5-6.1v6.1h-2.3v-18.8h2.3v11l5.4-6.2h3.2l-6.5,6.9l6.6,7h-3.2V387.5z"/>
	<path class="st44" d="M436.5,381.4h-11.1c0.1,1.4,0.6,2.4,1.4,3.2c0.9,0.8,1.9,1.2,3.1,1.2c1,0,1.8-0.2,2.5-0.7s1.1-1.1,1.4-1.9
		h2.5c-0.4,1.3-1.1,2.4-2.2,3.3c-1.1,0.8-2.5,1.3-4.2,1.3c-1.3,0-2.5-0.3-3.5-0.9s-1.9-1.4-2.4-2.5s-0.9-2.4-0.9-3.8
		s0.3-2.7,0.9-3.8s1.4-1.9,2.4-2.5s2.2-0.9,3.6-0.9c1.3,0,2.5,0.3,3.5,0.9s1.8,1.4,2.3,2.4s0.8,2.1,0.8,3.4
		C436.5,380.5,436.5,380.9,436.5,381.4z M433.6,377.3c-0.4-0.6-0.9-1.1-1.6-1.4s-1.4-0.5-2.2-0.5c-1.2,0-2.2,0.4-3,1.1
		s-1.3,1.8-1.4,3.1h8.8C434.2,378.7,434,377.9,433.6,377.3z"/>
	<path class="st44" d="M443.9,374c0.8-0.4,1.7-0.7,2.8-0.7v2.4H446c-2.6,0-3.9,1.4-3.9,4.2v7.6h-2.3v-13.9h2.3v2.3
		C442.6,375.1,443.1,374.4,443.9,374z"/>
	<path class="st44" d="M449.2,387.2c-0.3-0.3-0.5-0.7-0.5-1.1s0.2-0.8,0.5-1.1s0.7-0.5,1.1-0.5s0.8,0.2,1.1,0.5
		c0.3,0.3,0.4,0.7,0.4,1.1s-0.1,0.8-0.4,1.1c-0.3,0.3-0.7,0.5-1.1,0.5C449.8,387.6,449.5,387.5,449.2,387.2z"/>
	<path class="st44" d="M455.1,376.8c0.6-1.1,1.4-1.9,2.4-2.5s2.1-0.9,3.4-0.9c1.2,0,2.3,0.3,3.2,0.8c0.9,0.5,1.6,1.2,2,2v-2.5h2.3
		v13.9H466V385c-0.5,0.8-1.1,1.5-2,2s-2,0.8-3.2,0.8s-2.4-0.3-3.3-0.9c-1-0.6-1.8-1.5-2.4-2.6s-0.9-2.3-0.9-3.8
		C454.3,379.1,454.6,377.8,455.1,376.8z M465.4,377.8c-0.4-0.8-1-1.4-1.7-1.8s-1.5-0.6-2.4-0.6s-1.6,0.2-2.4,0.6
		c-0.7,0.4-1.3,1-1.7,1.8c-0.4,0.8-0.6,1.7-0.6,2.7c0,1.1,0.2,2,0.6,2.8s1,1.4,1.7,1.8s1.5,0.6,2.4,0.6s1.7-0.2,2.4-0.6
		s1.3-1,1.7-1.8c0.4-0.8,0.6-1.7,0.6-2.8C466,379.5,465.8,378.6,465.4,377.8z"/>
	<path class="st44" d="M476.6,374c0.8-0.4,1.7-0.7,2.8-0.7v2.4h-0.6c-2.6,0-3.9,1.4-3.9,4.2v7.6h-2.3v-13.9h2.3v2.3
		C475.2,375.1,475.8,374.4,476.6,374z"/>
	<path class="st44" d="M482.2,376.8c0.6-1.1,1.4-1.9,2.4-2.5s2.2-0.9,3.5-0.9c1.7,0,3.1,0.4,4.2,1.2c1.1,0.8,1.8,2,2.2,3.4H492
		c-0.2-0.8-0.7-1.5-1.4-2c-0.7-0.5-1.5-0.7-2.5-0.7c-1.3,0-2.4,0.5-3.2,1.4c-0.8,0.9-1.2,2.2-1.2,3.8c0,1.7,0.4,3,1.2,3.9
		s1.9,1.4,3.2,1.4c1,0,1.9-0.2,2.5-0.7c0.7-0.5,1.1-1.1,1.4-2h2.5c-0.4,1.4-1.1,2.6-2.2,3.4c-1.1,0.9-2.5,1.3-4.2,1.3
		c-1.3,0-2.5-0.3-3.5-0.9s-1.8-1.4-2.4-2.5s-0.9-2.3-0.9-3.8C481.4,379.1,481.7,377.8,482.2,376.8z"/>
	<path class="st44" d="M507.6,374c0.8,0.4,1.5,1.1,2,2s0.7,2,0.7,3.3v8.2H508v-7.9c0-1.4-0.3-2.4-1-3.2c-0.7-0.7-1.6-1.1-2.8-1.1
		c-1.2,0-2.2,0.4-2.9,1.1c-0.7,0.8-1.1,1.9-1.1,3.3v7.7h-2.3v-18.8h2.3v6.8c0.5-0.7,1.1-1.3,1.9-1.6c0.8-0.4,1.7-0.6,2.7-0.6
		C505.8,373.3,506.8,373.6,507.6,374z"/>
	<path class="st44" d="M526.7,373.6v13.9h-2.3v-2.1c-0.4,0.7-1.1,1.3-1.8,1.7c-0.8,0.4-1.7,0.6-2.6,0.6c-1.1,0-2.1-0.2-2.9-0.7
		c-0.9-0.4-1.5-1.1-2-2s-0.7-2-0.7-3.3v-8.1h2.3v7.8c0,1.4,0.3,2.4,1,3.2c0.7,0.7,1.6,1.1,2.8,1.1s2.2-0.4,2.9-1.1
		c0.7-0.8,1.1-1.9,1.1-3.3v-7.6h2.2V373.6z"/>
	<path class="st44" d="M535.2,374.2c0.9-0.5,2-0.8,3.1-0.8c1.3,0,2.4,0.3,3.4,0.9s1.8,1.4,2.4,2.5c0.6,1.1,0.9,2.3,0.9,3.7
		c0,1.4-0.3,2.7-0.9,3.8c-0.6,1.1-1.4,2-2.4,2.6s-2.1,0.9-3.4,0.9c-1.2,0-2.3-0.3-3.2-0.8s-1.6-1.2-2-2v2.6h-2.3v-18.8h2.3v7.5
		C533.6,375.4,534.3,374.7,535.2,374.2z M542,377.8c-0.4-0.8-1-1.4-1.7-1.8s-1.5-0.6-2.4-0.6c-0.8,0-1.6,0.2-2.3,0.6s-1.3,1-1.7,1.8
		s-0.6,1.7-0.6,2.7s0.2,2,0.6,2.8s1,1.4,1.7,1.8s1.5,0.6,2.3,0.6c0.9,0,1.7-0.2,2.4-0.6s1.3-1,1.7-1.8s0.6-1.7,0.6-2.8
		C542.6,379.4,542.4,378.5,542,377.8z"/>
	<path class="st44" d="M547.9,387.2c-0.3-0.3-0.5-0.7-0.5-1.1s0.2-0.8,0.5-1.1s0.7-0.5,1.1-0.5c0.4,0,0.8,0.2,1.1,0.5
		s0.4,0.7,0.4,1.1s-0.1,0.8-0.4,1.1c-0.3,0.3-0.7,0.5-1.1,0.5C548.6,387.6,548.2,387.5,547.9,387.2z"/>
	<path class="st44" d="M553.8,376.8c0.6-1.1,1.4-1.9,2.4-2.5s2.2-0.9,3.5-0.9c1.7,0,3.1,0.4,4.2,1.2c1.1,0.8,1.8,2,2.2,3.4h-2.5
		c-0.2-0.8-0.7-1.5-1.4-2s-1.5-0.7-2.5-0.7c-1.3,0-2.4,0.5-3.2,1.4s-1.2,2.2-1.2,3.8c0,1.7,0.4,3,1.2,3.9s1.9,1.4,3.2,1.4
		c1,0,1.9-0.2,2.5-0.7c0.7-0.5,1.1-1.1,1.4-2h2.5c-0.4,1.4-1.1,2.6-2.2,3.4c-1.1,0.9-2.5,1.3-4.2,1.3c-1.3,0-2.5-0.3-3.5-0.9
		s-1.8-1.4-2.4-2.5s-0.9-2.3-0.9-3.8C553,379.1,553.3,377.8,553.8,376.8z"/>
	<path class="st44" d="M569.5,376.8c0.6-1.1,1.4-1.9,2.4-2.5s2.1-0.9,3.4-0.9c1.2,0,2.3,0.3,3.2,0.8s1.6,1.2,2,2v-2.5h2.3v13.9h-2.3
		V385c-0.5,0.8-1.1,1.5-2,2s-2,0.8-3.2,0.8s-2.4-0.3-3.3-0.9c-1-0.6-1.8-1.5-2.4-2.6c-0.6-1.1-0.9-2.3-0.9-3.8
		C568.6,379.1,568.9,377.8,569.5,376.8z M579.8,377.8c-0.4-0.8-1-1.4-1.7-1.8s-1.5-0.6-2.4-0.6s-1.6,0.2-2.4,0.6
		c-0.7,0.4-1.3,1-1.7,1.8s-0.6,1.7-0.6,2.7c0,1.1,0.2,2,0.6,2.8c0.4,0.8,1,1.4,1.7,1.8s1.5,0.6,2.4,0.6s1.7-0.2,2.4-0.6
		s1.3-1,1.7-1.8s0.6-1.7,0.6-2.8C580.4,379.5,580.2,378.6,579.8,377.8z"/>
</g>
<g>
	<path class="st44" d="M309.1,378.4l-3.6-4.2l0.5-5.5l-5.4-1.2l-2.8-4.8l-5.1,2.2l-5.1-2.2l-2.8,4.8l-5.4,1.2l0.5,5.5l-3.6,4.2
		l3.6,4.2l-0.5,5.5l5.4,1.2l2.8,4.8l5.1-2.2l5.1,2.2l2.8-4.8l5.4-1.2l-0.5-5.5L309.1,378.4z M303.2,380.6l-0.8,1l0.1,1.3l0.3,2.9
		l-2.8,0.6l-1.3,0.3l-0.7,1.1l-1.5,2.5l-2.7-1.2l-1.2-0.5l-1.2,0.5l-2.7,1.2l-1.5-2.5l-0.7-1.1l-1.3-0.3l-2.8-0.6l0.3-2.9l0.1-1.3
		l-0.8-1l-1.9-2.2l1.9-2.2l0.8-1l-0.1-1.3l-0.3-2.9l2.8-0.6l1.3-0.3l0.7-1.1l1.5-2.5l2.7,1.2l1.2,0.5l1.2-0.5l2.7-1.2l1.5,2.5
		l0.7,1.1l1.3,0.3l2.8,0.6l-0.3,2.9l-0.1,1.3l0.8,1l1.9,2.2L303.2,380.6z"/>
	<polygon class="st44" points="289.8,381.1 286.3,377.6 284.1,379.8 289.8,385.5 300.8,374.5 298.5,372.3 	"/>
</g>
<g>
	<path class="st42" d="M1103.9,331.7h-168c-3.3,0-6-2.7-6-6v-38.8c0-3.3,2.7-6,6-6h168c3.3,0,6,2.7,6,6v38.8
		C1109.9,329,1107.2,331.7,1103.9,331.7z"/>
	<g>
		<path class="st1" d="M963.1,298v7.4c0,3.5-0.1,6-0.2,7.3c-0.1,1.3-0.5,2.3-1,2.9c-0.6,0.6-1.5,0.9-2.7,0.9h-1.7L957,315h2.1
			c0.7,0,1.3-0.2,1.6-0.6c0.4-0.4,0.6-1.1,0.7-2.3c0.1-1.1,0.2-3.3,0.2-6.5v-6.3h-4.3c-0.1,6.8-1.6,12.5-4.4,17.1l-0.9-1.5
			c2.5-3.8,3.8-9,3.9-15.6h-3.3V298h3.3v-4.1h1.4v4.1H963.1z M965.7,316.4v-20.5h8.2v20.5h-1.4v-2.1h-5.3v2.1H965.7z M967.1,297.3
			v15.6h5.3v-15.6H967.1z"/>
		<path class="st1" d="M977.7,295.5h12.7v1.4h-6.5c-1,2.2-2.2,4.2-3.5,6.1c2.3-0.2,4.8-0.4,7.5-0.6c-0.5-1-1.1-2.1-1.8-3.2l1.3-0.5
			c1.3,2.1,2.4,4.2,3.3,6.2l-1.4,0.5c-0.2-0.5-0.4-1.1-0.7-1.7c-1.3,0.1-2.6,0.2-3.8,0.3v4h5v1.4h-5v4.6c2.1-0.2,4-0.4,5.9-0.7
			l0.1,1.4c-4.2,0.6-8.7,1.1-13.4,1.3l-0.1-1.5c2.1-0.1,4.1-0.2,6-0.4v-4.7H978V308h5.4v-3.9c-1.8,0.1-3.5,0.3-5.1,0.5l-0.2-1.4
			c0.5-0.2,1-0.6,1.4-1.2c1.1-1.6,2.1-3.4,2.9-5.1h-4.7L977.7,295.5L977.7,295.5z M992.5,311.3V296h1.4v15.3H992.5z M997.6,314.4
			v-20.5h1.4v20.7c0,1.4-0.7,2-2,2h-3.8l-0.4-1.4h4C997.3,315.2,997.6,314.9,997.6,314.4z"/>
		<path class="st1" d="M1016.3,309.2h1.7c-0.1,1.8-0.8,3.2-2,4.2s-2.8,1.6-4.8,1.6c-2.4,0-4.3-0.8-5.8-2.3c-1.5-1.6-2.2-3.8-2.2-6.6
			c0-2.8,0.7-5,2.2-6.6s3.4-2.4,5.8-2.4c1.9,0,3.4,0.5,4.6,1.4c1.2,0.9,1.9,2.1,2.1,3.4h-1.7c-0.2-1-0.7-1.8-1.6-2.4
			c-0.9-0.6-2-0.9-3.3-0.9c-1.8,0-3.3,0.6-4.5,1.9c-1.2,1.2-1.8,3.1-1.8,5.6c0,2.4,0.6,4.3,1.7,5.5c1.1,1.3,2.6,1.9,4.6,1.9
			c1.5,0,2.7-0.4,3.6-1.2C1015.7,311.6,1016.2,310.5,1016.3,309.2z"/>
		<path class="st1" d="M1026.9,301.5c1.4,0,2.4,0.4,3.2,1.2c0.8,0.8,1.1,1.8,1.1,3v9h-1.7v-9c0-0.8-0.2-1.5-0.7-2s-1.1-0.8-2-0.8
			s-1.7,0.3-2.6,1c-0.6,0.5-1.1,1.1-1.4,1.8v9h-1.7V296h1.7v7.5c0.4-0.5,1-1,1.6-1.3C1025.2,301.7,1026,301.5,1026.9,301.5z"/>
		<path class="st1" d="M1036.4,314.8h-1.7v-13.1h1.7v2.2c0.5-0.7,1.1-1.3,1.7-1.6c0.8-0.5,1.7-0.7,2.6-0.7v1.6c-1,0-2,0.4-2.9,1.1
			c-0.6,0.5-1.1,1.1-1.4,1.9L1036.4,314.8L1036.4,314.8z"/>
		<path class="st1" d="M1048.5,301.5c1.8,0,3.3,0.6,4.4,1.8c1.1,1.2,1.6,2.8,1.6,4.8s-0.6,3.6-1.7,4.9s-2.6,1.9-4.4,1.9
			c-1.7,0-3.2-0.6-4.3-1.9c-1.1-1.3-1.7-2.9-1.7-4.9c0-1.9,0.6-3.5,1.7-4.8C1045.2,302.1,1046.7,301.5,1048.5,301.5z M1048.5,303
			c-1.2,0-2.3,0.5-3.1,1.4c-0.8,0.9-1.2,2.2-1.2,3.8c0,1.6,0.4,2.9,1.2,3.9c0.8,0.9,1.8,1.4,3.1,1.4c1.2,0,2.2-0.5,3-1.4
			s1.2-2.2,1.2-3.9c0-1.6-0.4-2.8-1.2-3.7C1050.7,303.5,1049.7,303,1048.5,303z"/>
		<path class="st1" d="M1059.5,314.8h-1.7v-13.1h1.7v1.8c0.4-0.6,0.9-1,1.4-1.3c0.7-0.4,1.5-0.6,2.2-0.6c1.2,0,2.1,0.4,2.8,1.1
			c0.3,0.3,0.5,0.7,0.7,1.1c0.5-0.7,1.1-1.3,1.7-1.6c0.7-0.4,1.5-0.7,2.3-0.7c1.2,0,2.2,0.4,2.8,1.2c0.7,0.8,1,1.8,1,3.1v9h-1.7v-9
			c0-0.8-0.2-1.5-0.6-2s-1-0.8-1.7-0.8c-0.8,0-1.5,0.3-2.3,1c-0.4,0.4-0.8,0.9-1.2,1.7v9.2h-1.7v-9c0-0.8-0.2-1.5-0.6-2
			s-1-0.8-1.7-0.8c-0.8,0-1.6,0.3-2.4,1c-0.5,0.4-0.9,1-1.2,1.8v8.9H1059.5z"/>
		<path class="st1" d="M1080.6,312.2c0.7,0.8,1.8,1.2,3.1,1.2c1,0,1.9-0.2,2.5-0.6s0.9-0.9,1-1.5h1.7c-0.2,1.2-0.8,2.1-1.7,2.7
			c-0.9,0.6-2.1,1-3.5,1c-1.8,0-3.2-0.6-4.3-1.8c-1.1-1.2-1.6-2.8-1.7-4.9c0-2,0.5-3.6,1.6-4.9s2.5-1.9,4.3-1.9c1.7,0,3,0.6,4,1.8
			s1.5,3.1,1.5,5.5h-9.6C1079.5,310.3,1079.9,311.4,1080.6,312.2z M1086.3,304.3c-0.7-0.8-1.6-1.2-2.7-1.2s-2.1,0.4-2.9,1.2
			c-0.7,0.7-1.1,1.7-1.2,3h7.7C1087.2,306,1086.9,305,1086.3,304.3z"/>
	</g>
</g>
<line class="st45" x1="114.8" y1="557.3" x2="1109.9" y2="557.3"/>
<g>
	<g>
		<g>
			<path class="st46" d="M307.3,444.2h-11.7c-0.1,0-0.1,0-0.1-0.1l-3.6-11.3c0-0.1-0.2-0.1-0.2,0l-3.6,11.3c0,0.1-0.1,0.1-0.1,0.1
				h-11.7c-0.1,0-0.2,0.2-0.1,0.2l9.4,7c0,0,0.1,0.1,0,0.1l-3.6,11.3c0,0.1,0.1,0.2,0.2,0.1l9.4-7h0.1l9.4,7c0.1,0.1,0.2,0,0.2-0.1
				l-3.6-11.3c0-0.1,0-0.1,0-0.1l9.4-7C307.5,444.3,307.5,444.2,307.3,444.2z"/>
		</g>
	</g>
	<g>
		<g>
			<path class="st46" d="M345.6,444.2h-11.7c-0.1,0-0.1,0-0.1-0.1l-3.6-11.3c0-0.1-0.2-0.1-0.2,0l-3.6,11.3c0,0.1-0.1,0.1-0.1,0.1
				h-11.7c-0.1,0-0.2,0.2-0.1,0.2l9.4,7c0,0,0.1,0.1,0,0.1l-3.6,11.3c0,0.1,0.1,0.2,0.2,0.1l9.4-7h0.1l9.4,7c0.1,0.1,0.2,0,0.2-0.1
				l-3.6-11.3c0-0.1,0-0.1,0-0.1l9.4-7C345.8,444.3,345.7,444.2,345.6,444.2z"/>
		</g>
	</g>
	<g>
		<g>
			<path class="st46" d="M383.9,444.2h-11.7c-0.1,0-0.1,0-0.1-0.1l-3.6-11.3c0-0.1-0.2-0.1-0.2,0l-3.6,11.3c0,0.1-0.1,0.1-0.1,0.1
				h-11.7c-0.1,0-0.2,0.2-0.1,0.2l9.4,7c0,0,0.1,0.1,0,0.1l-3.6,11.3c0,0.1,0.1,0.2,0.2,0.1l9.4-7h0.1l9.4,7c0.1,0.1,0.2,0,0.2-0.1
				l-3.6-11.3c0-0.1,0-0.1,0-0.1l9.4-7C384,444.3,384,444.2,383.9,444.2z"/>
		</g>
	</g>
	<g>
		<g>
			<path class="st46" d="M422.1,444.2h-11.7c-0.1,0-0.1,0-0.1-0.1l-3.6-11.3c0-0.1-0.2-0.1-0.2,0l-3.6,11.3c0,0.1-0.1,0.1-0.1,0.1
				h-11.7c-0.1,0-0.2,0.2-0.1,0.2l9.4,7c0,0,0.1,0.1,0,0.1l-3.6,11.3c0,0.1,0.1,0.2,0.2,0.1l9.4-7h0.1l9.4,7c0.1,0.1,0.2,0,0.2-0.1
				l-3.6-11.3c0-0.1,0-0.1,0-0.1l9.4-7C422.3,444.3,422.3,444.2,422.1,444.2z"/>
		</g>
	</g>
	<g>
		<g>
			<path class="st47" d="M460.4,444.2h-11.7c-0.1,0-0.1,0-0.1-0.1l-3.6-11.3c0-0.1-0.2-0.1-0.2,0l-3.6,11.3c0,0.1-0.1,0.1-0.1,0.1
				h-11.7c-0.1,0-0.2,0.2-0.1,0.2l9.4,7c0,0,0.1,0.1,0,0.1l-3.6,11.3c0,0.1,0.1,0.2,0.2,0.1l9.4-7h0.1l9.4,7c0.1,0.1,0.2,0,0.2-0.1
				l-3.6-11.3c0-0.1,0-0.1,0-0.1l9.4-7C460.6,444.3,460.5,444.2,460.4,444.2z"/>
		</g>
	</g>
</g>
<path class="st48" d="M1156.3,605.4H19.3c-7.5,0-13.7-6-13.7-13.4V22.3c0-7.4,6.1-13.4,13.7-13.4h1137c7.5,0,13.7,6,13.7,13.4V592
	C1170,599.4,1163.9,605.4,1156.3,605.4z"/>
<g>
	<path d="M279.6,293v33.9h20v3.1H276V293H279.6z"/>
	<path d="M308.4,292.1v4.8h-4v-4.8H308.4z M308.2,302.3v27.6h-3.6v-27.6H308.2z"/>
	<path d="M319.6,290.4v15.9c1.1-1.5,2.3-2.5,3.5-3.1c1.7-0.8,3.4-1.3,5.2-1.3c3.6,0,6.6,1.3,8.8,3.9s3.4,6,3.4,10.2
		c0,4.3-1.1,7.7-3.3,10.4c-2.2,2.7-5.1,4-8.8,4c-2,0-3.8-0.4-5.4-1.3c-1.3-0.7-2.4-1.7-3.5-3.1v4H316v-39.6H319.6z M336.9,316
		c0-3.2-0.8-5.8-2.4-7.8c-1.6-2-3.8-3-6.4-3c-2.3,0-4.2,0.8-5.8,2.4c-1.6,1.6-2.4,3.4-2.6,5.4v5.9c0.2,2.3,1.1,4.3,2.7,5.9
		c1.6,1.6,3.7,2.4,6.1,2.4c2.6,0,4.6-1,6.2-2.9C336.1,322.2,336.9,319.5,336.9,316z"/>
	<path d="M351.8,324.5c1.5,1.7,3.7,2.5,6.6,2.5c2.2,0,3.9-0.4,5.2-1.3c1.3-0.8,2-1.9,2.2-3.2h3.6c-0.5,2.5-1.7,4.4-3.6,5.8
		c-1.9,1.4-4.4,2-7.4,2c-3.8,0-6.8-1.2-9.1-3.7c-2.3-2.5-3.5-5.9-3.5-10.4c0-4.2,1.1-7.6,3.3-10.3c2.2-2.7,5.2-4,9-4
		c3.6,0,6.4,1.3,8.5,3.9c2.1,2.6,3.1,6.5,3.1,11.7h-20.2C349.6,320.5,350.3,322.9,351.8,324.5z M363.8,307.8
		c-1.4-1.7-3.3-2.6-5.7-2.6c-2.4,0-4.4,0.9-6,2.6c-1.5,1.5-2.3,3.7-2.5,6.3h16.3C365.7,311.4,365,309.3,363.8,307.8z"/>
	<path d="M379,329.9h-3.5v-27.6h3.5v4.7c1-1.5,2.2-2.7,3.6-3.5c1.8-1,3.6-1.6,5.4-1.6v3.3c-2.1,0-4.1,0.8-6,2.3
		c-1.3,1-2.2,2.4-2.9,4V329.9z"/>
	<path d="M389.2,296.1V293H416v3.1h-11.5v33.8h-3.6v-33.8H389.2z"/>
	<path d="M424.4,292.1v4.8h-4v-4.8H424.4z M424.2,302.3v27.6h-3.6v-27.6H424.2z"/>
	<path d="M435.6,329.9H432v-27.6h3.6v3.8c0.9-1.2,1.9-2.2,3-2.8c1.5-0.9,3.1-1.4,4.7-1.4c2.5,0,4.5,0.8,5.9,2.4
		c0.6,0.7,1.1,1.5,1.5,2.4c1.1-1.5,2.3-2.6,3.5-3.4c1.6-0.9,3.2-1.4,4.8-1.4c2.5,0,4.5,0.8,6,2.5c1.4,1.6,2.1,3.8,2.1,6.5v19h-3.6
		v-19c0-1.8-0.4-3.2-1.3-4.3c-0.8-1.1-2-1.6-3.5-1.6c-1.6,0-3.2,0.7-4.9,2.1c-0.9,0.8-1.7,1.9-2.5,3.5v19.3h-3.5v-19
		c0-1.8-0.4-3.2-1.3-4.3c-0.8-1.1-2-1.6-3.5-1.6c-1.6,0-3.3,0.7-5,2.2c-1,0.9-1.9,2.2-2.6,3.8V329.9z"/>
	<path d="M479.4,324.5c1.5,1.7,3.7,2.5,6.6,2.5c2.2,0,3.9-0.4,5.2-1.3c1.3-0.8,2-1.9,2.2-3.2h3.6c-0.5,2.5-1.7,4.4-3.6,5.8
		c-1.9,1.4-4.4,2-7.4,2c-3.8,0-6.8-1.2-9.1-3.7c-2.3-2.5-3.5-5.9-3.5-10.4c0-4.2,1.1-7.6,3.3-10.3c2.2-2.7,5.2-4,9-4
		c3.6,0,6.4,1.3,8.5,3.9c2.1,2.6,3.1,6.5,3.1,11.7h-20.2C477.2,320.5,477.9,322.9,479.4,324.5z M491.4,307.8
		c-1.4-1.7-3.3-2.6-5.7-2.6c-2.4,0-4.4,0.9-6,2.6c-1.5,1.5-2.3,3.7-2.5,6.3h16.3C493.3,311.4,492.6,309.3,491.4,307.8z"/>
	<path d="M525.8,336.5v3.1h-26.2v-3.1H525.8z"/>
	<path d="M534.5,329.9h-3.5v-24.4h-4.7v-3.2h4.7V297c0-2,0.6-3.6,1.8-4.8c1.2-1.2,2.8-1.8,5-1.8h3.6v3.3h-3.4
		c-1.2,0-2.1,0.3-2.6,0.9c-0.6,0.6-0.9,1.4-0.9,2.6v5.2h6.1v3.2h-6.1V329.9z"/>
	<path d="M556.1,302c3.9,0,7,1.3,9.2,3.9c2.3,2.6,3.4,6,3.4,10.1c0,4.2-1.2,7.6-3.5,10.4c-2.3,2.7-5.4,4.1-9.2,4.1
		c-3.7,0-6.7-1.4-9.1-4.1c-2.4-2.7-3.6-6.2-3.6-10.4c0-4.1,1.2-7.4,3.5-10C549.3,303.3,552.3,302,556.1,302z M556.1,305.2
		c-2.6,0-4.8,1-6.5,2.9c-1.7,1.9-2.5,4.6-2.5,7.9c0,3.4,0.8,6.1,2.5,8.1c1.7,2,3.9,3,6.5,3c2.5,0,4.6-1,6.4-2.9
		c1.7-1.9,2.6-4.7,2.6-8.2c0-3.3-0.9-5.9-2.6-7.9C560.8,306.1,558.6,305.2,556.1,305.2z"/>
	<path d="M578.3,329.9h-3.5v-27.6h3.5v4.7c1-1.5,2.2-2.7,3.6-3.5c1.8-1,3.6-1.6,5.4-1.6v3.3c-2.1,0-4.1,0.8-6,2.3
		c-1.3,1-2.2,2.4-2.9,4V329.9z"/>
	<path d="M613.9,336.5v3.1h-26.2v-3.1H613.9z"/>
	<path d="M622.5,324.5c1.5,1.7,3.7,2.5,6.6,2.5c2.2,0,3.9-0.4,5.2-1.3c1.3-0.8,2-1.9,2.2-3.2h3.6c-0.5,2.5-1.7,4.4-3.6,5.8
		c-1.9,1.4-4.4,2-7.4,2c-3.8,0-6.8-1.2-9.1-3.7c-2.3-2.5-3.5-5.9-3.5-10.4c0-4.2,1.1-7.6,3.3-10.3c2.2-2.7,5.2-4,9-4
		c3.6,0,6.4,1.3,8.5,3.9c2.1,2.6,3.1,6.5,3.1,11.7h-20.2C620.2,320.5,621,322.9,622.5,324.5z M634.4,307.8c-1.4-1.7-3.3-2.6-5.7-2.6
		s-4.4,0.9-6,2.6c-1.5,1.5-2.3,3.7-2.5,6.3h16.3C636.4,311.4,635.7,309.3,634.4,307.8z"/>
	<path d="M643.5,305.6v-3.2h4.7v-7h3.5v7h5.4v3.2h-5.4v19.2c0,0.7,0.2,1.1,0.5,1.4c0.3,0.3,0.8,0.4,1.5,0.4h3.4v3.3h-4.3
		c-1.3,0-2.3-0.4-3.2-1.3c-0.9-0.9-1.4-2-1.4-3.4v-19.6H643.5z"/>
	<path d="M679.8,302.3h3.5v27.6h-3.5v-3.8c-0.9,1.2-2,2.1-3.2,2.7c-1.8,1-3.7,1.5-5.6,1.5c-2.8,0-5-0.8-6.7-2.5
		c-1.6-1.7-2.4-3.9-2.4-6.6v-19h3.5v19c0,1.9,0.5,3.3,1.5,4.3s2.4,1.6,4.2,1.6c2,0,4-0.9,6-2.6c1-0.8,1.9-2,2.6-3.4V302.3z"/>
	<path d="M687.9,305.6v-3.2h4.7v-7h3.5v7h5.4v3.2h-5.4v19.2c0,0.7,0.2,1.1,0.5,1.4c0.3,0.3,0.8,0.4,1.5,0.4h3.4v3.3h-4.3
		c-1.3,0-2.3-0.4-3.2-1.3c-0.9-0.9-1.4-2-1.4-3.4v-19.6H687.9z"/>
	<path d="M718.1,302c3.9,0,7,1.3,9.2,3.9c2.3,2.6,3.4,6,3.4,10.1c0,4.2-1.2,7.6-3.5,10.4c-2.3,2.7-5.4,4.1-9.2,4.1
		c-3.7,0-6.7-1.4-9.1-4.1c-2.4-2.7-3.6-6.2-3.6-10.4c0-4.1,1.2-7.4,3.5-10C711.2,303.3,714.2,302,718.1,302z M718.1,305.2
		c-2.6,0-4.8,1-6.5,2.9c-1.7,1.9-2.5,4.6-2.5,7.9c0,3.4,0.8,6.1,2.5,8.1c1.7,2,3.9,3,6.5,3c2.5,0,4.6-1,6.4-2.9
		c1.7-1.9,2.6-4.7,2.6-8.2c0-3.3-0.9-5.9-2.6-7.9C722.7,306.1,720.6,305.2,718.1,305.2z"/>
	<path d="M740.2,329.9h-3.5v-27.6h3.5v4.7c1-1.5,2.2-2.7,3.6-3.5c1.8-1,3.6-1.6,5.4-1.6v3.3c-2.1,0-4.1,0.8-6,2.3
		c-1.3,1-2.2,2.4-2.9,4V329.9z"/>
</g>
<g>
	<path class="st43" d="M372.2,184.8v19h11.2v1.7h-13.2v-20.7H372.2z"/>
	<path class="st43" d="M388.3,184.2v2.7h-2.3v-2.7H388.3z M388.2,190v15.5h-2V190H388.2z"/>
	<path class="st43" d="M394.6,183.3v8.9c0.6-0.8,1.3-1.4,2-1.7c0.9-0.5,1.9-0.7,2.9-0.7c2,0,3.7,0.7,4.9,2.2
		c1.3,1.4,1.9,3.3,1.9,5.7c0,2.4-0.6,4.3-1.8,5.8c-1.2,1.5-2.9,2.2-4.9,2.2c-1.1,0-2.1-0.2-3-0.7c-0.7-0.4-1.3-1-1.9-1.8v2.2h-2
		v-22.2H394.6z M404.3,197.7c0-1.8-0.5-3.3-1.4-4.4c-0.9-1.1-2.1-1.7-3.6-1.7c-1.3,0-2.4,0.4-3.2,1.3c-0.9,0.9-1.4,1.9-1.5,3v3.3
		c0.1,1.3,0.6,2.4,1.5,3.3c0.9,0.9,2.1,1.4,3.4,1.4c1.4,0,2.6-0.5,3.4-1.6C403.9,201.1,404.3,199.6,404.3,197.7z"/>
	<path class="st43" d="M412.6,202.4c0.9,0.9,2.1,1.4,3.7,1.4c1.2,0,2.2-0.2,2.9-0.7c0.7-0.5,1.1-1.1,1.2-1.8h2c-0.3,1.4-1,2.5-2,3.2
		c-1.1,0.8-2.5,1.1-4.1,1.1c-2.1,0-3.8-0.7-5.1-2.1c-1.3-1.4-1.9-3.3-2-5.8c0-2.3,0.6-4.2,1.8-5.8c1.3-1.5,2.9-2.3,5-2.3
		c2,0,3.6,0.7,4.7,2.2c1.2,1.4,1.7,3.6,1.7,6.5h-11.3C411.4,200.2,411.8,201.5,412.6,202.4z M419.3,193c-0.8-1-1.8-1.5-3.2-1.5
		c-1.3,0-2.5,0.5-3.4,1.5c-0.8,0.9-1.3,2-1.4,3.6h9.1C420.4,195.1,420,193.9,419.3,193z"/>
	<path class="st43" d="M427.9,205.5h-2V190h2v2.6c0.6-0.9,1.3-1.5,2-1.9c1-0.6,2-0.9,3-0.9v1.8c-1.2,0-2.3,0.4-3.4,1.3
		c-0.7,0.6-1.3,1.3-1.6,2.3V205.5z"/>
	<path class="st43" d="M433.6,186.5v-1.8h15v1.8h-6.5v18.9h-2v-18.9H433.6z"/>
	<path class="st43" d="M453.3,184.2v2.7H451v-2.7H453.3z M453.2,190v15.5h-2V190H453.2z"/>
	<path class="st43" d="M459.5,205.5h-2V190h2v2.1c0.5-0.7,1.1-1.2,1.7-1.6c0.9-0.5,1.7-0.8,2.6-0.8c1.4,0,2.5,0.5,3.3,1.3
		c0.4,0.4,0.6,0.9,0.8,1.3c0.6-0.8,1.3-1.5,2-1.9c0.9-0.5,1.8-0.8,2.7-0.8c1.4,0,2.5,0.5,3.3,1.4c0.8,0.9,1.2,2.1,1.2,3.6v10.7h-2
		v-10.7c0-1-0.2-1.8-0.7-2.4c-0.5-0.6-1.1-0.9-2-0.9c-0.9,0-1.8,0.4-2.7,1.2c-0.5,0.4-1,1.1-1.4,2v10.8h-2v-10.7
		c0-1-0.2-1.8-0.7-2.4c-0.5-0.6-1.1-0.9-2-0.9c-0.9,0-1.8,0.4-2.8,1.2c-0.6,0.5-1.1,1.2-1.4,2.1V205.5z"/>
	<path class="st43" d="M484.1,202.4c0.9,0.9,2.1,1.4,3.7,1.4c1.2,0,2.2-0.2,2.9-0.7c0.7-0.5,1.1-1.1,1.2-1.8h2c-0.3,1.4-1,2.5-2,3.2
		c-1.1,0.8-2.5,1.1-4.1,1.1c-2.1,0-3.8-0.7-5.1-2.1c-1.3-1.4-1.9-3.3-2-5.8c0-2.3,0.6-4.2,1.8-5.8c1.3-1.5,2.9-2.3,5-2.3
		c2,0,3.6,0.7,4.7,2.2c1.2,1.4,1.7,3.6,1.7,6.5h-11.3C482.8,200.2,483.3,201.5,484.1,202.4z M490.8,193c-0.8-1-1.8-1.5-3.2-1.5
		c-1.3,0-2.5,0.5-3.4,1.5c-0.8,0.9-1.3,2-1.4,3.6h9.1C491.9,195.1,491.5,193.9,490.8,193z"/>
	<path class="st43" d="M510.1,209.1v1.7h-14.7v-1.7H510.1z"/>
	<path class="st43" d="M515,205.5H513v-13.6h-2.6V190h2.6v-3c0-1.1,0.3-2,1-2.7c0.7-0.7,1.6-1,2.8-1h2v1.8h-1.9
		c-0.7,0-1.2,0.2-1.5,0.5c-0.3,0.3-0.5,0.8-0.5,1.5v2.9h3.4v1.8H515V205.5z"/>
	<path class="st43" d="M527.1,189.8c2.2,0,3.9,0.7,5.2,2.2c1.3,1.4,1.9,3.3,1.9,5.7c0,2.3-0.7,4.3-2,5.8c-1.3,1.5-3,2.3-5.2,2.3
		c-2.1,0-3.8-0.8-5.1-2.3c-1.3-1.5-2-3.4-2-5.8c0-2.3,0.7-4.1,2-5.6C523.2,190.5,524.9,189.8,527.1,189.8z M527.1,191.6
		c-1.5,0-2.7,0.5-3.6,1.6c-0.9,1.1-1.4,2.5-1.4,4.4c0,1.9,0.5,3.4,1.4,4.5c0.9,1.1,2.2,1.7,3.6,1.7c1.4,0,2.6-0.5,3.6-1.6
		c1-1.1,1.5-2.6,1.5-4.6c0-1.9-0.5-3.3-1.5-4.4C529.7,192.1,528.5,191.6,527.1,191.6z"/>
	<path class="st43" d="M539.5,205.5h-2V190h2v2.6c0.6-0.9,1.3-1.5,2-1.9c1-0.6,2-0.9,3-0.9v1.8c-1.2,0-2.3,0.4-3.4,1.3
		c-0.7,0.6-1.3,1.3-1.6,2.3V205.5z"/>
	<path class="st43" d="M559.4,209.1v1.7h-14.7v-1.7H559.4z"/>
	<path class="st43" d="M564.2,202.4c0.9,0.9,2.1,1.4,3.7,1.4c1.2,0,2.2-0.2,2.9-0.7c0.7-0.5,1.1-1.1,1.2-1.8h2c-0.3,1.4-1,2.5-2,3.2
		c-1.1,0.8-2.5,1.1-4.1,1.1c-2.1,0-3.8-0.7-5.1-2.1c-1.3-1.4-1.9-3.3-2-5.8c0-2.3,0.6-4.2,1.8-5.8c1.3-1.5,2.9-2.3,5-2.3
		c2,0,3.6,0.7,4.7,2.2c1.2,1.4,1.7,3.6,1.7,6.5h-11.3C563,200.2,563.4,201.5,564.2,202.4z M570.9,193c-0.8-1-1.8-1.5-3.2-1.5
		c-1.3,0-2.5,0.5-3.4,1.5c-0.8,0.9-1.3,2-1.4,3.6h9.1C572,195.1,571.6,193.9,570.9,193z"/>
	<path class="st43" d="M576,191.8V190h2.6v-3.9h2v3.9h3v1.8h-3v10.7c0,0.4,0.1,0.6,0.3,0.8c0.2,0.2,0.5,0.2,0.8,0.2h1.9v1.8h-2.4
		c-0.7,0-1.3-0.2-1.8-0.7c-0.5-0.5-0.8-1.1-0.8-1.9v-11H576z"/>
	<path class="st43" d="M596.3,190h2v15.5h-2v-2.1c-0.5,0.6-1.1,1.2-1.8,1.5c-1,0.6-2,0.9-3.1,0.9c-1.6,0-2.8-0.5-3.7-1.4
		c-0.9-0.9-1.3-2.2-1.3-3.7V190h2v10.6c0,1,0.3,1.8,0.9,2.4s1.4,0.9,2.4,0.9c1.1,0,2.2-0.5,3.4-1.4c0.6-0.5,1-1.1,1.4-1.9V190z"/>
	<path class="st43" d="M600.9,191.8V190h2.6v-3.9h2v3.9h3v1.8h-3v10.7c0,0.4,0.1,0.6,0.3,0.8c0.2,0.2,0.5,0.2,0.8,0.2h1.9v1.8h-2.4
		c-0.7,0-1.3-0.2-1.8-0.7c-0.5-0.5-0.8-1.1-0.8-1.9v-11H600.9z"/>
	<path class="st43" d="M617.7,189.8c2.2,0,3.9,0.7,5.2,2.2c1.3,1.4,1.9,3.3,1.9,5.7c0,2.3-0.7,4.3-2,5.8c-1.3,1.5-3,2.3-5.1,2.3
		c-2.1,0-3.8-0.8-5.1-2.3c-1.3-1.5-2-3.4-2-5.8c0-2.3,0.7-4.1,2-5.6C613.9,190.5,615.6,189.8,617.7,189.8z M617.7,191.6
		c-1.5,0-2.7,0.5-3.6,1.6c-0.9,1.1-1.4,2.5-1.4,4.4c0,1.9,0.5,3.4,1.4,4.5c0.9,1.1,2.2,1.7,3.6,1.7c1.4,0,2.6-0.5,3.6-1.6
		c1-1.1,1.5-2.6,1.5-4.6c0-1.9-0.5-3.3-1.5-4.4C620.3,192.1,619.1,191.6,617.7,191.6z"/>
	<path class="st43" d="M630.1,205.5h-2V190h2v2.6c0.6-0.9,1.3-1.5,2-1.9c1-0.6,2-0.9,3-0.9v1.8c-1.2,0-2.3,0.4-3.4,1.3
		c-0.7,0.6-1.3,1.3-1.6,2.3V205.5z"/>
</g>
</svg>
