<?xml version="1.0" encoding="utf-8"?>
<!-- Generator: Adobe Illustrator 28.0.0, SVG Export Plug-In . SVG Version: 6.00 Build 0)  -->
<svg version="1.1" id="圖層_1" xmlns="http://www.w3.org/2000/svg" xmlns:xlink="http://www.w3.org/1999/xlink" x="0px" y="0px"
	 viewBox="0 0 1175.6 614.3" style="enable-background:new 0 0 1175.6 614.3;" xml:space="preserve">
<style type="text/css">
	.st0{fill:none;}
	.st1{fill:#FFFFFF;}
	.st2{fill:#B9CCEA;}
	.st3{fill:none;stroke:#A8ACB2;stroke-width:2;stroke-miterlimit:10;}
	.st4{display:none;fill:#E2E2E2;}
	.st5{fill:none;stroke:#3F3F3F;stroke-miterlimit:10;}
	.st6{fill:#C2D7F2;}
	.st7{fill:#202124;}
	.st8{opacity:0.47;fill:url(#SVGID_1_);}
	.st9{fill:#052F6D;}
	.st10{fill:#A6CAFF;}
	.st11{fill:#EDD33B;}
	.st12{fill:#163C85;}
	.st13{fill:#ADC9F9;}
	.st14{fill:#3A3A3A;}
</style>
<g>
	<path class="st0" d="M1161.8,614.3H13.8c-7.6,0-13.8-6.2-13.8-13.8V13.8C0,6.2,6.2,0,13.8,0h1148c7.6,0,13.8,6.2,13.8,13.8v586.7
		C1175.6,608.1,1169.4,614.3,1161.8,614.3z"/>
	<rect class="st1" width="1175.6" height="614.3"/>
	<rect class="st2" width="1175.6" height="156.3"/>
	<line class="st3" x1="1175.6" y1="156.3" x2="0" y2="156.3"/>
</g>
<rect x="-120.8" y="-404.8" class="st4" width="1423.8" height="1423.8"/>
<line class="st5" x1="11.8" y1="490.2" x2="1163.8" y2="490.2"/>
<path class="st1" d="M815.7,33.2H0v91.4h815.7c25.2,0,45.7-20.5,45.7-45.7S840.9,33.2,815.7,33.2z"/>
<g>
	<path class="st6" d="M1151.1,78.9c0-24.4-19.8-44.2-44.1-44.3v0h-0.2H993h-0.2v0c-24.3,0.1-44.1,19.9-44.1,44.3
		s19.8,44.2,44.1,44.3v0h0.2h113.9h0.2v0C1131.4,123.1,1151.1,103.3,1151.1,78.9z"/>
	<path class="st7" d="M1113.8,73.5h-2.7v-6.8c0-2.7-2.2-4.9-4.9-4.9h-8v-1.9c0-3.7-3.1-6.8-6.8-6.8l0,0c-3.7,0-6.8,3.1-6.8,6.8v1.9
		h-8c-2.7,0-4.9,2.2-4.9,4.9v8h2.8c3.7,0,6.8,3.1,6.8,6.8c0,3.7-3.1,6.8-6.8,6.8h-2.8v8c0,2.7,2.2,4.9,4.9,4.9h8v-1.9
		c0-3.7,3.1-6.8,6.8-6.8s6.8,3.1,6.8,6.8v1.9h8c2.7,0,4.9-2.2,4.9-4.9V87h2.7c3.7,0,6.8-3.1,6.8-6.8S1117.5,73.5,1113.8,73.5z"/>
	<radialGradient id="SVGID_1_" cx="993.7692" cy="79.2817" r="44.8202" gradientUnits="userSpaceOnUse">
		<stop  offset="0" style="stop-color:#BFEEFF"/>
		<stop  offset="1" style="stop-color:#FFFFFF"/>
	</radialGradient>
	<circle class="st8" cx="993.8" cy="79.3" r="44.8"/>
	<g>
		<g transform="matrix( 2.25787353515625, 0, 0, 2.25787353515625, 0.05,0.05) ">
			<g transform="matrix( 1, 0, 0, 1, 0,0) ">
				<g>
					<g id="___1_0_Layer0_0_FILL_00000031929891247338389000000012870922703916273563_">
						<path class="st9" d="M427.7,23.6v23.3H451V23.6H427.7z"/>
					</g>
				</g>
			</g>
			<g transform="matrix( 1, 0, 0, 1, 0,0) ">
				<g>
					<g id="___1_0_Layer0_1_MEMBER_0_MEMBER_0_FILL_00000000214555125289965190000011452508861353486998_">
						<path class="st10" d="M437.9,44.6C437.9,44.6,437.9,44.6,437.9,44.6C437.9,44.7,437.9,44.7,437.9,44.6
							C438,44.6,438,44.6,437.9,44.6 M440.6,25.9C440.6,25.9,440.7,25.9,440.6,25.9C440.7,25.9,440.7,25.9,440.6,25.9
							C440.7,25.9,440.7,25.9,440.6,25.9C440.7,25.9,440.6,25.9,440.6,25.9 M449,30.1c-0.1-0.5-0.3-1-0.6-1.5
							c-0.5-0.9-1.2-1.7-2.2-2.3c-1-0.6-2-0.9-3.1-0.9c-0.5,0-1.1,0-1.6,0.2c-0.1,0-0.2,0.1-0.3,0.1c0,0-0.1,0.1-0.3,0.1
							c-0.1,0-0.2,0.1-0.2,0.1c0,0-0.1,0-0.1,0c-0.1,0-0.1,0-0.1,0c0,0-0.1,0-0.2,0.1c-0.1,0.1-0.2,0.1-0.3,0.2
							c-0.4,0.3-0.8,0.6-1.2,0.9c-0.4,0.4-0.7,0.8-0.9,1.2c-0.5,0.9-0.7,1.8-0.7,2.9c0,1,0.2,2,0.6,2.9c0.1,0.3,0.4,0.8,0.7,1.4
							c0.3,0.6,0.5,1.1,0.7,1.4l0.2,0.4c0,0,0,0.1,0.1,0.3c0,0.1,0.1,0.2,0.1,0.3c0,0.2,0.1,0.3,0.1,0.6l0,0.1c0,0.1,0,0.2,0,0.3
							c0,0.2,0,0.4,0,0.6c0,0,0,0.1,0,0.2c0,0,0,0.1,0,0.1c0,0,0,0.1,0,0.2c0,0.2-0.1,0.4-0.2,0.6c-0.1,0.2-0.1,0.3-0.1,0.3
							l-0.1,0.1c-0.1,0.2-0.2,0.4-0.3,0.6c-0.1,0.1-0.1,0.2-0.2,0.2l0,0l-0.1,0.1c-0.2,0.2-0.3,0.3-0.5,0.5l0,0c0,0-0.1,0.1-0.1,0.1
							c-0.1,0.1-0.2,0.1-0.3,0.2c-0.1,0.1-0.2,0.1-0.3,0.1l-0.2,0.1l0.1,0c-0.1,0-0.1,0-0.1,0.1c0,0,0,0-0.1,0c0,0-0.1,0-0.1,0
							c0,0-0.1,0-0.2,0.1c-0.1,0-0.2,0.1-0.4,0.1c-0.1,0-0.2,0-0.3,0.1c0,0-0.1,0-0.1,0c-0.1,0-0.1,0-0.1,0c-0.3,0-0.5,0-0.7,0
							c-0.1,0-0.1,0-0.2,0c0,0-0.1,0-0.1,0c0.1,0,0.1,0,0,0c-0.1,0-0.1,0,0,0c0,0,0,0,0,0c0,0,0,0-0.1,0l-0.2,0
							c-0.2,0-0.5-0.1-0.7-0.2c0,0-0.1,0-0.1-0.1c0,0-0.1-0.1-0.2-0.1c-0.1,0-0.2-0.1-0.2-0.1c-0.2-0.1-0.4-0.2-0.6-0.4
							c-0.1,0-0.1-0.1-0.1-0.1l0,0c-0.1-0.1-0.2-0.1-0.3-0.3c-0.1,0-0.1-0.1-0.2-0.2c0,0-0.1-0.1-0.1-0.1c0-0.1-0.1-0.1-0.1-0.1l0,0
							l-0.1-0.1c-0.1-0.1-0.1-0.2-0.2-0.3c-0.1-0.1-0.1-0.2-0.2-0.3c0,0,0,0,0,0c0,0,0,0,0-0.1c0-0.1,0-0.1,0,0l0,0.1c0,0,0,0,0,0
							c0,0,0-0.1,0-0.1c0-0.1,0-0.1,0-0.1c-0.1-0.2-0.2-0.5-0.2-0.7c0-0.1,0-0.2-0.1-0.3c0,0,0,0,0,0l0,0l0-0.2c0-0.3,0-0.5,0-0.7
							l0-0.2c0,0,0,0,0,0c0-0.1,0-0.1,0-0.1c0,0,0-0.1,0-0.2c0-0.2,0.1-0.4,0.2-0.7l0.1-0.2c0,0,0-0.1,0.1-0.1
							c0-0.1,0.1-0.1,0.1-0.2c0.1-0.2,0.2-0.4,0.3-0.6l0.1-0.1l0,0c0.1-0.1,0.2-0.2,0.2-0.2c0.2-0.2,0.3-0.3,0.5-0.5l0.1-0.1
							c0,0,0,0,0,0c0.1-0.1,0.2-0.1,0.3-0.2c0.2-0.1,0.4-0.2,0.6-0.3c0,0,0,0,0,0c0,0,0,0,0,0c0,0,0,0,0.1,0c0,0,0,0,0.1,0
							c0.2-0.1,0.3-0.1,0.3-0.1c0.1,0,0.2-0.1,0.3-0.1c0,0,0.1,0,0.2,0c0,0,0.1,0,0.1,0c0,0,0,0,0,0c-0.1,0,0,0,0,0c0.1,0,0.1,0,0,0
							c0,0,0.1,0,0.1,0l0.2,0c0.1,0,0.3,0,0.4,0c0.2,0,0.5-0.1,0.7-0.3c0.2-0.2,0.3-0.4,0.3-0.7c0-0.3-0.1-0.5-0.3-0.6
							c-0.2-0.2-0.4-0.3-0.6-0.3c-1.1,0-2.1,0.3-3,0.8c-0.9,0.5-1.7,1.3-2.2,2.2c-0.3,0.4-0.5,0.9-0.6,1.4c-0.2,0.5-0.2,1-0.3,1.5
							c0,0.5,0,1.1,0.2,1.6c0.1,0.5,0.3,1,0.6,1.5c0.5,0.9,1.2,1.7,2.2,2.3c1,0.6,2,0.9,3.1,0.9c0.5,0,1.1,0,1.6-0.2
							c0.1,0,0.2-0.1,0.3-0.1c0.1,0,0.1-0.1,0.3-0.1c0.1,0,0.2-0.1,0.2-0.1c0,0,0.1,0,0.1,0c0.1,0,0.1,0,0.1-0.1l0.1-0.1
							c0.1-0.1,0.2-0.1,0.3-0.2c0.4-0.3,0.8-0.6,1.2-0.9c0.4-0.4,0.6-0.8,0.9-1.2c0.4-0.9,0.7-1.8,0.7-2.8c0-1-0.1-1.9-0.5-2.8
							c-0.2-0.4-0.4-0.9-0.6-1.4c-0.3-0.6-0.5-1.1-0.7-1.4c-0.1-0.2-0.2-0.4-0.3-0.6c0,0,0,0,0,0l-0.1-0.1c0-0.1-0.1-0.2-0.1-0.3
							c-0.1-0.2-0.1-0.4-0.2-0.6l0-0.1c0,0,0-0.1,0-0.1c0-0.1,0-0.1,0-0.2c0-0.2,0-0.4,0-0.7c0-0.1,0-0.2,0-0.3c0,0,0-0.1,0-0.2
							c0-0.2,0.1-0.4,0.1-0.6c0-0.1,0.1-0.2,0.1-0.3l0.1-0.1c0.1-0.2,0.2-0.4,0.3-0.6c0-0.1,0.1-0.1,0.2-0.2c0,0,0,0,0,0
							c0-0.1,0.1-0.1,0.1-0.1c0.1-0.2,0.3-0.3,0.5-0.5l0,0c0,0,0,0,0,0c0,0,0,0-0.1,0l0.1-0.1c0,0,0,0,0,0c0,0,0.1,0,0.1-0.1
							c0.1-0.1,0.2-0.1,0.3-0.2c0.1-0.1,0.2-0.1,0.3-0.2l0.2-0.1c0.1,0,0,0-0.1,0c0.1,0,0.2-0.1,0.3-0.1c0,0,0,0-0.1,0l0,0
							c0,0,0,0,0.1,0c0,0,0.1,0,0.2-0.1c0.1,0,0.2-0.1,0.4-0.1c0.1,0,0.2,0,0.3-0.1c0,0,0.1,0,0.1,0c0.1,0,0.1,0,0.1,0
							c0.3,0,0.5,0,0.7,0c0.1,0,0.1,0,0.2,0c0,0,0,0,0.1,0c0,0,0,0,0,0c0,0,0,0,0,0l0.2,0c0.2,0,0.5,0.1,0.7,0.2c0,0,0.1,0,0.1,0.1
							c0,0,0.1,0.1,0.2,0.1c0.1,0,0.2,0.1,0.2,0.1c0.2,0.1,0.4,0.2,0.6,0.4c0.1,0,0.1,0.1,0.1,0.1l0,0c0,0,0.1,0.1,0.3,0.3
							c0.1,0,0.1,0.1,0.2,0.2c0,0,0.1,0.1,0.1,0.1c0,0.1,0.1,0.1,0.1,0.1l0,0l0.1,0.1c0.1,0.1,0.1,0.2,0.2,0.3
							c0.1,0.1,0.1,0.2,0.2,0.3c0,0,0,0.1,0.1,0.2c0.1,0.2,0.2,0.5,0.2,0.7c0,0.1,0,0.2,0.1,0.3c0,0,0,0,0,0v0l0,0.2
							c0,0.3,0,0.5,0,0.7l0,0.2c0,0,0,0,0,0c0,0,0,0,0,0c0,0.1,0,0.1,0,0.1c0,0,0,0.1,0,0.2c0,0.2-0.1,0.4-0.2,0.7l-0.1,0.2
							c0,0,0,0.1-0.1,0.1c0,0.1-0.1,0.1-0.1,0.2c-0.1,0.2-0.2,0.4-0.3,0.6l-0.1,0.1l0,0c-0.1,0.1-0.2,0.2-0.2,0.2
							c-0.2,0.2-0.3,0.3-0.5,0.5l-0.1,0.1c0,0,0,0,0,0c-0.1,0.1-0.2,0.2-0.3,0.2c-0.2,0.1-0.4,0.2-0.6,0.3c0,0,0,0,0,0c0,0,0,0,0,0
							c0,0,0,0-0.1,0c0,0-0.1,0-0.1,0c-0.2,0.1-0.3,0.1-0.3,0.1c-0.1,0-0.2,0.1-0.3,0.1l-0.2,0c0,0,0,0-0.1,0h0c0,0,0,0-0.1,0
							l-0.2,0c-0.1,0-0.2,0-0.4,0c-0.2,0-0.5,0.1-0.7,0.3c-0.2,0.2-0.3,0.4-0.3,0.6c0,0.3,0.1,0.5,0.3,0.7c0.2,0.2,0.4,0.3,0.6,0.3
							c1.1,0,2.1-0.3,3-0.8c0.9-0.5,1.7-1.3,2.2-2.2c0.3-0.4,0.5-0.9,0.6-1.4c0.2-0.5,0.2-1,0.3-1.5C449.2,31.2,449.1,30.7,449,30.1
							 M443.5,27.3L443.5,27.3C443.5,27.3,443.5,27.3,443.5,27.3C443.5,27.3,443.5,27.3,443.5,27.3 M447.3,32.1
							C447.3,32.1,447.3,32.1,447.3,32.1L447.3,32.1C447.3,32.1,447.3,32.1,447.3,32.1z"/>
					</g>
				</g>
			</g>
		</g>
	</g>
</g>
<g>
	<path class="st11" d="M677.5,405H31.6c-5.2,0-9.4-4.2-9.4-9.4v-90.2c0-5.2,4.2-9.4,9.4-9.4h645.9c5.2,0,9.4,4.2,9.4,9.4v90.2
		C687,400.8,682.7,405,677.5,405z"/>
</g>
<g>
	<path class="st12" d="M283.9,396.6H38.8c-4.7,0-8.6-3.8-8.6-8.6v-75c0-4.7,3.8-8.6,8.6-8.6h245.1c4.7,0,8.6,3.8,8.6,8.6v75
		C292.4,392.7,288.6,396.6,283.9,396.6z"/>
</g>
<g>
	<g>
		<g transform="matrix( 2.25787353515625, 0, 0, 2.25787353515625, 0.05,0.05) ">
			<g transform="matrix( 1, 0, 0, 1, 0,0) ">
				<g>
					<g id="___1_0_Layer0_0_FILL_00000088814169689341313350000002117811167353645191_">
						<path class="st9" d="M310.2,58.3v198h152.9v-198H310.2z"/>
					</g>
				</g>
			</g>
			<g transform="matrix( 1, 0, 0, 1, 0,0) ">
				<g>
					<g id="___1_0_Layer0_1_MEMBER_0_MEMBER_0_FILL_00000109018666066774425450000003808241465055912078_">
						<path class="st10" d="M377.7,196.1c-0.1,0.1-0.2,0.1-0.3,0.2c-0.3,0.2-0.1,0.1,0.6-0.3C377.9,196.1,377.8,196.1,377.7,196.1
							 M395.3,73.3c0.1,0,0.3-0.1,0.4-0.1c0.1-0.1,0.1-0.1,0.2-0.2c0.1-0.1,0.1-0.1-0.1,0C395.5,73.2,395.3,73.3,395.3,73.3
							 M450.2,101.1c-0.8-3.4-2.1-6.8-3.8-10c-3.3-6.2-8.2-11.2-14.6-15.1c-6.3-3.7-13-5.7-20.2-5.9c-3.6-0.1-7.2,0.3-10.7,1.2
							c-0.9,0.2-1.5,0.4-2,0.6c-0.3,0.1-0.9,0.3-1.7,0.7c-0.5,0.2-1,0.4-1.4,0.5c-0.2,0.1-0.4,0.2-0.6,0.3c-0.4,0.1-0.8,0.2-1,0.3
							c-0.2,0.1-0.6,0.2-1,0.5c-0.9,0.4-1.6,0.8-2.2,1.2c-2.9,1.7-5.6,3.7-8,6.2c-2.4,2.5-4.4,5.2-5.9,8.1c-3,5.8-4.5,12.1-4.6,18.8
							c0,6.6,1.3,12.9,4.1,19c1,2.2,2.4,5.2,4.4,9.2c2,4.2,3.5,7.2,4.4,9.2l1.1,2.5c0.1,0.2,0.3,0.8,0.6,1.7
							c0.3,0.7,0.5,1.3,0.6,1.8c0.3,1,0.5,2.2,0.8,3.7l0.1,0.7c0.1,0.9,0.1,1.6,0.1,2.1c0.1,1.4,0,2.8-0.1,4.2c0,0.2,0,0.5-0.1,1
							c0,0.3-0.1,0.5-0.1,0.7c0,0.3-0.1,0.7-0.2,1.2c-0.3,1.5-0.6,2.8-1,4c-0.3,1-0.6,1.7-0.7,2l-0.4,0.9c-0.6,1.3-1.3,2.6-2,3.8
							c-0.5,0.7-0.8,1.2-1.1,1.6l-0.1,0.1l-0.6,0.7c-1.1,1.2-2.1,2.3-3.1,3.1l-0.2,0.2c-0.3,0.2-0.5,0.3-0.5,0.4
							c-0.6,0.4-1.3,0.9-2,1.3c-0.6,0.3-1.2,0.7-1.8,1l-1.1,0.5l0.6-0.3c-0.3,0.2-0.7,0.3-1,0.4c-0.1,0-0.2,0.1-0.4,0.1
							c-0.2,0.1-0.4,0.2-0.5,0.2c-0.2,0.1-0.6,0.2-1,0.4c-0.7,0.2-1.5,0.5-2.4,0.7c-0.5,0.1-1.2,0.3-2.1,0.4c-0.2,0-0.4,0-0.6,0.1
							c-0.4,0-0.6,0.1-0.7,0.1c-1.7,0.1-3.2,0.1-4.6,0c-0.5,0-1-0.1-1.2-0.1c-0.3,0-0.5-0.1-0.6-0.1c0.8,0.1,0.8,0.1,0.2,0.1
							c-0.4-0.1-0.5-0.1-0.3-0.1c0,0,0,0,0.1,0c-0.1,0-0.2,0-0.4-0.1l-1.2-0.2c-1.5-0.3-3-0.7-4.6-1.3c-0.3-0.1-0.6-0.2-0.9-0.3
							c-0.3-0.2-0.6-0.3-1-0.5c-0.7-0.3-1.1-0.5-1.1-0.5c-1.4-0.7-2.7-1.5-4.1-2.5c-0.4-0.3-0.7-0.5-0.8-0.6l-0.1-0.1
							c-0.5-0.4-1.2-1-1.9-1.6c-0.3-0.3-0.8-0.8-1.5-1.5c-0.1-0.1-0.4-0.4-0.8-1c-0.3-0.4-0.6-0.7-0.8-0.9l-0.1-0.1l-0.6-0.9
							c-0.5-0.8-0.9-1.5-1.3-2.1c-0.3-0.6-0.7-1.3-1-2c0,0,0,0,0,0.1c0,0-0.1-0.2-0.2-0.5c-0.2-0.3-0.2-0.4,0-0.1l0.2,0.5
							c0,0,0,0.1,0,0.1c0-0.2-0.1-0.4-0.2-0.6c-0.2-0.4-0.2-0.6-0.3-0.7c-0.6-1.6-1.1-3.1-1.4-4.5c-0.1-0.5-0.3-1.3-0.5-2.2
							c0,0,0,0,0-0.1l0,0l-0.1-1.1c-0.1-1.7-0.1-3.2,0-4.6l0.1-1c0,0,0-0.1,0-0.2c0.1-0.4,0.1-0.6,0.1-0.7c0-0.3,0.1-0.7,0.2-1.2
							c0.3-1.3,0.7-2.8,1.2-4.4l0.4-1.1c0.1-0.2,0.3-0.5,0.4-0.9c0.2-0.5,0.4-0.9,0.5-1.1c0.7-1.4,1.5-2.7,2.2-3.8l0.7-1l0.1-0.1
							c0.6-0.7,1-1.2,1.3-1.6c1-1.1,2.1-2.2,3.3-3.2l0.8-0.6c0,0,0,0,0,0c0.8-0.6,1.3-1,1.8-1.2c1.2-0.8,2.6-1.5,4-2.2c0,0,0,0,0,0
							c0,0,0,0,0,0c0.1-0.1,0.3-0.1,0.4-0.1c0.1-0.1,0.3-0.1,0.5-0.2c1-0.4,1.8-0.6,2.3-0.8c0.8-0.2,1.5-0.4,2.2-0.5
							c0.2-0.1,0.6-0.1,1-0.2c0.2,0,0.3,0,0.5-0.1c-0.1,0-0.2,0-0.3,0c-0.3,0-0.3,0,0.2,0c0.6-0.1,0.6-0.1,0.1,0
							c0.2,0,0.4,0,0.6-0.1l1.1-0.1c0.9-0.1,1.8-0.1,2.5-0.1c1.6,0,3-0.6,4.3-1.8c1.3-1.2,1.9-2.7,1.8-4.3c-0.1-1.7-0.7-3.1-1.8-4.3
							c-1.2-1.2-2.6-1.8-4.2-1.8c-7-0.1-13.6,1.7-19.8,5.3c-6.1,3.5-11,8.3-14.7,14.3c-1.8,2.9-3.2,6.1-4.2,9.4
							c-1,3.3-1.6,6.7-1.7,10.2c-0.1,3.5,0.2,7,1.1,10.6c0.8,3.4,2.1,6.8,3.8,10c3.3,6.2,8.2,11.3,14.6,15.1
							c6.3,3.7,13,5.7,20.2,5.9c3.6,0.1,7.1-0.3,10.7-1.2c0.9-0.2,1.5-0.4,2-0.6c0.3-0.1,0.9-0.3,1.7-0.7c0.6-0.3,1-0.5,1.4-0.6
							c0.2-0.1,0.4-0.2,0.6-0.2c0.5-0.2,0.8-0.3,0.9-0.4l1-0.4c0.8-0.4,1.5-0.8,2.2-1.1c2.8-1.7,5.4-3.7,7.8-6.2
							c2.3-2.4,4.2-5.1,5.7-8.1c2.9-5.7,4.5-11.7,4.7-18.2c0.3-6.5-0.8-12.6-3.3-18.4c-1.1-2.6-2.5-5.6-4.1-9c-1.9-4-3.4-7-4.4-8.9
							c-0.8-1.6-1.4-2.8-1.8-3.7c0,0,0,0,0,0l-0.4-0.9c-0.2-0.6-0.5-1.3-0.7-2.1c-0.4-1.5-0.8-2.9-1-4.2l-0.1-0.8
							c0-0.2,0-0.5-0.1-0.9c-0.1-0.5-0.1-0.9-0.1-1.1c-0.1-1.4-0.1-2.8,0-4.3c0-0.7,0.1-1.4,0.1-2c0.1-0.3,0.1-0.6,0.1-1
							c0.2-1.4,0.6-2.7,1-4c0.1-0.4,0.4-1.1,0.7-2l0.4-0.9c0.7-1.5,1.4-2.7,2.1-3.8c0.3-0.5,0.6-1,1-1.5c0,0,0,0,0,0
							c0.3-0.4,0.6-0.7,0.8-0.9c0.9-1,2-2,3.2-3.1l0.2-0.1c0,0,0.1,0,0.1-0.1c-0.2,0.1-0.3,0.2-0.4,0.3l0.6-0.4c0,0-0.1,0.1-0.1,0.1
							c0.2-0.1,0.3-0.2,0.5-0.4c0.8-0.5,1.4-0.9,2.1-1.3c0.7-0.4,1.4-0.7,1.9-1l1.2-0.5c0.4-0.2,0.2-0.1-0.6,0.2
							c0.6-0.3,1.2-0.5,1.7-0.7c-0.1,0-0.3,0.1-0.5,0.2l0.1-0.1c0.1,0,0.3-0.1,0.5-0.2c0.2-0.1,0.6-0.2,1-0.4
							c0.7-0.2,1.5-0.5,2.4-0.7c0.5-0.1,1.2-0.3,2.1-0.4c0.2,0,0.4,0,0.6,0c0.4-0.1,0.6-0.1,0.7-0.1c1.7-0.1,3.2-0.1,4.6,0
							c0.5,0,1,0.1,1.2,0.1c0.1,0,0.3,0,0.7,0.1c0,0,0.1,0,0.1,0c0.1,0,0.2,0,0.2,0l1.2,0.2c1.5,0.3,3,0.7,4.6,1.3
							c0.3,0.1,0.6,0.2,0.9,0.3c0.3,0.2,0.6,0.3,1,0.5c0.7,0.3,1.1,0.5,1.1,0.5c1.4,0.7,2.7,1.5,4.1,2.5c0.4,0.3,0.7,0.5,0.8,0.6
							l0.1,0.1c0.3,0.2,0.9,0.8,1.9,1.6c0.3,0.3,0.8,0.8,1.5,1.5c0.1,0.1,0.4,0.4,0.8,1c0.3,0.4,0.6,0.7,0.8,0.9l0,0l0.6,0.9
							c0.5,0.8,0.9,1.5,1.3,2.1c0.3,0.6,0.7,1.3,1,2c0.1,0.3,0.3,0.7,0.5,1.3c0.6,1.6,1.1,3.1,1.4,4.5c0.1,0.5,0.3,1.3,0.5,2.2
							c0,0,0,0,0,0v0l0.1,1.1c0.1,1.7,0.1,3.2,0,4.6l-0.1,1c0,0,0,0.1,0,0.1c0,0,0,0.1,0,0.1c-0.1,0.4-0.1,0.6-0.1,0.7
							c0,0.3-0.1,0.7-0.2,1.2c-0.3,1.3-0.7,2.8-1.2,4.4l-0.4,1c-0.1,0.2-0.3,0.5-0.4,0.9c-0.2,0.5-0.4,0.9-0.5,1.1
							c-0.7,1.3-1.4,2.5-2.2,3.8l-0.7,1l-0.1,0.1c-0.6,0.7-1,1.2-1.3,1.6c-1,1.1-2.1,2.2-3.3,3.2l-0.7,0.6c0,0,0,0,0,0
							c-0.8,0.6-1.4,1-1.8,1.2c-1.2,0.8-2.6,1.5-4,2.2c0,0,0,0,0,0c0,0,0,0,0,0c-0.1,0.1-0.3,0.1-0.4,0.2c-0.2,0.1-0.4,0.2-0.5,0.2
							c-1,0.4-1.8,0.6-2.3,0.8c-0.8,0.2-1.5,0.4-2.2,0.5l-1,0.2c-0.1,0-0.3,0-0.6,0.1h-0.1c-0.2,0-0.3,0-0.4,0l-1.1,0.1
							c-0.6,0-1.4,0.1-2.5,0.1c-1.6,0-3,0.6-4.3,1.8c-1.3,1.2-1.9,2.7-1.8,4.3c0,1.7,0.6,3.2,1.8,4.3c1.2,1.2,2.6,1.8,4.2,1.8
							c7,0.1,13.6-1.7,19.8-5.3c6.1-3.5,11-8.3,14.7-14.3c1.8-2.9,3.2-6.1,4.2-9.4c1-3.3,1.6-6.7,1.7-10.2
							C451.4,108.2,451,104.7,450.2,101.1 M414.2,82.4l0.2,0c-0.1,0-0.2,0-0.4-0.1C414.1,82.3,414.2,82.3,414.2,82.4 M439,113.8
							c0,0.1,0,0.1,0,0.2L439,113.8C439,113.8,439,113.8,439,113.8z"/>
					</g>
				</g>
			</g>
		</g>
		<g transform="matrix( 1, 0, 0, 1, 797.6,679.7) ">
			<g transform="matrix( 1, 0, 0, 1, 0,0) ">
				<g>
					<g id="___2_0_Layer0_0_FILL_00000095313941905234514470000001795560131767483293_">
						<path class="st9" d="M138.3-361.3c-2.3-2.3-5.1-3.5-8.4-3.5c-3.3,0-6.1,1.2-8.4,3.5c-2.3,2.3-3.5,5.1-3.5,8.4
							c0,3.3,1.2,6.1,3.5,8.4c2.3,2.3,5.1,3.5,8.4,3.5c3.3,0,6.1-1.2,8.4-3.5c2.3-2.3,3.5-5.1,3.5-8.4
							C141.8-356.2,140.6-359,138.3-361.3z"/>
					</g>
				</g>
			</g>
		</g>
	</g>
	<g>
		<rect x="727" y="498.1" class="st13" width="292" height="51.4"/>
		<g>
			<path class="st9" d="M823.6,512.3h20.3h1.4h1.4v10.6v1.4v1.4h-19.4v8.7c0,0.9,0.5,1.4,1.5,1.4h17c1,0,1.5-0.5,1.5-1.6v-3.8
				l2.8,0.6v4c0,2.4-1.1,3.6-3.4,3.6H828c-2.4,0-3.6-1.2-3.6-3.6v-15.5h2.8v3.4h16.6v-7.8h-20.3V512.3z"/>
			<path class="st9" d="M858.3,536.5c1.7-3.2,2.5-8,2.5-14.7v-6.4v-1.2V513c4.5-0.4,8.5-0.8,12.1-1.5l1,2.6c-3,0.5-6.5,0.8-10.5,1.1
				v2.3h6.9h1.3h1.3v5.6c2.1-2.9,3.6-7,4.4-12.3l2.7,0.2c-0.3,1.6-0.7,3-1.1,4.4h8.7v2.8h-2.3v1.1c0,4.6-1.1,8.7-3.2,12.4
				c1.4,1.9,3.3,3.8,5.7,5.6l-1.9,2.2c-2.2-1.8-4-3.6-5.4-5.5c-1.5,2-3.4,3.9-5.6,5.6l-1.8-2.3v2.1h-2.6v-1.9h-4.6v1.9h-2.6v-8.5
				v-1.3v-1.3h7.2h1.3h1.3v8.8c2.3-1.7,4.2-3.5,5.7-5.6c-0.2-0.3-0.4-0.7-0.5-1c-1-2-1.8-4.6-2.4-7.9c-0.5,1-1.1,1.9-1.7,2.7
				l-1.5-1.8v1v1.2h-9.6c-0.3,5.3-1.2,9.4-2.8,12.3L858.3,536.5z M863.4,523.5h6.9v-3.4h-6.9v1.8C863.4,522.4,863.4,523,863.4,523.5
				z M866.1,535.1h4.6v-4h-4.6V535.1z M877.9,519c0.6,4.4,1.5,7.7,2.7,10.1c1.5-2.9,2.2-6.1,2.2-9.7v-1.1h-4.7
				C878,518.5,878,518.8,877.9,519z"/>
			<path class="st9" d="M898.8,512.2h20.9h1.4h1.4v24.3c0,1.8-0.9,2.8-2.8,2.8h-3.4l-0.6-2.8h2.9c0.7,0,1.1-0.3,1.1-1.1v-5.3h-7.9
				v8.7h-2.7v-8.7h-7.5c-0.3,3.9-1.4,7.1-3.1,9.7l-2.3-1.9c1.8-2.6,2.8-6.1,2.8-10.4v-5.2v-2.5v-4.8v-1.4V512.2z M901.6,519.8h7.4
				v-4.9h-7.4v4.8V519.8z M909.1,522.5h-7.4v4.9h7.4V522.5z M911.8,519.8h7.9v-4.9h-7.9V519.8z M911.8,527.4h7.9v-4.9h-7.9V527.4z"
				/>
		</g>
	</g>
</g>
<g>
	<path class="st1" d="M109.7,336.3v2.8H68.1v-2.8H109.7z M109.9,369.9v2.8H68.1v-2.8H109.9z M107.6,362.7v2.8H70.5v-2.8H107.6z
		 M70.8,330c12.1,0,23.8-0.7,35.1-2.3l1.2,2.7c-11.8,1.6-23.6,2.3-35.7,2.1L70.8,330z M72.2,342.7h3v15h-3V342.7z M105.6,356.3v2.8
		H72.2v-2.8H105.6z M104.1,342.7v2.8H73.7v-2.8H104.1z M73.7,349.2h30.4v2.6H73.7V349.2z M87.5,330.6h3v40.6h-3V330.6z M102.7,342.7
		h3v15h-3V342.7z"/>
	<path class="st1" d="M125,354.2l2.3,1.1c-2.5,5.7-6.3,10.9-11.2,15.6l-1.7-2.5C119.2,364.2,122.7,359.4,125,354.2z M137.5,352.7
		v2.8h-22.7v-2.8H137.5z M136.6,343.7v2.8h-20.9v-2.8H136.6z M136.6,331.8v2.8h-20.7v-2.8H136.6z M118.7,333.6l3-0.7l2.2,12.1h-3
		L118.7,333.6z M126.7,326.7c0.6,2.3,1,4.4,1.2,6.5l-2.9,0.1c-0.2-1.9-0.6-4.1-1.2-6.4L126.7,326.7z M124.9,345.1h3v29.2h-3V345.1z
		 M130.8,333l3,0.5l-2.2,11.6h-3L130.8,333z M130.8,359.5c2,1.9,3.8,3.8,5.3,5.7l-2.2,2.3c-1.3-2-2.9-4-4.8-6.1L130.8,359.5z
		 M139.5,333h3v19c0,8.7-1.7,16-5.1,21.9l-2.5-1.6c3-5.4,4.6-12.2,4.6-20.3V333z M155.7,328.6l1.6,2.9c-5.1,1.4-11,2.4-17.8,3.1v-3
		C145.7,330.9,151.2,329.9,155.7,328.6z M157.7,344.1v3h-16.8v-3H157.7z M150.3,345.3h3v29h-3V345.3z"/>
	<path class="st1" d="M181.1,333.3v3h-18.9v-3H181.1z M178.3,357.2v3h-14.8v-3H178.3z M163.4,358.7h3v15.6h-3V358.7z M179.3,341.7
		v2.8H164v-2.8H179.3z M179.3,349.3v2.8H164v-2.8H179.3z M178.1,367.4v3h-13.1v-3H178.1z M171.8,327.2c0.7,2.7,1.2,5.3,1.3,7.8
		l-2.9,0.1c-0.1-2.4-0.6-5-1.3-7.8L171.8,327.2z M176.8,357.2h3v16.7h-3V357.2z M205.1,341.9v3h-23.1v-3H205.1z M192.1,327h3v47.3
		h-3V327z"/>
	<path class="st1" d="M222.6,330.6v3h-11.2v-3H222.6z M211.4,332.1h3v40h-3V332.1z M223,347.6v3h-10v-3H223z M223,364v3h-10v-3H223z
		 M221.1,330.6h3v39.9h-3V330.6z M252.9,353.2v3h-27.1v-3H252.9z M252,333v3h-25.4v-3H252z M250.9,343.2v3h-23.8v-3H250.9z
		 M231.6,358.6c2.1,2.3,3.9,4.7,5.4,7l-2.7,1.4c-1.3-2.3-3.1-4.6-5.2-7L231.6,358.6z M243.8,345.3h3v24.3c0,2.8-1.4,4.2-4.2,4.2
		h-6.4l-0.8-3h6.7c1.2,0,1.7-0.6,1.7-1.7V345.3z M237.9,327h3v18.2h-3V327z"/>
</g>
<g>
	<path class="st14" d="M319.6,334v36.1h-3.5V337l1,0.2l-6,6.6l-2.2-2l7-7.7H319.6z"/>
	<path class="st14" d="M354.7,358.3v3.2h-22.2v-2.4l15.3-25.1h2.5v36.1h-3.4v-30.1l0.7,0.1l-11.8,19.2l-0.4-1.1H354.7z"/>
	<path class="st14" d="M366,343.1v5.1h-5v-5.1H366z M366,365.1v5.1h-5v-5.1H366z"/>
	<path class="st14" d="M394.3,358.3v3.2h-22.2v-2.4l15.3-25.1h2.5v36.1h-3.4v-30.1l0.7,0.1l-11.8,19.2l-0.4-1.1H394.3z"/>
	<path class="st14" d="M411.4,334v36.1h-3.5V337l1,0.2l-6,6.6l-2.2-2l7-7.7H411.4z"/>
	<path class="st14" d="M448.3,340.2l2.6,1c-2.8,6.5-6.7,12.1-11.8,16.9l-1.6-2.4C442.1,351.3,445.7,346.1,448.3,340.2z M447.1,327.2
		l2.6,1c-2.5,5.3-5.9,9.9-10.3,13.7l-1.5-2.5C441.8,336,444.9,331.9,447.1,327.2z M443.4,350.8l3-5.1v28.6h-3V350.8z M460.5,347.7
		l2.7,0.3c-2.6,5.8-6.5,11.2-11.7,16l-2.2-1.8C454.5,357.2,458.2,352.4,460.5,347.7z M473.5,356.2l2.5,0.6c-1.7,3.7-4,6.9-7.1,9.6
		c-4.5,4-10.4,6.6-17.6,7.9l-1.4-2.8c7.3-1.2,13-3.6,17.1-7.1C469.8,362.1,472,359.4,473.5,356.2z M472.2,330l2.7,1
		c-2.6,2.8-5.6,5.8-9,8.8c-3.3,3.1-7.2,6.2-11.6,9.3l-3.3-1.6c2-1,4.4-2.6,7.2-4.8c2.4-1.9,4.8-3.9,7.3-6.1
		C467.9,334.4,470.1,332.2,472.2,330z M451,347.5c7.2-0.7,15.7-1.5,25.3-2.3l0.4,2.8c-9.2,0.6-17.5,1.4-25,2.2L451,347.5z
		 M463.1,327l2.6,1c-4.2,5.3-7.8,9.1-10.8,11.3l-2.6-1.4c1.6-1,3.4-2.5,5.4-4.5C459.7,331.4,461.4,329.2,463.1,327z M452.4,337.9
		c3.9-0.4,8.5-0.8,13.7-1.3l0.4,2.5c-4.9,0.4-9.4,0.9-13.4,1.4L452.4,337.9z M457.8,356.5c4.7,7.3,12.4,12.4,23.1,15.2l-1.7,2.7
		c-11.5-3.3-19.5-9-23.9-17L457.8,356.5z M457,354.2h19v2.6h-19V354.2z M473.7,338.8c2.6,4.3,4.8,8.5,6.5,12.6l-2.7,0.9
		c-1.4-4-3.5-8.2-6.1-12.7L473.7,338.8z"/>
	<path class="st14" d="M522.3,332.4v3h-32.5v-3H522.3z M489.8,333.9h3v40.2h-3V333.9z M491.3,366.8h31v3h-31V366.8z M491.4,344h30.9
		v3h-30.9V344z M491.4,355h30.9v3h-30.9V355z M504.9,326.6l3,0.5l-2,6.8h-3L504.9,326.6z M520.8,332.4h3v41.7h-3V332.4z"/>
	<path class="st14" d="M532.9,370.4c8.4-0.5,16.2-1.2,23.4-2.2l0.3,2.4c-7.4,1.2-15.2,2.1-23.4,2.7L532.9,370.4z M556.9,336.3v2.8
		h-23.8v-2.8H556.9z M533.4,330.2c7.7-0.3,15-1.1,22-2.4l1.3,2.5c-7.4,1.4-14.9,2.2-22.6,2.4L533.4,330.2z M556.7,362.1v2.8h-22.9
		v-2.8H556.7z M534.8,342.5h3v14.2h-3V342.5z M555.6,355.3v2.8h-20.8v-2.8H555.6z M536.1,349h18.2v2.6h-18.2V349z M554.1,342.5v2.8
		h-17.8v-2.8H554.1z M543.8,330.4h3v40.3h-3V330.4z M552.7,342.5h3v14.2h-3V342.5z M562.6,327.3h3v16.4c0,12.5-2.5,22.7-7.4,30.6
		l-2.5-1.9c4.6-7.2,6.9-16.8,6.9-28.7V327.3z M558.7,336.8h14.2v3h-14.2V336.8z M571.4,336.8h3v27.9c0,2.1-0.1,3.8-0.4,5
		c-0.2,1.3-0.8,2.3-1.6,3c-0.8,0.7-2.2,1.1-4,1.1h-3.5l-0.8-3h3.9c1.2,0,2.1-0.3,2.5-0.9c0.4-0.6,0.7-1.3,0.8-2.2
		c0.1-0.9,0.1-2.2,0.1-4V336.8z"/>
	<path class="st14" d="M597.1,331.2l2.7,0.9c-1.5,4.6-3.9,8.5-7.2,11.6c-3.3,3.1-7.2,5.6-11.5,7.6l-1.5-2.5
		c4.4-1.9,8.1-4.3,11.1-7.1C593.6,338.8,595.8,335.3,597.1,331.2z M622,369.5v2.8h-40.5v-2.8H622z M584.2,335.8
		c2.9,2.3,5.5,4.6,7.7,6.9l-2.3,1.8c-2-2.4-4.5-4.7-7.5-7L584.2,335.8z M582.5,329.3h17.4v2.8h-17.4V329.3z M587.7,348.9h3v12.4h-3
		V348.9z M615.7,359.9v2.8h-28v-2.8H615.7z M614.2,348.9v2.8h-25.1v-2.8H614.2z M591.1,361.4l3-0.7l3.2,9.9h-3L591.1,361.4z
		 M610.1,341.7v2.8h-16.5v-2.8H610.1z M602.9,327.8l2.7-0.6c1.8,5.4,4,9.7,6.6,12.8c2.5,3.1,6.4,6,11.5,8.5l-1.9,2.6
		c-5.3-2.8-9.3-6-12-9.4C607,338.2,604.7,333.5,602.9,327.8z M609.2,360.8l3,0.5l-3.8,9.4h-3L609.2,360.8z M617.4,329.3
		c-2.7,2.5-5.7,4.8-9.1,7.1l-1.9-1.9c2.8-1.9,5.8-4.4,8.9-7.2L617.4,329.3z M622.5,336.3c-2.7,2.5-5.8,4.9-9.3,7.2l-1.9-1.9
		c2.9-1.9,5.9-4.4,9.1-7.3L622.5,336.3z M612.7,348.9h3v12.4h-3V348.9z"/>
	<path class="st14" d="M630.9,353.9h3v14.4h-3V353.9z M665.9,366.8v3h-35v-3H665.9z M632.1,330.6h3v15.4h-3V330.6z M664.5,344.6v3
		h-32.3v-3H664.5z M647.7,327.1h3v41.5h-3V327.1z M663,330.6h3v16.9h-3V330.6z M664.2,353.9h3v20.4h-3V353.9z"/>
</g>
</svg>
