<?xml version="1.0" encoding="utf-8"?>
<!-- Generator: Adobe Illustrator 28.0.0, SVG Export Plug-In . SVG Version: 6.00 Build 0)  -->
<svg version="1.1" id="圖層_1" xmlns="http://www.w3.org/2000/svg" xmlns:xlink="http://www.w3.org/1999/xlink" x="0px" y="0px"
	 viewBox="0 0 1175.6 614.3" style="enable-background:new 0 0 1175.6 614.3;" xml:space="preserve">
<style type="text/css">
	.st0{clip-path:url(#SVGID_00000070104141660036033740000002997771474722302354_);}
	.st1{fill:#0E1116;}
	.st2{display:none;opacity:0.34;}
	.st3{display:inline;}
	.st4{clip-path:url(#SVGID_00000005960898503722193990000006437318800435369603_);fill:#FFFFFF;}
	.st5{clip-path:url(#SVGID_00000088120872726162058390000003355573226851790262_);fill:#FFFFFF;}
	.st6{clip-path:url(#SVGID_00000128452836552454247320000012440034966016748420_);fill:#FEFEFE;}
	.st7{clip-path:url(#SVGID_00000102510312017223039170000016375852484182761912_);fill:#FDFDFD;}
	.st8{clip-path:url(#SVGID_00000044164490390970861580000004962759708072934033_);fill:#FCFCFC;}
	.st9{clip-path:url(#SVGID_00000132766889754251162820000001068603894921851533_);fill:#FBFBFB;}
	.st10{clip-path:url(#SVGID_00000044861731492524458320000008822934652299934881_);fill:#FAFAFA;}
	.st11{clip-path:url(#SVGID_00000078004509708844484380000016749455212051832464_);fill:#F9F9F9;}
	.st12{clip-path:url(#SVGID_00000131353158700566728860000000027511238816387220_);fill:#F8F8F8;}
	.st13{clip-path:url(#SVGID_00000026855130685207653930000015368218068291411118_);fill:#F7F7F7;}
	.st14{clip-path:url(#SVGID_00000097465903755016304420000010139741810223364780_);fill:#F6F6F6;}
	.st15{clip-path:url(#SVGID_00000148643627785982035150000004508098516771944595_);fill:#F4F4F4;}
	.st16{clip-path:url(#SVGID_00000145754430694919359480000014225532533545506981_);fill:#F3F3F3;}
	.st17{clip-path:url(#SVGID_00000134210080865488800270000016139326832192316308_);fill:#F2F2F2;}
	.st18{clip-path:url(#SVGID_00000000916289357708886500000013694055581691442089_);fill:#F1F1F1;}
	.st19{clip-path:url(#SVGID_00000042002473868983289950000002781403848966481075_);fill:#F0F0F0;}
	.st20{clip-path:url(#SVGID_00000111174001420347878270000015850536765627812280_);fill:#EFEFEF;}
	.st21{clip-path:url(#SVGID_00000057863398666048637690000014732001184792358805_);fill:#EEEEEE;}
	.st22{clip-path:url(#SVGID_00000170980469516457692140000014750744530707743912_);fill:#EDEDED;}
	.st23{clip-path:url(#SVGID_00000117667743987411220910000005074237602131144860_);fill:#ECECEC;}
	.st24{clip-path:url(#SVGID_00000150086899460006328210000012829934604264278658_);fill:#EBEBEB;}
	.st25{clip-path:url(#SVGID_00000035496979754476196680000000398132448564790705_);fill:#EBEBEB;}
	.st26{fill:#171B21;}
	.st27{display:none;fill:#E2E2E2;}
	.st28{fill:none;}
	.st29{fill:#111111;}
	.st30{fill:#FFFFFF;}
	.st31{display:none;}
	.st32{fill:#477FEF;}
	.st33{enable-background:new    ;}
	.st34{fill:#A0A0A0;}
	.st35{fill:#212121;}
	.st36{fill:none;stroke:#5B5B5B;stroke-miterlimit:10;}
	.st37{fill:#F7F7F7;}
	.st38{fill:#7E858F;}
	.st39{clip-path:url(#SVGID_00000078765347993575354850000016268937646924010666_);}
	.st40{fill:#063B31;}
	.st41{fill:#5DCEBA;}
	.st42{fill:#3B9484;}
	.st43{fill:#599156;}
</style>
<g>
	<g>
		<defs>
			<path id="SVGID_1_" d="M1161.8,614.3H13.8c-7.6,0-13.8-6.2-13.8-13.8V13.8C0,6.2,6.2,0,13.8,0h1148c7.6,0,13.8,6.2,13.8,13.8
				v586.7C1175.6,608.1,1169.4,614.3,1161.8,614.3z"/>
		</defs>
		<clipPath id="SVGID_00000088845241288643468060000007848972471716404122_">
			<use xlink:href="#SVGID_1_"  style="overflow:visible;"/>
		</clipPath>
		<g style="clip-path:url(#SVGID_00000088845241288643468060000007848972471716404122_);">
			<rect class="st1" width="1175.6" height="614.3"/>
			<g class="st2">
				<g class="st3">
					<g>
						<g>
							<defs>
								<rect id="SVGID_00000110435819169326176450000006643120901723884981_" y="155.8" width="1175.6" height="15"/>
							</defs>
							<clipPath id="SVGID_00000070836257635609410330000005837439853793227424_">
								<use xlink:href="#SVGID_00000110435819169326176450000006643120901723884981_"  style="overflow:visible;"/>
							</clipPath>
							<path style="clip-path:url(#SVGID_00000070836257635609410330000005837439853793227424_);fill:#FFFFFF;" d="M0,170.8h1175.6
								H0z"/>
						</g>
						<g>
							<defs>
								<rect id="SVGID_00000103264175555292160030000010976032703338455449_" y="155.8" width="1175.6" height="15"/>
							</defs>
							<clipPath id="SVGID_00000095320739130249165880000015426900141130003845_">
								<use xlink:href="#SVGID_00000103264175555292160030000010976032703338455449_"  style="overflow:visible;"/>
							</clipPath>
							
								<rect y="170.1" style="clip-path:url(#SVGID_00000095320739130249165880000015426900141130003845_);fill:#FFFFFF;" width="1175.6" height="0.8"/>
						</g>
						<g>
							<defs>
								<rect id="SVGID_00000136402273260267362270000018421537349121666945_" y="155.8" width="1175.6" height="15"/>
							</defs>
							<clipPath id="SVGID_00000101799987480650593330000001840797037500212615_">
								<use xlink:href="#SVGID_00000136402273260267362270000018421537349121666945_"  style="overflow:visible;"/>
							</clipPath>
							
								<rect y="169.3" style="clip-path:url(#SVGID_00000101799987480650593330000001840797037500212615_);fill:#FEFEFE;" width="1175.6" height="0.8"/>
						</g>
						<g>
							<defs>
								<rect id="SVGID_00000101076288983951979000000016155451362504237492_" y="155.8" width="1175.6" height="15"/>
							</defs>
							<clipPath id="SVGID_00000047060344967262569310000011713364156483062927_">
								<use xlink:href="#SVGID_00000101076288983951979000000016155451362504237492_"  style="overflow:visible;"/>
							</clipPath>
							
								<rect y="168.6" style="clip-path:url(#SVGID_00000047060344967262569310000011713364156483062927_);fill:#FDFDFD;" width="1175.6" height="0.8"/>
						</g>
						<g>
							<defs>
								<rect id="SVGID_00000010285563987109131240000001171306540391225253_" y="155.8" width="1175.6" height="15"/>
							</defs>
							<clipPath id="SVGID_00000179619104967985387020000018243285435106133934_">
								<use xlink:href="#SVGID_00000010285563987109131240000001171306540391225253_"  style="overflow:visible;"/>
							</clipPath>
							
								<rect y="167.8" style="clip-path:url(#SVGID_00000179619104967985387020000018243285435106133934_);fill:#FCFCFC;" width="1175.6" height="0.8"/>
						</g>
						<g>
							<defs>
								<rect id="SVGID_00000032648891720403819290000007876269178845693367_" y="155.8" width="1175.6" height="15"/>
							</defs>
							<clipPath id="SVGID_00000120530401121712275660000011868529927002320267_">
								<use xlink:href="#SVGID_00000032648891720403819290000007876269178845693367_"  style="overflow:visible;"/>
							</clipPath>
							
								<rect y="167.1" style="clip-path:url(#SVGID_00000120530401121712275660000011868529927002320267_);fill:#FBFBFB;" width="1175.6" height="0.8"/>
						</g>
						<g>
							<defs>
								<rect id="SVGID_00000110438086120475390120000003143493405274954384_" y="155.8" width="1175.6" height="15"/>
							</defs>
							<clipPath id="SVGID_00000048493718476110419240000008040669005893822347_">
								<use xlink:href="#SVGID_00000110438086120475390120000003143493405274954384_"  style="overflow:visible;"/>
							</clipPath>
							
								<rect y="166.3" style="clip-path:url(#SVGID_00000048493718476110419240000008040669005893822347_);fill:#FAFAFA;" width="1175.6" height="0.8"/>
						</g>
						<g>
							<defs>
								<rect id="SVGID_00000110464689839828925270000008060744322264083074_" y="155.8" width="1175.6" height="15"/>
							</defs>
							<clipPath id="SVGID_00000059306128517972311480000012490907626722596004_">
								<use xlink:href="#SVGID_00000110464689839828925270000008060744322264083074_"  style="overflow:visible;"/>
							</clipPath>
							
								<rect y="165.6" style="clip-path:url(#SVGID_00000059306128517972311480000012490907626722596004_);fill:#F9F9F9;" width="1175.6" height="0.8"/>
						</g>
						<g>
							<defs>
								<rect id="SVGID_00000005967158449955457340000003512582973817589399_" y="155.8" width="1175.6" height="15"/>
							</defs>
							<clipPath id="SVGID_00000110450757054481393360000003574141768753035961_">
								<use xlink:href="#SVGID_00000005967158449955457340000003512582973817589399_"  style="overflow:visible;"/>
							</clipPath>
							
								<rect y="164.8" style="clip-path:url(#SVGID_00000110450757054481393360000003574141768753035961_);fill:#F8F8F8;" width="1175.6" height="0.8"/>
						</g>
						<g>
							<defs>
								<rect id="SVGID_00000163059035413977558030000006870167424080259229_" y="155.8" width="1175.6" height="15"/>
							</defs>
							<clipPath id="SVGID_00000086674227788604021180000000046498266191516810_">
								<use xlink:href="#SVGID_00000163059035413977558030000006870167424080259229_"  style="overflow:visible;"/>
							</clipPath>
							
								<rect y="164.1" style="clip-path:url(#SVGID_00000086674227788604021180000000046498266191516810_);fill:#F7F7F7;" width="1175.6" height="0.8"/>
						</g>
						<g>
							<defs>
								<rect id="SVGID_00000173136488764628956610000012286500685357633178_" y="155.8" width="1175.6" height="15"/>
							</defs>
							<clipPath id="SVGID_00000090266550716965999330000007034148178525055632_">
								<use xlink:href="#SVGID_00000173136488764628956610000012286500685357633178_"  style="overflow:visible;"/>
							</clipPath>
							
								<rect y="163.3" style="clip-path:url(#SVGID_00000090266550716965999330000007034148178525055632_);fill:#F6F6F6;" width="1175.6" height="0.8"/>
						</g>
						<g>
							<defs>
								<rect id="SVGID_00000054243619913224030210000006980638621876869817_" y="155.8" width="1175.6" height="15"/>
							</defs>
							<clipPath id="SVGID_00000046341620109895720670000016800541427693707908_">
								<use xlink:href="#SVGID_00000054243619913224030210000006980638621876869817_"  style="overflow:visible;"/>
							</clipPath>
							
								<rect y="162.6" style="clip-path:url(#SVGID_00000046341620109895720670000016800541427693707908_);fill:#F4F4F4;" width="1175.6" height="0.8"/>
						</g>
						<g>
							<defs>
								<rect id="SVGID_00000053532737698812419300000018428906736860245892_" y="155.8" width="1175.6" height="15"/>
							</defs>
							<clipPath id="SVGID_00000128482983428771410460000001561046647584408999_">
								<use xlink:href="#SVGID_00000053532737698812419300000018428906736860245892_"  style="overflow:visible;"/>
							</clipPath>
							
								<rect y="161.8" style="clip-path:url(#SVGID_00000128482983428771410460000001561046647584408999_);fill:#F3F3F3;" width="1175.6" height="0.8"/>
						</g>
						<g>
							<defs>
								<rect id="SVGID_00000121237564287758905700000008886386791750005940_" y="155.8" width="1175.6" height="15"/>
							</defs>
							<clipPath id="SVGID_00000093177811153807304950000004816649687550405818_">
								<use xlink:href="#SVGID_00000121237564287758905700000008886386791750005940_"  style="overflow:visible;"/>
							</clipPath>
							
								<rect y="161.1" style="clip-path:url(#SVGID_00000093177811153807304950000004816649687550405818_);fill:#F2F2F2;" width="1175.6" height="0.8"/>
						</g>
						<g>
							<defs>
								<rect id="SVGID_00000068635818455452341010000002407553418693654403_" y="155.8" width="1175.6" height="15"/>
							</defs>
							<clipPath id="SVGID_00000065056677853973860030000012319498519696443015_">
								<use xlink:href="#SVGID_00000068635818455452341010000002407553418693654403_"  style="overflow:visible;"/>
							</clipPath>
							
								<rect y="160.3" style="clip-path:url(#SVGID_00000065056677853973860030000012319498519696443015_);fill:#F1F1F1;" width="1175.6" height="0.8"/>
						</g>
						<g>
							<defs>
								<rect id="SVGID_00000154417073338429658210000008120869993236255411_" y="155.8" width="1175.6" height="15"/>
							</defs>
							<clipPath id="SVGID_00000106830787706994615850000007116207661644383128_">
								<use xlink:href="#SVGID_00000154417073338429658210000008120869993236255411_"  style="overflow:visible;"/>
							</clipPath>
							
								<rect y="159.6" style="clip-path:url(#SVGID_00000106830787706994615850000007116207661644383128_);fill:#F0F0F0;" width="1175.6" height="0.8"/>
						</g>
						<g>
							<defs>
								<rect id="SVGID_00000010997811119693270460000014300022296271680145_" y="155.8" width="1175.6" height="15"/>
							</defs>
							<clipPath id="SVGID_00000170247971623064898540000007494555298740723870_">
								<use xlink:href="#SVGID_00000010997811119693270460000014300022296271680145_"  style="overflow:visible;"/>
							</clipPath>
							
								<rect y="158.8" style="clip-path:url(#SVGID_00000170247971623064898540000007494555298740723870_);fill:#EFEFEF;" width="1175.6" height="0.8"/>
						</g>
						<g>
							<defs>
								<rect id="SVGID_00000003103696376524345030000017882421602133084562_" y="155.8" width="1175.6" height="15"/>
							</defs>
							<clipPath id="SVGID_00000145763569130865086560000018225406530593063296_">
								<use xlink:href="#SVGID_00000003103696376524345030000017882421602133084562_"  style="overflow:visible;"/>
							</clipPath>
							
								<rect y="158.1" style="clip-path:url(#SVGID_00000145763569130865086560000018225406530593063296_);fill:#EEEEEE;" width="1175.6" height="0.8"/>
						</g>
						<g>
							<defs>
								<rect id="SVGID_00000109749318846470090080000009190459176024416396_" y="155.8" width="1175.6" height="15"/>
							</defs>
							<clipPath id="SVGID_00000100376507809637927950000006278895680986135720_">
								<use xlink:href="#SVGID_00000109749318846470090080000009190459176024416396_"  style="overflow:visible;"/>
							</clipPath>
							
								<rect y="157.3" style="clip-path:url(#SVGID_00000100376507809637927950000006278895680986135720_);fill:#EDEDED;" width="1175.6" height="0.8"/>
						</g>
						<g>
							<defs>
								<rect id="SVGID_00000008126226975927431720000017861584094506846862_" y="155.8" width="1175.6" height="15"/>
							</defs>
							<clipPath id="SVGID_00000021079477298720487730000008625355391455863196_">
								<use xlink:href="#SVGID_00000008126226975927431720000017861584094506846862_"  style="overflow:visible;"/>
							</clipPath>
							
								<rect y="156.6" style="clip-path:url(#SVGID_00000021079477298720487730000008625355391455863196_);fill:#ECECEC;" width="1175.6" height="0.8"/>
						</g>
						<g>
							<defs>
								<rect id="SVGID_00000168804422537380603180000015656533584326912683_" y="155.8" width="1175.6" height="15"/>
							</defs>
							<clipPath id="SVGID_00000091727994512372827560000009028761887382334602_">
								<use xlink:href="#SVGID_00000168804422537380603180000015656533584326912683_"  style="overflow:visible;"/>
							</clipPath>
							
								<rect y="155.8" style="clip-path:url(#SVGID_00000091727994512372827560000009028761887382334602_);fill:#EBEBEB;" width="1175.6" height="0.8"/>
						</g>
						<g>
							<defs>
								<rect id="SVGID_00000149346183589466301980000003852159998038830229_" y="155.8" width="1175.6" height="15"/>
							</defs>
							<clipPath id="SVGID_00000129171316462004110700000007972452010096434611_">
								<use xlink:href="#SVGID_00000149346183589466301980000003852159998038830229_"  style="overflow:visible;"/>
							</clipPath>
							<path style="clip-path:url(#SVGID_00000129171316462004110700000007972452010096434611_);fill:#EBEBEB;" d="M1175.6,155.8H0
								H1175.6z"/>
						</g>
					</g>
				</g>
			</g>
			<rect class="st26" width="1175.6" height="156.3"/>
		</g>
	</g>
</g>
<rect x="-120.8" y="-404.8" class="st27" width="1423.8" height="1423.8"/>
<rect id="bounding-box-1_00000178890544577748415000000004910105471760625827_" x="32.7" y="17.4" class="st28" width="119.1" height="119.1"/>
<g>
	<g>
		<path class="st29" d="M311,327.3v3.2h-40.9v-3.2H311z M309.9,291.6v3.2h-38.3v-3.2H309.9z M276.4,302.2h3.2v26.6h-3.2V302.2z
			 M290.1,293.2h3.2v35.6h-3.2V293.2z M308.2,308.6v3.1h-16.4v-3.1H308.2z"/>
		<path class="st29" d="M322.5,288.4l3,0.2c-1.9,10.8-5.2,19.3-9.9,25.5l-0.8-4.2C318.5,303.9,321.1,296.8,322.5,288.4z
			 M319.7,302.2l3.1-5.3v35.7h-3.1V302.2z M326.7,295.5h2.9v31h-2.9V295.5z M355.1,320l2.3,2c-7,5-15.3,8.5-25.1,10.5l-1.8-2.7
			C341.1,327.6,349.3,324.4,355.1,320z M339.5,289h3.2c-2.1,5.1-5.3,9.5-9.6,13.2l-2.2-1.9C334.7,297,337.6,293.3,339.5,289z
			 M351.8,293.7l2.5,1.5c-4.4,7.6-11.5,12.8-21.4,15.5l-1.6-2.9C340.9,305.3,347.8,300.6,351.8,293.7z M351.6,314.3l2.3,1.9
			c-5.4,4-12,6.8-19.8,8.4l-1.7-2.6C340.7,320.3,347.1,317.7,351.6,314.3z M347.1,308.9l2.3,1.9c-4.1,3.1-9.2,5.4-15.1,6.7l-1.8-2.5
			C338.9,313.7,343.7,311.6,347.1,308.9z M337.9,295.9c4.1,5.9,10.5,9.9,19.5,12l-1.7,2.9c-9.7-2.7-16.5-7.4-20.3-14.1L337.9,295.9z
			 M356.3,292.8v2.9H338v-2.9H356.3z"/>
		<path class="st29" d="M376.2,293.7v2.9h-15.6v-2.9H376.2z M375.3,301.5v2.9h-13.7v-2.9H375.3z M375.3,309.1v2.9h-13.7v-2.9H375.3z
			 M373.3,316.5v2.8h-11.4v-2.8H373.3z M361.9,318h2.9v14.2h-2.9V318z M373.3,326.3v2.9h-10v-2.9H373.3z M369.3,288.4
			c0.6,2.4,1.1,4.6,1.3,6.8l-3.1,0.2c-0.2-2.1-0.6-4.4-1.2-6.8L369.3,288.4z M371.8,316.5h2.9v15.1h-2.9V316.5z M402.8,304.2v2.8
			h-26v-2.8H402.8z M402.2,292.1v2.8h-24.6v-2.8H402.2z M401.5,298.3v2.7h-22.8v-2.7H401.5z M398.7,309.9v2.6h-19.3v-2.6H398.7z
			 M379.4,311.2h3.1v21.2h-3.1V311.2z M398.9,316.3v2.4h-17.7v-2.4H398.9z M398.9,322.1v2.5h-17.7v-2.5H398.9z M388.2,288.6h3.2
			v17.1h-3.2V288.6z M397.2,309.9h3.1v19c0,2.3-1,3.5-3,3.5h-6.6l-0.8-2.9h6c0.9,0,1.3-0.4,1.3-1.3V309.9z"/>
		<path class="st29" d="M414,288.5l3,0.2c-2.1,11.1-5.7,19.7-10.6,26.1l-0.7-4C409.6,304.5,412.4,297.1,414,288.5z M411.1,301.4
			l3.1-5.4v36.3h-3.1V301.4z M429.7,290.4v2.9h-11.1v-2.9H429.7z M418.6,291.9h3.1v40.5h-3.1V291.9z M431.3,301.9v2.9h-11.1v-2.9
			H431.3z M431.4,320.4v2.9h-11.2v-2.9H431.4z M430.5,310.6v2.9h-10.2v-2.9H430.5z M428.1,290.4h3.1v12.9h-3.1V290.4z M444,310.6
			l2.7,1.7c-0.6,4.2-2,7.9-4.2,11.1s-5.9,6.1-11.1,8.9l-1.9-2.4c5-2.5,8.5-5.3,10.5-8.2S443.3,315.1,444,310.6z M431.7,309.3h14.9
			v2.9h-14.9V309.3z M433,315.2l2.6-0.6c1.4,3.9,3,7,4.8,9.3c1.8,2.2,4.6,4.2,8.4,6.1l-1.9,2.6c-3.9-2.1-6.8-4.4-8.8-7
			C436,322.9,434.3,319.5,433,315.2z M444.3,290.4v2.9h-10.9v-2.9H444.3z M445.9,301.9v2.9h-12.4v-2.9H445.9z M442.8,290.4h3.1v13
			h-3.1V290.4z"/>
		<path class="st29" d="M463.3,319.1l2.3,1.7c-2.9,4-6.8,7.3-11.4,10.1l-1.9-2.5C456.9,325.7,460.6,322.6,463.3,319.1z M454.7,292.5
			c12.1-0.2,23.7-1.2,34.8-2.9l1.3,2.7c-11.5,1.9-23.3,2.9-35.4,3.1L454.7,292.5z M482.1,296.4l2.9,1.6c-3.6,3.1-7.6,6.2-12,9.4
			c-4.3,3.1-9.2,6.2-14.6,9.4l-3.5-1.9c2.7-1,5.7-2.6,9.2-4.9c3-2,6-4.1,9.2-6.4C476.5,301.2,479.5,298.8,482.1,296.4z M455,314.8
			c8-0.7,18.8-1.6,32.3-2.6l0.4,2.9c-11.8,0.8-22.5,1.6-32,2.7L455,314.8z M470.5,292.3l2.9,1.4c-4.4,4.3-8.9,8-13.4,11.2l-3-1.3
			C460,301.8,464.5,298.1,470.5,292.3z M457,303.6c5.4-0.6,11.8-1.3,19.2-2l0.4,2.9c-6.8,0.5-13,1.2-18.6,1.9L457,303.6z
			 M471.8,314.7h3.2V328c0,2.8-1.4,4.1-4.1,4.1h-6.8l-0.8-3.2h6.8c1.1,0,1.7-0.6,1.7-1.7L471.8,314.7L471.8,314.7z M482.2,319.2
			c4.3,3.2,8,6.4,11,9.6l-2.7,1.9c-2.4-2.8-6-6.1-10.8-9.8L482.2,319.2z M482.5,305.3c3.8,4.3,7.1,8.7,9.8,13.1l-2.9,1.6
			c-2.4-4.2-5.5-8.6-9.4-13.2L482.5,305.3z"/>
		<path class="st29" d="M505.6,288.6l2.9,0.7c-2.3,6.2-4.8,11.4-7.6,15.6l-3.7-1.4c1.1-0.6,2.1-1.5,2.9-2.8
			C502,297.3,503.9,293.2,505.6,288.6z M497.2,303.6c2.8-0.4,6.5-0.9,11-1.4L508,305c-3.7,0.5-7.1,1-10.1,1.5L497.2,303.6z
			 M499.2,320l2.9,0.2c-0.2,4.6-0.7,8.6-1.6,11.9l-3-0.9C498.4,328.1,499,324.4,499.2,320z M511.2,295l2.8,1.1
			c-4.1,8.3-8.3,15.1-12.7,20.4l-3.7-1c1.2-0.7,2.4-1.8,3.5-3.2C504.5,307.3,507.9,301.6,511.2,295z M497.5,315.5
			c4-0.9,9.3-1.9,15.9-3.1l-0.1,2.9c-5.4,1-10.3,2.1-14.7,3.2L497.5,315.5z M504.9,320.1l2.7-0.4c0.8,3.5,1.3,7,1.4,10.6l-3,0.2
			C505.9,326.9,505.6,323.4,504.9,320.1z M512.2,306.6c1.6,3.8,2.7,7.4,3.5,10.7l-2.9,1c-0.5-2.8-1.5-6.5-3.1-10.8L512.2,306.6z
			 M510.5,319.3l2.4-0.7c1,2.6,1.8,5.2,2.3,7.9l-2.8,0.5C512.1,324.4,511.4,321.8,510.5,319.3z M520,308.8h3.1v6.4
			c0,7.2-2.8,13-8.3,17.4l-2.1-2.6c4.9-3.8,7.4-8.7,7.4-14.9v-6.3H520z M539,294.1v3.1h-24.7v-3.1H539z M525.4,288.7l2.9,0.9
			c-3,7.9-6.3,14.6-9.9,19.9l-3.7-1.6c1.2-0.5,2.2-1.4,3-2.7C520.6,300.4,523.1,294.9,525.4,288.7z M514.8,307.9
			c5.4-0.5,12.4-1,21.1-1.5l-0.1,3.1c-7.5,0.3-14.3,0.8-20.4,1.5L514.8,307.9z M536.5,319.8l2.9,0.8v7.8c0,2.3-1.2,3.5-3.5,3.5h-4
			c-2.3,0-3.5-1.2-3.5-3.5v-20.2h3.1v19.1c0,0.9,0.4,1.4,1.3,1.4h2.1c1,0,1.5-0.4,1.5-1.2v-7.7H536.5z M532.3,299.7
			c2.9,4.4,5.2,8.7,7.1,12.9l-2.9,1c-1.6-4.1-3.9-8.4-6.8-12.9L532.3,299.7z"/>
		<path class="st29" d="M584.3,326.3v3.2h-40.1v-3.2H584.3z M582.1,292.5v3.2h-35.7v-3.2H582.1z M562.7,294.1h3.2V328h-3.2V294.1z"
			/>
		<path class="st29" d="M630.6,319.8v2.9h-41.4v-2.9H630.6z M589.3,329.6c4.9-1.5,9.5-3.2,13.9-5.3l2,2.2c-4.5,2.2-9.2,4.1-14.2,5.7
			L589.3,329.6z M623.3,290.6v2.8h-28.5v-2.8H623.3z M594.8,292h3.2v29.3h-3.2V292z M623.3,298.2v2.7h-26.9v-2.7H623.3z
			 M623.3,305.7v2.6h-26.9v-2.6H623.3z M623.3,313v2.6h-26.9V313H623.3z M616.1,324.4c4.2,1.4,8.9,3.1,14.1,5.3l-2.3,2.6
			c-4.7-2.3-9.4-4.3-13.9-5.9L616.1,324.4z M621.7,290.6h3.2v30.7h-3.2V290.6z"/>
	</g>
</g>
<g>
	<path class="st30" d="M95.6,29.8c26.7,0,48.3,21.6,48.3,48.3c0,20.8-13.2,39.2-32.9,45.8c-2.4,0.5-3.3-1-3.3-2.3
		c0-1.6,0.1-6.8,0.1-13.3c0-4.5-1.5-7.4-3.3-8.9c10.8-1.2,22-5.3,22-23.9c0-5.3-1.9-9.6-5-13c0.5-1.2,2.2-6.2-0.5-12.8
		c0,0-4-1.3-13.3,5c-3.9-1.1-8-1.6-12.1-1.6s-8.2,0.5-12.1,1.6c-9.2-6.2-13.3-5-13.3-5c-2.7,6.6-1,11.6-0.5,12.8
		c-3.1,3.4-5,7.7-5,13c0,18.5,11.2,22.6,22,23.9c-1.4,1.2-2.7,3.3-3.1,6.5c-2.8,1.3-9.7,3.3-14.1-4c-0.9-1.4-3.6-5-7.4-5
		c-4,0.1-1.6,2.3,0.1,3.2c2.1,1.1,4.4,5.4,5,6.8c1,2.7,4.1,7.9,16.2,5.7c0,4,0.1,7.9,0.1,9c0,1.3-0.9,2.7-3.3,2.3
		c-19.7-6.6-33-25-33-45.8C47.3,51.5,68.9,29.8,95.6,29.8z"/>
</g>
<g class="st31">
	<g class="st3">
		<path class="st32" d="M472.9,214.2h3.8v20.1c0,2.6,0.7,4.6,2.2,5.9c1.4,1.4,3.6,2,6.4,2c2.7,0,4.7-0.7,6.2-2
			c1.4-1.3,2.1-3.4,2.1-6v-20h3.8v20.3c0,3.4-1.1,6.1-3.2,8s-5.1,2.9-8.9,2.9c-3.9,0-7-0.9-9.1-2.8c-2.2-1.9-3.2-4.5-3.2-8
			L472.9,214.2L472.9,214.2z"/>
		<path class="st32" d="M508,245h-3.7v-23h3.7v3c0.9-1,1.8-1.7,2.8-2.2c1.5-0.8,3-1.2,4.5-1.2c2.4,0,4.3,0.7,5.6,2.1
			c1.3,1.4,2,3.2,2,5.5V245h-3.7v-15.6c0-1.4-0.4-2.6-1.2-3.4c-0.8-0.8-1.9-1.3-3.3-1.3c-1.5,0-3,0.6-4.5,1.8
			c-0.9,0.7-1.6,1.7-2.2,3L508,245L508,245z"/>
		<path class="st32" d="M533.2,212.3v12.8c0.9-1.2,1.9-2,2.8-2.5c1.4-0.7,2.9-1,4.4-1c3.1,0,5.5,1.1,7.3,3.2c1.8,2.2,2.7,5,2.7,8.5
			c0,3.6-0.9,6.5-2.7,8.7s-4.3,3.3-7.4,3.3c-1.6,0-3.1-0.4-4.5-1.1c-1-0.5-1.9-1.4-2.8-2.5v3.2h-3.8v-32.7h4V212.3z M546.6,233.4
			c0-2.6-0.6-4.7-1.9-6.3c-1.2-1.6-2.9-2.4-5-2.4c-1.8,0-3.3,0.6-4.6,1.8c-1.2,1.2-1.9,2.7-2.1,4.3v4.7c0.1,1.9,0.8,3.4,2.1,4.7
			s2.9,1.9,4.8,1.9c2,0,3.6-0.8,4.8-2.3C546,238.3,546.6,236.2,546.6,233.4z"/>
		<path class="st32" d="M559.8,212.3V245H556v-32.7H559.8z"/>
		<path class="st32" d="M576.4,221.6c3.4,0,6.1,1.1,8,3.3s2.9,5,2.9,8.5s-1,6.4-2.9,8.6c-1.9,2.3-4.6,3.4-8,3.4
			c-3.3,0-5.9-1.1-7.9-3.4c-2-2.3-3-5.1-3-8.6c0-3.4,1-6.2,2.9-8.5C570.4,222.7,573,221.6,576.4,221.6z M576.4,224.8
			c-2.1,0-3.8,0.7-5.1,2.2s-2,3.6-2,6.4s0.7,4.9,2,6.5s3,2.3,5.1,2.3c2,0,3.7-0.8,5-2.3s2-3.7,2-6.6c0-2.7-0.7-4.8-2-6.3
			C580.1,225.5,578.4,224.8,576.4,224.8z"/>
		<path class="st32" d="M602.8,245.4c-3.5,0-6.1-1.1-8-3.3s-2.8-5.2-2.8-8.9c0-3.4,1-6.1,2.9-8.3s4.5-3.3,7.7-3.3
			c2.9,0,5.2,0.7,6.8,2.1c1.6,1.4,2.5,3.2,2.7,5.5h-3.7c-0.1-1.3-0.7-2.4-1.7-3.2s-2.4-1.2-4.1-1.2c-2.1,0-3.7,0.8-5,2.2
			c-1.2,1.5-1.9,3.6-1.9,6.2c0,2.9,0.6,5.2,1.9,6.7c1.3,1.5,2.9,2.3,5,2.3c1.9,0,3.3-0.4,4.2-1.3c0.9-0.9,1.4-2,1.5-3.3h3.7
			c-0.1,2.3-1,4.2-2.6,5.7C607.9,244.7,605.7,245.4,602.8,245.4z"/>
		<path class="st32" d="M631.3,222h4.4l-8.6,8.3l9.6,14.6h-4.2l-7.8-12.3l-3.3,3.3v9h-3.8v-32.7h3.8v19.5L631.3,222z"/>
		<path class="st32" d="M637.8,217.4v-3.2h23.1v3.2h-9.6V245h-3.8v-27.6H637.8z"/>
		<path class="st32" d="M664.3,228.9c0-2.1,0.8-3.8,2.5-5.2s4-2.1,7.1-2.1s5.5,0.7,7,2c1.6,1.3,2.3,3.3,2.3,5.9V245h-3.7v-2.9
			c-1.2,1.2-2.3,2-3.3,2.4c-1.4,0.6-2.9,0.9-4.7,0.9c-2.5,0-4.5-0.6-5.9-1.9c-1.4-1.2-2.1-2.9-2.1-4.8c0-2.3,1-4.1,3.1-5.4
			c2-1.3,5-2,9-2h3.9v-1.8c0-1.6-0.5-2.7-1.4-3.5s-2.3-1.2-4.3-1.2c-1.9,0-3.3,0.4-4.4,1.1c-1,0.8-1.6,1.8-1.6,3L664.3,228.9
			L664.3,228.9z M669.5,235.5c-1.4,0.8-2,1.8-2,3.2c0,1.1,0.4,1.9,1.2,2.6c0.8,0.6,1.9,1,3.3,1c1.4,0,2.9-0.3,4.3-1
			c1-0.5,2.1-1.4,3.3-2.7v-4.2h-3.9C672.9,234.3,670.8,234.7,669.5,235.5z"/>
		<path class="st32" d="M703.3,222h4.4l-8.6,8.3l9.6,14.6h-4.2l-7.8-12.3l-3.3,3.3v9h-3.8v-32.7h3.8v19.5L703.3,222z"/>
		<path class="st32" d="M717.2,240.2c1.2,1.3,2.9,1.9,5.1,1.9c1.7,0,3-0.3,4-1c1-0.6,1.6-1.5,1.8-2.5h3.7c-0.4,2-1.4,3.6-3,4.8
			c-1.7,1.2-3.8,1.8-6.4,1.8c-3.3,0-5.9-1-7.8-3.1c-1.9-2.1-2.9-5-2.9-8.7c0-3.5,0.9-6.4,2.8-8.6c1.9-2.2,4.4-3.4,7.7-3.4
			c3.1,0,5.5,1.1,7.3,3.2c1.8,2.1,2.7,5.4,2.7,9.9h-16.6C715.4,237.1,716,239,717.2,240.2z M726.4,226.7c-1.1-1.3-2.5-2-4.4-2
			c-1.8,0-3.4,0.7-4.6,2c-1.2,1.2-1.8,2.9-1.9,4.9H728C727.9,229.5,727.4,227.9,726.4,226.7z"/>
		<path class="st32" d="M741.8,214.2v27.6h16.5v3.1H738v-30.7L741.8,214.2L741.8,214.2z"/>
		<path class="st32" d="M767.5,240.2c1.2,1.3,2.9,1.9,5.1,1.9c1.7,0,3-0.3,4-1c1-0.6,1.6-1.5,1.8-2.5h3.7c-0.4,2-1.4,3.6-3,4.8
			c-1.7,1.2-3.8,1.8-6.4,1.8c-3.3,0-5.9-1-7.8-3.1s-2.9-5-2.9-8.7c0-3.5,0.9-6.4,2.8-8.6c1.9-2.2,4.4-3.4,7.7-3.4
			c3.1,0,5.5,1.1,7.3,3.2c1.8,2.1,2.7,5.4,2.7,9.9h-16.6C765.7,237.1,766.3,239,767.5,240.2z M776.7,226.7c-1.1-1.3-2.5-2-4.4-2
			c-1.8,0-3.4,0.7-4.6,2c-1.2,1.2-1.8,2.9-1.9,4.9h12.5C778.2,229.5,777.6,227.9,776.7,226.7z"/>
		<path class="st32" d="M787,228.9c0-2.1,0.8-3.8,2.5-5.2s4-2.1,7.1-2.1s5.5,0.7,7,2c1.6,1.3,2.3,3.3,2.3,5.9V245h-3.7v-2.9
			c-1.2,1.2-2.4,2-3.3,2.4c-1.4,0.6-2.9,0.9-4.7,0.9c-2.5,0-4.5-0.6-5.9-1.9c-1.4-1.2-2.1-2.9-2.1-4.8c0-2.3,1-4.1,3.1-5.4
			c2-1.3,5-2,9-2h3.9v-1.8c0-1.6-0.5-2.7-1.4-3.5s-2.3-1.2-4.3-1.2c-1.9,0-3.3,0.4-4.4,1.1c-1,0.8-1.6,1.8-1.6,3L787,228.9
			L787,228.9z M792.2,235.5c-1.4,0.8-2,1.8-2,3.2c0,1.1,0.4,1.9,1.2,2.6c0.8,0.6,1.9,1,3.3,1s2.9-0.3,4.3-1c1-0.5,2.1-1.4,3.3-2.7
			v-4.2h-3.9C795.6,234.3,793.6,234.7,792.2,235.5z"/>
		<path class="st32" d="M809.4,222h4l6.4,18.9l6-18.9h3.9l-7.9,23h-4.1L809.4,222z"/>
		<path class="st32" d="M838.1,240.2c1.2,1.3,2.9,1.9,5.1,1.9c1.7,0,3-0.3,4-1c1-0.6,1.6-1.5,1.8-2.5h3.7c-0.4,2-1.4,3.6-3,4.8
			s-3.8,1.8-6.4,1.8c-3.3,0-5.9-1-7.8-3.1s-2.9-5-2.9-8.7c0-3.5,0.9-6.4,2.8-8.6c1.9-2.2,4.4-3.4,7.7-3.4c3.1,0,5.5,1.1,7.3,3.2
			c1.8,2.1,2.7,5.4,2.7,9.9h-16.6C836.4,237.1,836.9,239,838.1,240.2z M847.3,226.7c-1.1-1.3-2.5-2-4.4-2c-1.8,0-3.4,0.7-4.6,2
			c-1.2,1.2-1.8,2.9-1.9,4.9h12.5C848.8,229.5,848.3,227.9,847.3,226.7z"/>
	</g>
</g>
<g>
	<g>
		<path class="st32" d="M143.7,234.8h3.8c-0.2,3.2-1.4,5.8-3.5,7.7s-5.1,2.9-8.9,2.9c-4.5,0-8-1.4-10.6-4.2s-3.9-6.6-3.9-11.6
			c0-4.9,1.3-8.8,3.9-11.6s6.1-4.3,10.5-4.3c3.5,0,6.3,0.8,8.4,2.5s3.4,3.8,3.7,6.4h-3.8c-0.3-1.7-1.2-3.1-2.6-4.2
			c-1.5-1-3.4-1.6-5.7-1.6c-3.1,0-5.6,1-7.5,3.1c-1.9,2.1-2.9,5.3-2.9,9.5s0.9,7.3,2.8,9.4c1.9,2.1,4.4,3.2,7.6,3.2
			c2.6,0,4.6-0.7,6.2-2C142.7,238.9,143.6,237.1,143.7,234.8z"/>
		<path class="st32" d="M166.7,222h4l-10.3,29.8c-0.4,1.2-1.1,2.1-1.9,2.6c-0.9,0.6-1.9,0.8-3.2,0.8h-4.6v-3.1h3.6
			c0.7,0,1.3-0.2,1.8-0.5s0.9-0.8,1.1-1.6l1.8-5.1l-9.1-22.9h4l6.9,18.3L166.7,222z"/>
		<path class="st32" d="M178.3,212.3v12.8c0.9-1.2,1.9-2,2.8-2.5c1.4-0.7,2.9-1,4.4-1c3.1,0,5.5,1.1,7.3,3.2c1.8,2.2,2.7,5,2.7,8.5
			c0,3.6-0.9,6.5-2.7,8.7s-4.3,3.3-7.4,3.3c-1.6,0-3.1-0.4-4.5-1.1c-1-0.5-1.9-1.4-2.8-2.5v3.2h-3.8v-32.7h4V212.3z M191.7,233.4
			c0-2.6-0.6-4.7-1.9-6.3c-1.2-1.6-2.9-2.4-5-2.4c-1.8,0-3.3,0.6-4.6,1.8c-1.2,1.2-1.9,2.7-2.1,4.3v4.7c0.1,1.9,0.8,3.4,2.1,4.7
			s2.9,1.9,4.8,1.9c2,0,3.6-0.8,4.8-2.3C191.1,238.3,191.7,236.2,191.7,233.4z"/>
		<path class="st32" d="M205.8,240.2c1.2,1.3,2.9,1.9,5.1,1.9c1.7,0,3-0.3,4-1c1-0.6,1.6-1.5,1.8-2.5h3.7c-0.4,2-1.4,3.6-3,4.8
			c-1.7,1.2-3.8,1.8-6.4,1.8c-3.3,0-5.9-1-7.8-3.1c-1.9-2.1-2.9-5-2.9-8.7c0-3.5,0.9-6.4,2.8-8.6c1.9-2.2,4.4-3.4,7.7-3.4
			c3.1,0,5.5,1.1,7.3,3.2c1.8,2.1,2.7,5.4,2.7,9.9H204C204.1,237.1,204.7,239,205.8,240.2z M215,226.7c-1.1-1.3-2.5-2-4.4-2
			c-1.8,0-3.4,0.7-4.6,2c-1.2,1.2-1.8,2.9-1.9,4.9h12.5C216.5,229.5,216,227.9,215,226.7z"/>
		<path class="st32" d="M229.5,245h-3.7v-23h3.7v3.8c0.9-1.3,1.9-2.3,3.1-2.9c1.4-0.8,2.9-1.3,4.4-1.3v3.5c-1.8,0-3.4,0.6-5,1.7
			c-1,0.8-1.9,1.9-2.5,3.2V245z"/>
		<path class="st32" d="M250.1,214.2h4.2l12.1,30.7h-4l-3.7-9.6h-13.3l-3.7,9.6h-3.8L250.1,214.2z M246.6,232.3h10.9l-5.4-14
			L246.6,232.3z"/>
		<path class="st32" d="M266.9,222h4l6.4,18.9l6-18.9h3.9l-7.9,23h-4.1L266.9,222z"/>
		<path class="st32" d="M300.8,221.6c3.4,0,6.1,1.1,8,3.3s2.9,5,2.9,8.5s-1,6.4-2.9,8.6c-1.9,2.3-4.6,3.4-8,3.4
			c-3.3,0-5.9-1.1-7.9-3.4c-2-2.3-3-5.1-3-8.6c0-3.4,1-6.2,2.9-8.5C294.7,222.7,297.4,221.6,300.8,221.6z M300.8,224.8
			c-2.1,0-3.8,0.7-5.1,2.2c-1.3,1.5-2,3.6-2,6.4s0.7,4.9,2,6.5s3,2.3,5.1,2.3c2,0,3.7-0.8,5-2.3s2-3.7,2-6.6c0-2.7-0.7-4.8-2-6.3
			C304.4,225.5,302.8,224.8,300.8,224.8z"/>
		<path class="st32" d="M327.2,245.4c-3.5,0-6.1-1.1-8-3.3s-2.8-5.2-2.8-8.9c0-3.4,1-6.1,2.9-8.3s4.5-3.3,7.7-3.3
			c2.9,0,5.2,0.7,6.8,2.1c1.6,1.4,2.5,3.2,2.7,5.5h-3.7c-0.1-1.3-0.7-2.4-1.7-3.2s-2.4-1.2-4.1-1.2c-2.1,0-3.7,0.8-5,2.2
			c-1.2,1.5-1.9,3.6-1.9,6.2c0,2.9,0.6,5.2,1.9,6.7s2.9,2.3,5,2.3c1.9,0,3.3-0.4,4.2-1.3c0.9-0.9,1.4-2,1.5-3.3h3.7
			c-0.1,2.3-1,4.2-2.6,5.7C332.3,244.7,330,245.4,327.2,245.4z"/>
		<path class="st32" d="M341.2,228.9c0-2.1,0.8-3.8,2.5-5.2s4-2.1,7.1-2.1s5.5,0.7,7,2c1.6,1.3,2.3,3.3,2.3,5.9V245h-3.7v-2.9
			c-1.2,1.2-2.4,2-3.3,2.4c-1.4,0.6-2.9,0.9-4.7,0.9c-2.5,0-4.5-0.6-5.9-1.9c-1.4-1.2-2.1-2.9-2.1-4.8c0-2.3,1-4.1,3.1-5.4
			c2-1.3,5-2,9-2h3.9v-1.8c0-1.6-0.5-2.7-1.4-3.5s-2.3-1.2-4.3-1.2c-1.9,0-3.3,0.4-4.4,1.1c-1,0.8-1.6,1.8-1.6,3L341.2,228.9
			L341.2,228.9z M346.4,235.5c-1.4,0.8-2,1.8-2,3.2c0,1.1,0.4,1.9,1.2,2.6c0.8,0.6,1.9,1,3.3,1s2.9-0.3,4.3-1c1-0.5,2.1-1.4,3.3-2.7
			v-4.2h-3.9C349.8,234.3,347.7,234.7,346.4,235.5z"/>
		<path class="st32" d="M382.6,212.3h3.8V245h-3.8v-3c-1,1.2-2,2-2.9,2.5c-1.2,0.6-2.5,0.9-3.9,0.9c-3.2,0-5.7-1.1-7.6-3.2
			c-1.9-2.1-2.8-5-2.8-8.6c0-3.7,0.9-6.6,2.7-8.8c1.8-2.1,4.3-3.2,7.4-3.2c1.4,0,2.8,0.3,4.1,1c1,0.5,2,1.3,2.9,2.5L382.6,212.3
			L382.6,212.3z M369.3,233.6c0,2.6,0.6,4.6,1.8,6.2c1.2,1.6,2.8,2.4,4.8,2.4c1.9,0,3.5-0.7,4.8-2.1c1.2-1.4,1.9-3,1.9-4.9v-3.3
			c-0.1-2-0.7-3.7-2-5.1c-1.2-1.4-2.8-2.1-4.7-2.1c-2.1,0-3.8,0.8-4.9,2.3C369.9,228.5,369.3,230.7,369.3,233.6z"/>
		<path class="st32" d="M402.9,221.6c3.4,0,6.1,1.1,8,3.3s2.9,5,2.9,8.5s-1,6.4-2.9,8.6c-1.9,2.3-4.6,3.4-8,3.4
			c-3.3,0-5.9-1.1-7.9-3.4c-2-2.3-3-5.1-3-8.6c0-3.4,1-6.2,2.9-8.5C396.8,222.7,399.5,221.6,402.9,221.6z M402.9,224.8
			c-2.1,0-3.8,0.7-5.1,2.2c-1.3,1.5-2,3.6-2,6.4s0.7,4.9,2,6.5s3,2.3,5.1,2.3c2,0,3.7-0.8,5-2.3s2-3.7,2-6.6c0-2.7-0.7-4.8-2-6.3
			C406.5,225.5,404.9,224.8,402.9,224.8z"/>
	</g>
</g>
<g class="st33">
	<path class="st34" d="M446.8,214.2L434.3,245h-3.5l12.5-30.7H446.8z"/>
</g>
<g>
	<path class="st34" d="M65.4,216.3c0-4.2,3.4-7.5,7.5-7.5h26.4c1.2,0,2.3,1,2.3,2.3v37.7c0,1.2-1,2.3-2.3,2.3h-7.5
		c-1.2,0-2.3-1-2.3-2.3c0-1.2,1-2.3,2.3-2.3H97v-6H72.9c-1.7,0-3,1.4-3,3c0,0.8,0.3,1.5,0.9,2.1c0.9,0.9,0.9,2.3,0,3.2
		s-2.3,0.9-3.2,0l0,0c-1.4-1.4-2.2-3.3-2.2-5.3C65.4,243.5,65.4,216.3,65.4,216.3z M97,213.3H72.9c-1.7,0-3,1.4-3,3v20.2
		c1-0.4,2-0.6,3-0.6H97V213.3z M74.4,245.7c0-0.4,0.3-0.8,0.8-0.8h10.6c0.4,0,0.8,0.3,0.8,0.8v9.8c0,0.4-0.3,0.8-0.8,0.8
		c-0.2,0-0.3-0.1-0.5-0.2l-4.4-3.3c-0.3-0.2-0.6-0.2-0.9,0l-4.4,3.3c-0.3,0.2-0.8,0.2-1.1-0.2c-0.1-0.1-0.2-0.3-0.2-0.5L74.4,245.7
		L74.4,245.7z"/>
</g>
<path class="st35" d="M1078,483.7H97.6v-66.9c0-9.9,8.1-18,18-18H1060c9.9,0,18,8.1,18,18V483.7z"/>
<path class="st36" d="M1078,614.3H97.6V416.8c0-9.9,8.1-18,18-18H1060c9.9,0,18,8.1,18,18V614.3z"/>
<g>
	<g>
		<path class="st37" d="M203.2,446.5h2.4c-0.1,2.1-0.9,3.7-2.2,4.9s-3.3,1.8-5.7,1.8c-2.8,0-5.1-0.9-6.7-2.6s-2.5-4.2-2.5-7.4
			c0-3.1,0.8-5.6,2.5-7.4s3.9-2.7,6.7-2.7c2.2,0,4,0.5,5.4,1.6c1.3,1.1,2.1,2.4,2.4,4.1h-2.4c-0.2-1.1-0.7-2-1.7-2.6
			c-0.9-0.7-2.1-1-3.6-1c-2,0-3.6,0.7-4.8,2s-1.9,3.4-1.9,6.1c0,2.6,0.6,4.6,1.8,6c1.2,1.3,2.8,2,4.9,2c1.6,0,2.9-0.4,3.9-1.3
			C202.6,449.1,203.1,448,203.2,446.5z"/>
		<path class="st37" d="M217.8,438.4h2.6l-6.6,18.9c-0.3,0.8-0.7,1.3-1.2,1.7c-0.5,0.4-1.2,0.5-2,0.5h-2.9v-2h2.3
			c0.5,0,0.8-0.1,1.2-0.3c0.3-0.2,0.6-0.5,0.7-1l1.1-3.3l-5.8-14.6h2.6L214,450L217.8,438.4z"/>
		<path class="st37" d="M225.2,432.2v8.2c0.6-0.7,1.2-1.3,1.8-1.6c0.9-0.4,1.8-0.7,2.8-0.7c1.9,0,3.5,0.7,4.7,2.1s1.7,3.2,1.7,5.4
			c0,2.3-0.6,4.2-1.7,5.6c-1.2,1.4-2.7,2.1-4.7,2.1c-1,0-2-0.2-2.8-0.7c-0.6-0.3-1.2-0.9-1.8-1.6v2h-2.4v-20.8H225.2z M233.8,445.6
			c0-1.7-0.4-3-1.2-4s-1.8-1.5-3.2-1.5c-1.2,0-2.1,0.4-2.9,1.2c-0.8,0.8-1.2,1.7-1.3,2.7v3c0.1,1.2,0.5,2.2,1.3,3s1.8,1.2,3.1,1.2
			s2.3-0.5,3-1.5C233.4,448.8,233.8,447.4,233.8,445.6z"/>
		<path class="st37" d="M242.7,450c0.8,0.8,1.8,1.2,3.2,1.2c1.1,0,1.9-0.2,2.5-0.6s1-0.9,1.1-1.6h2.4c-0.2,1.3-0.9,2.3-1.9,3.1
			c-1.1,0.8-2.4,1.2-4.1,1.2c-2.1,0-3.8-0.7-5-2s-1.8-3.2-1.9-5.5c0-2.2,0.6-4.1,1.8-5.5s2.8-2.1,4.9-2.1c2,0,3.5,0.7,4.7,2.1
			c1.1,1.4,1.7,3.5,1.7,6.3h-10.6C241.6,448,242,449.2,242.7,450z M248.6,441.4c-0.7-0.8-1.6-1.3-2.8-1.3s-2.1,0.4-2.9,1.3
			c-0.7,0.8-1.1,1.8-1.2,3.1h8C249.6,443.2,249.2,442.1,248.6,441.4z"/>
		<path class="st37" d="M257.8,453h-2.4v-14.6h2.4v2.4c0.6-0.8,1.2-1.4,2-1.8c0.9-0.5,1.9-0.8,2.8-0.8v2.2c-1.1,0-2.2,0.4-3.2,1.1
			c-0.7,0.5-1.2,1.2-1.6,2L257.8,453L257.8,453z"/>
		<path class="st37" d="M270.9,433.4h2.6l7.7,19.6h-2.5l-2.3-6.1h-8.5l-2.4,6.1H263L270.9,433.4z M268.7,444.9h6.9l-3.4-8.9
			L268.7,444.9z"/>
		<path class="st37" d="M281.6,438.4h2.5l4,12.1l3.8-12.1h2.5l-5,14.6h-2.6L281.6,438.4z"/>
		<path class="st37" d="M303.2,438.1c2.2,0,3.9,0.7,5.1,2.1s1.8,3.2,1.8,5.4c0,2.2-0.6,4.1-1.8,5.5c-1.2,1.4-2.9,2.2-5.1,2.2
			c-2.1,0-3.8-0.7-5-2.2c-1.3-1.4-1.9-3.3-1.9-5.5s0.6-4,1.9-5.4C299.4,438.8,301.1,438.1,303.2,438.1z M303.2,440.1
			c-1.3,0-2.4,0.5-3.2,1.4c-0.8,0.9-1.3,2.3-1.3,4.1c0,1.8,0.4,3.1,1.3,4.1c0.8,1,1.9,1.5,3.2,1.5c1.3,0,2.3-0.5,3.2-1.4
			c0.9-1,1.3-2.4,1.3-4.2c0-1.7-0.4-3.1-1.3-4C305.5,440.6,304.5,440.1,303.2,440.1z"/>
		<path class="st37" d="M320,453.3c-2.2,0-3.9-0.7-5.1-2.1s-1.8-3.3-1.8-5.7c0-2.1,0.6-3.9,1.8-5.3c1.2-1.4,2.9-2.1,4.9-2.1
			c1.9,0,3.3,0.4,4.3,1.3s1.6,2,1.7,3.5h-2.3c-0.1-0.8-0.4-1.5-1.1-2c-0.6-0.5-1.5-0.8-2.6-0.8c-1.3,0-2.4,0.5-3.2,1.4
			c-0.8,1-1.2,2.3-1.2,3.9c0,1.9,0.4,3.3,1.2,4.3c0.8,1,1.9,1.5,3.2,1.5c1.2,0,2.1-0.3,2.7-0.9s0.9-1.3,1-2.1h2.4
			c-0.1,1.5-0.6,2.7-1.7,3.6S321.8,453.3,320,453.3z"/>
		<path class="st37" d="M328.9,442.7c0-1.3,0.5-2.4,1.6-3.3s2.6-1.3,4.5-1.3c2,0,3.5,0.4,4.5,1.3s1.5,2.1,1.5,3.8v9.8h-2.4v-1.8
			c-0.8,0.8-1.5,1.3-2.1,1.5c-0.9,0.4-1.9,0.6-3,0.6c-1.6,0-2.9-0.4-3.7-1.2c-0.9-0.8-1.3-1.8-1.3-3.1c0-1.5,0.7-2.6,2-3.4
			s3.2-1.3,5.7-1.3h2.5v-1.2c0-1-0.3-1.7-0.9-2.3c-0.6-0.5-1.5-0.8-2.7-0.8s-2.1,0.2-2.8,0.7c-0.7,0.5-1,1.1-1,1.9L328.9,442.7
			L328.9,442.7z M332.2,447c-0.9,0.5-1.3,1.2-1.3,2c0,0.7,0.2,1.2,0.7,1.6s1.2,0.6,2.1,0.6s1.8-0.2,2.7-0.6c0.7-0.3,1.4-0.9,2.1-1.7
			v-2.7H336C334.4,446.2,333.1,446.4,332.2,447z"/>
		<path class="st37" d="M355.3,432.2h2.4V453h-2.4v-1.9c-0.6,0.8-1.3,1.3-1.8,1.6c-0.8,0.4-1.6,0.6-2.5,0.6c-2,0-3.6-0.7-4.8-2.1
			c-1.2-1.4-1.8-3.2-1.8-5.5c0-2.4,0.6-4.2,1.7-5.6s2.7-2,4.7-2.1c0.9,0,1.8,0.2,2.6,0.6c0.6,0.3,1.2,0.8,1.9,1.6L355.3,432.2
			L355.3,432.2z M346.8,445.8c0,1.6,0.4,3,1.1,4c0.8,1,1.8,1.5,3.1,1.5c1.2,0,2.2-0.4,3-1.3s1.2-1.9,1.2-3.1v-2.1
			c-0.1-1.3-0.5-2.4-1.3-3.2c-0.8-0.9-1.8-1.3-3-1.3c-1.4,0-2.4,0.5-3.1,1.4S346.8,443.9,346.8,445.8z"/>
		<path class="st37" d="M368.2,438.1c2.2,0,3.9,0.7,5.1,2.1s1.8,3.2,1.8,5.4c0,2.2-0.6,4.1-1.8,5.5c-1.2,1.4-2.9,2.2-5.1,2.2
			c-2.1,0-3.8-0.7-5-2.2c-1.3-1.4-1.9-3.3-1.9-5.5s0.6-4,1.9-5.4C364.4,438.8,366.1,438.1,368.2,438.1z M368.2,440.1
			c-1.3,0-2.4,0.5-3.2,1.4c-0.8,0.9-1.3,2.3-1.3,4.1c0,1.8,0.4,3.1,1.3,4.1c0.8,1,1.9,1.5,3.2,1.5c1.3,0,2.3-0.5,3.2-1.4
			c0.9-1,1.3-2.4,1.3-4.2c0-1.7-0.4-3.1-1.3-4C370.6,440.6,369.5,440.1,368.2,440.1z"/>
	</g>
</g>
<g>
	<g>
		<path class="st37" d="M191.4,95.2V70.7h9.9c2.3,0,4.1,0.6,5.4,1.9c1.4,1.3,2,3,2,5c0,2.5-0.7,4.3-2.2,5.5s-3.2,1.7-5.2,1.7h-7.6
			v10.4H191.4z M201.2,82.8c1.5,0,2.7-0.4,3.7-1.2c1-0.8,1.5-2.2,1.5-4c0-1.7-0.5-2.9-1.5-3.7c-1-0.8-2.2-1.2-3.6-1.2h-7.4v10.1
			C193.9,82.8,201.2,82.8,201.2,82.8z"/>
		<path class="st37" d="M215,95.2h-2.3V76.9h2.3V80c0.7-1,1.5-1.8,2.4-2.3c1.2-0.7,2.4-1,3.6-1v2.2c-1.4,0-2.8,0.5-4,1.5
			c-0.8,0.7-1.5,1.6-2,2.7V95.2z"/>
		<path class="st37" d="M231.8,76.6c2.6,0,4.6,0.9,6.2,2.6c1.5,1.7,2.3,4,2.3,6.7c0,2.8-0.8,5.1-2.3,6.9s-3.6,2.7-6.1,2.7
			c-2.4,0-4.5-0.9-6.1-2.7c-1.6-1.8-2.4-4.1-2.4-6.9c0-2.7,0.8-4.9,2.3-6.7C227.3,77.5,229.3,76.6,231.8,76.6z M231.8,78.7
			c-1.7,0-3.2,0.6-4.3,1.9s-1.7,3-1.7,5.3s0.6,4.1,1.7,5.4c1.1,1.3,2.6,2,4.3,2s3.1-0.6,4.2-1.9s1.7-3.1,1.7-5.5
			c0-2.2-0.6-4-1.7-5.2S233.5,78.7,231.8,78.7z"/>
		<path class="st37" d="M257.9,68.9h2.4v26.3h-2.4v-2.4c-0.8,1-1.6,1.6-2.3,2c-1,0.5-2,0.7-3.1,0.7c-2.6,0-4.6-0.9-6.1-2.6
			s-2.2-4-2.2-6.8c0-3,0.7-5.3,2.2-7s3.4-2.5,5.9-2.5c1.2,0,2.3,0.3,3.3,0.8c0.8,0.4,1.6,1.1,2.4,2L257.9,68.9L257.9,68.9z
			 M246.6,86.1c0,2.1,0.5,3.8,1.5,5.2c1,1.3,2.4,2,4.1,2c1.7,0,3-0.6,4.1-1.8c1.1-1.2,1.6-2.6,1.6-4.1v-2.6
			c-0.1-1.7-0.6-3.1-1.7-4.3c-1-1.2-2.4-1.8-4-1.8c-1.8,0-3.2,0.6-4.2,1.9C247,81.9,246.6,83.8,246.6,86.1z"/>
		<path class="st37" d="M277.5,76.9h2.3v18.4h-2.3v-2.5c-0.6,0.8-1.3,1.4-2.1,1.8c-1.2,0.7-2.4,1-3.7,1c-1.9,0-3.4-0.6-4.4-1.7
			c-1.1-1.1-1.6-2.6-1.6-4.4V76.9h2.3v12.6c0,1.2,0.3,2.2,1,2.9c0.7,0.7,1.6,1,2.8,1c1.3,0,2.7-0.6,4-1.7c0.7-0.6,1.2-1.3,1.7-2.2
			L277.5,76.9L277.5,76.9z"/>
		<path class="st37" d="M292.9,95.5c-2.6,0-4.7-0.9-6.2-2.6s-2.2-4.1-2.2-7.1c0-2.7,0.8-4.9,2.3-6.6s3.5-2.6,6-2.6
			c2.3,0,4,0.5,5.2,1.6c1.2,1,1.9,2.4,2.1,4.2h-2.3c-0.1-1-0.6-1.9-1.4-2.6s-2-1-3.5-1c-1.8,0-3.2,0.6-4.3,1.9
			c-1.1,1.3-1.6,3-1.6,5.2c0,2.4,0.5,4.3,1.6,5.6c1.1,1.3,2.5,1.9,4.3,1.9c1.6,0,2.8-0.4,3.6-1.1c0.8-0.7,1.2-1.6,1.3-2.7h2.3
			c-0.1,1.7-0.8,3.2-2.1,4.3C296.8,95,295.1,95.5,292.9,95.5z"/>
		<path class="st37" d="M302.4,79v-2.2h3.1v-4.6h2.3v4.6h3.6V79h-3.6v12.8c0,0.4,0.1,0.8,0.3,1c0.2,0.2,0.6,0.3,1,0.3h2.3v2.2h-2.9
			c-0.8,0-1.6-0.3-2.2-0.9s-0.9-1.4-0.9-2.3V79H302.4z"/>
	</g>
</g>
<g>
	<g>
		<path class="st37" d="M411.3,88.3h2.4c0,1.6,0.7,2.8,2,3.8c1.3,0.9,3,1.4,5.3,1.4c2.2,0,3.9-0.4,5.1-1.3s1.8-2,1.8-3.4
			c0-1.6-0.5-2.8-1.6-3.5s-2.9-1.3-5.4-1.7c-3-0.5-5.2-1.3-6.7-2.4c-1.4-1.1-2.1-2.6-2.1-4.6c0-1.9,0.8-3.4,2.3-4.5s3.6-1.7,6.4-1.7
			c2.5,0,4.6,0.6,6.1,1.8c1.6,1.2,2.4,2.7,2.4,4.6h-2.4c0-1.2-0.6-2.3-1.7-3.1c-1.1-0.8-2.6-1.3-4.5-1.3c-2.1,0-3.7,0.4-4.7,1.1
			s-1.5,1.7-1.5,3c0,1.4,0.6,2.5,1.8,3.2c1.2,0.7,3.2,1.3,5.9,1.8c2.7,0.5,4.8,1.3,6.1,2.4c1.3,1.1,2,2.7,2,4.9c0,2-0.8,3.7-2.5,4.9
			c-1.7,1.2-4,1.9-6.8,1.9c-3.1,0-5.4-0.7-7.1-2C412.1,92.2,411.3,90.4,411.3,88.3z"/>
		<path class="st37" d="M442,76.6c2.6,0,4.6,0.9,6.2,2.6c1.5,1.7,2.3,4,2.3,6.7c0,2.8-0.8,5.1-2.3,6.9s-3.6,2.7-6.1,2.7
			c-2.4,0-4.5-0.9-6.1-2.7c-1.6-1.8-2.4-4.1-2.4-6.9c0-2.7,0.8-4.9,2.3-6.7C437.4,77.5,439.4,76.6,442,76.6z M442,78.7
			c-1.7,0-3.2,0.6-4.3,1.9c-1.1,1.3-1.7,3-1.7,5.3s0.6,4.1,1.7,5.4s2.6,2,4.3,2c1.7,0,3.1-0.6,4.2-1.9s1.7-3.1,1.7-5.5
			c0-2.2-0.6-4-1.7-5.2S443.6,78.7,442,78.7z"/>
		<path class="st37" d="M457.5,68.9v26.3h-2.4V68.9H457.5z"/>
		<path class="st37" d="M474.7,76.9h2.3v18.4h-2.3v-2.5c-0.6,0.8-1.3,1.4-2.1,1.8c-1.2,0.7-2.4,1-3.7,1c-1.9,0-3.4-0.6-4.4-1.7
			c-1.1-1.1-1.6-2.6-1.6-4.4V76.9h2.3v12.6c0,1.2,0.3,2.2,1,2.9c0.7,0.7,1.6,1,2.8,1c1.3,0,2.7-0.6,4-1.7c0.7-0.6,1.2-1.3,1.7-2.2
			L474.7,76.9L474.7,76.9z"/>
		<path class="st37" d="M480.5,79v-2.2h3.1v-4.6h2.3v4.6h3.6V79H486v12.8c0,0.4,0.1,0.8,0.3,1c0.2,0.2,0.6,0.3,1,0.3h2.3v2.2h-2.9
			c-0.8,0-1.6-0.3-2.2-0.9s-0.9-1.4-0.9-2.3V79H480.5z"/>
		<path class="st37" d="M495.8,70v3.2h-2.7V70H495.8z M495.7,76.9v18.4h-2.4V76.9H495.7z"/>
		<path class="st37" d="M508.9,76.6c2.6,0,4.6,0.9,6.2,2.6c1.5,1.7,2.3,4,2.3,6.7c0,2.8-0.8,5.1-2.3,6.9s-3.6,2.7-6.1,2.7
			c-2.4,0-4.5-0.9-6.1-2.7c-1.6-1.8-2.4-4.1-2.4-6.9c0-2.7,0.8-4.9,2.3-6.7C504.3,77.5,506.3,76.6,508.9,76.6z M508.9,78.7
			c-1.7,0-3.2,0.6-4.3,1.9c-1.1,1.3-1.7,3-1.7,5.3s0.6,4.1,1.7,5.4s2.6,2,4.3,2c1.7,0,3.1-0.6,4.2-1.9s1.7-3.1,1.7-5.5
			c0-2.2-0.6-4-1.7-5.2S510.5,78.7,508.9,78.7z"/>
		<path class="st37" d="M524.3,95.2H522V76.9h2.3v2.5c0.7-0.8,1.4-1.4,2.2-1.8c1.2-0.7,2.4-1,3.6-1c1.9,0,3.4,0.5,4.4,1.6
			c1.1,1.1,1.6,2.5,1.6,4.3v12.7h-2.4V82.6c0-1.2-0.3-2.1-1-2.8c-0.7-0.7-1.6-1.1-2.8-1.1c-1.3,0-2.6,0.5-3.9,1.5
			c-0.7,0.6-1.4,1.4-1.9,2.5v12.5H524.3z"/>
		<path class="st37" d="M540.3,89.9h2.3c0,1,0.5,1.8,1.3,2.5c0.8,0.6,2.1,0.9,3.9,0.9c1.3,0,2.5-0.2,3.3-0.7
			c0.9-0.5,1.3-1.2,1.3-2.2s-0.4-1.7-1.1-2.2c-0.7-0.5-2.1-0.9-4.1-1.2c-2.3-0.3-4-1-5-1.8c-1-0.9-1.5-2.1-1.5-3.7
			c0-1.4,0.6-2.6,1.7-3.5c1.1-0.9,2.8-1.3,4.8-1.3c2.2,0,3.9,0.5,5.1,1.5c1.2,1,1.8,2.3,1.8,3.8h-2.3c-0.1-1-0.6-1.8-1.3-2.4
			c-0.8-0.5-1.8-0.8-3.2-0.8c-1.3,0-2.4,0.2-3.1,0.7c-0.7,0.5-1.1,1.2-1.1,2.1c0,1,0.4,1.8,1.3,2.3c0.9,0.5,2.3,0.8,4.2,1.2
			c2.4,0.4,4.1,1,5,1.8c0.9,0.9,1.4,2,1.4,3.5c0,1.6-0.6,2.9-1.8,3.8s-2.9,1.4-5.3,1.4c-2.5,0-4.4-0.5-5.6-1.6
			C540.9,92.9,540.3,91.6,540.3,89.9z"/>
	</g>
</g>
<g>
	<g>
		<path class="st37" d="M663.7,83.2c0,3.7-1,6.7-3,8.9c-2,2.3-4.8,3.4-8.3,3.4s-6.3-1.1-8.4-3.4c-2.1-2.3-3.1-5.3-3.1-8.9
			c0-3.7,1-6.8,3.1-9.2c2.1-2.4,4.8-3.6,8.3-3.6s6.3,1.2,8.3,3.6C662.7,76.4,663.7,79.4,663.7,83.2z M661.2,83.2
			c0-3.1-0.8-5.7-2.4-7.7c-1.6-2-3.7-3-6.4-3s-4.8,1-6.4,3c-1.6,2-2.5,4.6-2.5,7.7c0,3.2,0.8,5.8,2.5,7.6c1.7,1.8,3.8,2.7,6.5,2.7
			c2.6,0,4.7-0.9,6.3-2.7C660.4,88.9,661.2,86.4,661.2,83.2z"/>
		<path class="st37" d="M668.8,76.9h2.4v2.9c0.9-1.2,1.8-2,2.7-2.4c1.2-0.5,2.4-0.8,3.5-0.8c2.2,0,4.1,0.8,5.5,2.5
			c1.5,1.7,2.2,4,2.2,7c0,2.8-0.7,5.1-2.2,6.8c-1.5,1.8-3.4,2.6-5.8,2.6c-1.1,0-2.3-0.3-3.4-0.8c-0.9-0.4-1.7-1.2-2.5-2.2v11h-2.4
			V76.9z M671.1,88.2c0.2,1.4,0.9,2.7,2,3.7s2.4,1.5,3.9,1.5c1.6,0,3-0.6,4-1.9s1.6-3.1,1.6-5.4c0-2.4-0.5-4.2-1.6-5.4
			c-1-1.3-2.4-1.9-4-1.9c-1.7,0-3,0.5-4,1.5s-1.7,2.2-1.9,3.7V88.2z"/>
		<path class="st37" d="M693,91.7c1,1.1,2.5,1.7,4.4,1.7c1.5,0,2.6-0.3,3.5-0.8s1.3-1.3,1.5-2.2h2.4c-0.3,1.7-1.1,2.9-2.4,3.8
			c-1.3,0.9-2.9,1.4-4.9,1.4c-2.5,0-4.5-0.8-6.1-2.5c-1.5-1.7-2.3-4-2.3-6.9c0-2.8,0.7-5,2.2-6.8s3.5-2.7,6-2.7
			c2.4,0,4.2,0.9,5.6,2.6c1.4,1.7,2.1,4.3,2.1,7.8h-13.4C691.5,89,692,90.6,693,91.7z M700.9,80.5c-0.9-1.2-2.2-1.7-3.8-1.7
			s-2.9,0.6-4,1.7c-1,1-1.6,2.4-1.7,4.2h10.8C702.2,82.9,701.8,81.5,700.9,80.5z"/>
		<path class="st37" d="M711.8,95.2h-2.3V76.9h2.3v2.5c0.7-0.8,1.4-1.4,2.2-1.8c1.2-0.7,2.4-1,3.6-1c1.9,0,3.4,0.5,4.4,1.6
			c1.1,1.1,1.6,2.5,1.6,4.3v12.7h-2.4V82.6c0-1.2-0.3-2.1-1-2.8c-0.7-0.7-1.6-1.1-2.8-1.1c-1.3,0-2.6,0.5-3.9,1.5
			c-0.7,0.6-1.4,1.4-1.9,2.5v12.5H711.8z"/>
		<path class="st37" d="M737.5,88.3h2.4c0,1.6,0.7,2.8,2,3.8c1.3,0.9,3,1.4,5.3,1.4c2.2,0,3.9-0.4,5.1-1.3c1.2-0.9,1.8-2,1.8-3.4
			c0-1.6-0.5-2.8-1.6-3.5s-2.9-1.3-5.4-1.7c-3-0.5-5.2-1.3-6.7-2.4c-1.4-1.1-2.1-2.6-2.1-4.6c0-1.9,0.8-3.4,2.3-4.5s3.6-1.7,6.4-1.7
			c2.5,0,4.6,0.6,6.1,1.8c1.6,1.2,2.4,2.7,2.4,4.6H753c0-1.2-0.6-2.3-1.7-3.1c-1.1-0.8-2.6-1.3-4.5-1.3c-2.1,0-3.7,0.4-4.7,1.1
			s-1.5,1.7-1.5,3c0,1.4,0.6,2.5,1.8,3.2s3.2,1.3,5.9,1.8s4.8,1.3,6.1,2.4s2,2.7,2,4.9c0,2-0.8,3.7-2.5,4.9c-1.7,1.2-4,1.9-6.8,1.9
			c-3.1,0-5.4-0.7-7.1-2C738.3,92.2,737.5,90.4,737.5,88.3z"/>
		<path class="st37" d="M768.2,76.6c2.6,0,4.6,0.9,6.2,2.6c1.5,1.7,2.3,4,2.3,6.7c0,2.8-0.8,5.1-2.3,6.9s-3.6,2.7-6.1,2.7
			c-2.4,0-4.5-0.9-6.1-2.7c-1.6-1.8-2.4-4.1-2.4-6.9c0-2.7,0.8-4.9,2.3-6.7C763.6,77.5,765.6,76.6,768.2,76.6z M768.2,78.7
			c-1.7,0-3.2,0.6-4.3,1.9s-1.7,3-1.7,5.3s0.6,4.1,1.7,5.4s2.6,2,4.3,2s3.1-0.6,4.2-1.9c1.2-1.3,1.7-3.1,1.7-5.5
			c0-2.2-0.6-4-1.7-5.2C771.3,79.4,769.8,78.7,768.2,78.7z"/>
		<path class="st37" d="M793,76.9h2.3v18.4H793v-2.5c-0.6,0.8-1.3,1.4-2.1,1.8c-1.2,0.7-2.4,1-3.7,1c-1.9,0-3.4-0.6-4.4-1.7
			s-1.6-2.6-1.6-4.4V76.9h2.3v12.6c0,1.2,0.3,2.2,1,2.9c0.7,0.7,1.6,1,2.8,1c1.3,0,2.7-0.6,4-1.7c0.7-0.6,1.2-1.3,1.7-2.2V76.9z"/>
		<path class="st37" d="M802.9,95.2h-2.3V76.9h2.3V80c0.7-1,1.5-1.8,2.4-2.3c1.2-0.7,2.4-1,3.6-1v2.2c-1.4,0-2.8,0.5-4,1.5
			c-0.8,0.7-1.5,1.6-2,2.7V95.2z"/>
		<path class="st37" d="M819.7,95.5c-2.6,0-4.7-0.9-6.2-2.6s-2.2-4.1-2.2-7.1c0-2.7,0.8-4.9,2.3-6.6s3.5-2.6,6-2.6
			c2.3,0,4,0.5,5.2,1.6s1.9,2.4,2.1,4.2h-2.3c-0.1-1-0.6-1.9-1.4-2.6c-0.8-0.7-2-1-3.5-1c-1.8,0-3.2,0.6-4.3,1.9s-1.6,3-1.6,5.2
			c0,2.4,0.5,4.3,1.6,5.6s2.5,1.9,4.3,1.9c1.6,0,2.8-0.4,3.6-1.1s1.2-1.6,1.3-2.7h2.3c-0.1,1.7-0.8,3.2-2.1,4.3
			C823.6,95,821.9,95.5,819.7,95.5z"/>
		<path class="st37" d="M834.5,91.7c1,1.1,2.5,1.7,4.4,1.7c1.5,0,2.6-0.3,3.5-0.8c0.8-0.6,1.3-1.3,1.5-2.2h2.4
			c-0.3,1.7-1.1,2.9-2.4,3.8c-1.3,0.9-2.9,1.4-4.9,1.4c-2.5,0-4.5-0.8-6.1-2.5c-1.5-1.7-2.3-4-2.3-6.9c0-2.8,0.7-5,2.2-6.8
			s3.5-2.7,6-2.7c2.4,0,4.2,0.9,5.6,2.6c1.4,1.7,2.1,4.3,2.1,7.8H833C833,89,833.6,90.6,834.5,91.7z M842.5,80.5
			c-0.9-1.2-2.2-1.7-3.8-1.7s-2.9,0.6-4,1.7c-1,1-1.6,2.4-1.7,4.2h10.8C843.8,82.9,843.3,81.5,842.5,80.5z"/>
	</g>
</g>
<g>
	<g>
		<path class="st37" d="M193.9,517v7.3c0.5-0.7,1-1.1,1.6-1.4c0.8-0.4,1.6-0.6,2.4-0.6c1.7,0,3,0.6,4,1.8s1.5,2.7,1.5,4.7
			s-0.5,3.5-1.5,4.8c-1,1.2-2.3,1.8-4,1.8c-0.9,0-1.7-0.2-2.5-0.6c-0.6-0.3-1.1-0.8-1.6-1.4v1.8h-1.6V517H193.9z M201.8,528.7
			c0-1.5-0.4-2.7-1.1-3.6c-0.7-0.9-1.7-1.4-2.9-1.4c-1.1,0-1.9,0.4-2.7,1.1c-0.7,0.7-1.1,1.5-1.2,2.5v2.7c0.1,1.1,0.5,2,1.2,2.7
			c0.8,0.7,1.7,1.1,2.8,1.1c1.2,0,2.1-0.4,2.8-1.3C201.5,531.6,201.8,530.3,201.8,528.7z"/>
		<path class="st37" d="M206.2,526.2c0-1.2,0.5-2.1,1.4-2.8s2.1-1.1,3.7-1.1c1.7,0,2.9,0.4,3.7,1.1c0.8,0.7,1.2,1.8,1.2,3.2v8.5
			h-1.6v-1.6c-0.7,0.6-1.3,1.1-1.9,1.3c-0.7,0.3-1.6,0.5-2.6,0.5c-1.4,0-2.5-0.3-3.2-1s-1.1-1.6-1.1-2.6c0-1.2,0.6-2.2,1.7-2.9
			c1.1-0.7,2.7-1.1,4.8-1.1h2.3v-1c0-0.9-0.3-1.7-0.8-2.1c-0.5-0.5-1.4-0.7-2.6-0.7c-1.1,0-1.9,0.2-2.6,0.7c-0.6,0.4-0.9,1-0.9,1.8
			h-1.5V526.2z M208.7,529.8c-0.8,0.5-1.2,1.1-1.2,1.9c0,0.6,0.2,1.1,0.7,1.5s1.1,0.6,2,0.6c0.8,0,1.7-0.2,2.5-0.6
			c0.6-0.3,1.3-0.8,2-1.6v-2.5h-2.4C210.7,529.1,209.5,529.4,208.7,529.8z"/>
		<path class="st37" d="M225.1,535.3c-1.8,0-3.2-0.6-4.2-1.8s-1.5-2.8-1.5-4.9c0-1.8,0.5-3.4,1.6-4.5c1-1.2,2.4-1.8,4.1-1.8
			c1.6,0,2.8,0.4,3.6,1.1c0.9,0.7,1.3,1.7,1.4,2.9h-1.6c-0.1-0.7-0.4-1.3-1-1.8s-1.4-0.7-2.4-0.7c-1.2,0-2.2,0.4-2.9,1.3
			s-1.1,2.1-1.1,3.6c0,1.7,0.4,2.9,1.1,3.8c0.7,0.9,1.7,1.3,3,1.3c1.1,0,1.9-0.3,2.4-0.8s0.8-1.1,0.9-1.8h1.6
			c-0.1,1.2-0.5,2.2-1.4,3C227.8,534.9,226.6,535.3,225.1,535.3z"/>
		<path class="st37" d="M240.6,522.4h1.9l-4.7,4.6l5.4,8h-1.8l-4.7-7l-1.9,1.9v5.1h-1.6v-18h1.6v11.2L240.6,522.4z"/>
		<path class="st37" d="M254,522.4h1.6V536c0,1.6-0.5,2.9-1.4,3.6c-1,0.8-2.3,1.2-4.1,1.2c-1.7,0-2.9-0.3-3.8-1
			c-0.9-0.6-1.4-1.6-1.5-2.8h1.7c0.1,0.8,0.4,1.4,0.9,1.7c0.6,0.4,1.4,0.5,2.6,0.5c1.3,0,2.3-0.3,2.9-0.9s1-1.4,1-2.4v-2.7
			c-0.4,0.6-0.9,1.1-1.4,1.4c-0.8,0.4-1.6,0.6-2.4,0.6c-1.7,0-3-0.6-4-1.7c-1-1.2-1.5-2.7-1.5-4.6c0-2.1,0.5-3.7,1.5-4.9
			s2.3-1.8,4-1.8c0.8,0,1.6,0.2,2.3,0.5c0.5,0.3,1.1,0.7,1.6,1.3L254,522.4L254,522.4z M254,529.4v-1.7c0-1-0.4-2-1.1-2.7
			c-0.7-0.8-1.6-1.2-2.7-1.2c-1.2,0-2.1,0.5-2.8,1.4c-0.6,0.9-1,2.2-1,3.8c0,1.4,0.3,2.6,1,3.5s1.6,1.4,2.8,1.4c1.1,0,2-0.4,2.7-1.2
			C253.6,531.8,254,530.8,254,529.4z"/>
		<path class="st37" d="M260.5,535.1h-1.6v-12.6h1.6v2.1c0.5-0.7,1-1.2,1.6-1.6c0.8-0.5,1.6-0.7,2.5-0.7v1.5c-1,0-1.9,0.3-2.8,1
			c-0.6,0.5-1,1.1-1.3,1.8L260.5,535.1L260.5,535.1z"/>
		<path class="st37" d="M272.1,522.3c1.8,0,3.2,0.6,4.2,1.8s1.6,2.7,1.6,4.6c0,1.9-0.5,3.5-1.6,4.7s-2.5,1.9-4.2,1.9
			s-3.1-0.6-4.2-1.9c-1.1-1.2-1.6-2.8-1.6-4.7s0.5-3.4,1.6-4.6S270.4,522.3,272.1,522.3z M272.1,523.7c-1.2,0-2.2,0.4-3,1.3
			c-0.8,0.9-1.2,2.1-1.2,3.6c0,1.6,0.4,2.8,1.2,3.7c0.8,0.9,1.8,1.4,3,1.4s2.1-0.4,2.9-1.3s1.2-2.1,1.2-3.8c0-1.5-0.4-2.7-1.2-3.6
			C274.2,524.2,273.3,523.7,272.1,523.7z"/>
		<path class="st37" d="M289.2,522.4h1.6V535h-1.6v-1.8c-0.4,0.5-0.9,0.9-1.5,1.2c-0.8,0.5-1.7,0.7-2.6,0.7c-1.3,0-2.3-0.4-3-1.1
			c-0.7-0.8-1.1-1.8-1.1-3v-8.7h1.6v8.7c0,0.8,0.2,1.5,0.7,2s1.1,0.7,1.9,0.7c0.9,0,1.8-0.4,2.8-1.2c0.5-0.4,0.9-0.9,1.2-1.5V522.4z
			"/>
		<path class="st37" d="M296.3,535.1h-1.6v-12.6h1.6v1.8c0.5-0.5,1-1,1.5-1.2c0.8-0.4,1.7-0.7,2.5-0.7c1.3,0,2.3,0.4,3.1,1.1
			c0.7,0.8,1.1,1.7,1.1,3v8.7h-1.6v-8.7c0-0.8-0.2-1.5-0.7-2s-1.1-0.7-1.9-0.7c-0.9,0-1.8,0.4-2.7,1.1c-0.5,0.4-0.9,1-1.3,1.7V535.1
			z"/>
		<path class="st37" d="M317,517h1.6v18.1H317v-1.7c-0.5,0.7-1.1,1.1-1.6,1.4c-0.7,0.3-1.4,0.5-2.1,0.5c-1.8,0-3.2-0.6-4.2-1.8
			s-1.5-2.7-1.5-4.7c0-2.1,0.5-3.7,1.5-4.8c1-1.2,2.4-1.7,4.1-1.7c0.8,0,1.6,0.2,2.3,0.6c0.5,0.3,1.1,0.7,1.6,1.4L317,517L317,517z
			 M309.2,528.8c0,1.5,0.4,2.6,1.1,3.6c0.7,0.9,1.6,1.4,2.8,1.4c1.1,0,2.1-0.4,2.8-1.2s1.1-1.8,1.1-2.8V528c0-1.2-0.4-2.2-1.1-3
			s-1.6-1.2-2.7-1.2c-1.2,0-2.2,0.4-2.9,1.3C309.6,525.9,309.2,527.2,309.2,528.8z"/>
	</g>
</g>
<g>
	<path class="st38" d="M544.5,517.2v7.3c0.5-0.7,1-1.1,1.6-1.4c0.8-0.4,1.6-0.6,2.4-0.6c1.7,0,3,0.6,4,1.8s1.5,2.7,1.5,4.7
		s-0.5,3.5-1.5,4.8c-1,1.2-2.3,1.8-4,1.8c-0.9,0-1.7-0.2-2.5-0.6c-0.6-0.3-1.1-0.8-1.6-1.4v1.8h-1.6v-18.1L544.5,517.2L544.5,517.2z
		 M552.4,528.9c0-1.5-0.4-2.7-1.1-3.6c-0.7-0.9-1.7-1.4-2.9-1.4c-1.1,0-1.9,0.4-2.7,1.1c-0.7,0.7-1.1,1.5-1.2,2.5v2.7
		c0.1,1.1,0.5,2,1.2,2.7c0.8,0.7,1.7,1.1,2.8,1.1c1.2,0,2.1-0.4,2.8-1.3C552.1,531.8,552.4,530.5,552.4,528.9z"/>
	<path class="st38" d="M556.8,526.4c0-1.2,0.5-2.1,1.4-2.8s2.1-1.1,3.7-1.1c1.7,0,2.9,0.4,3.7,1.1c0.8,0.7,1.2,1.8,1.2,3.2v8.5h-1.6
		v-1.6c-0.7,0.6-1.3,1.1-1.9,1.3c-0.7,0.3-1.6,0.5-2.6,0.5c-1.4,0-2.5-0.3-3.2-1s-1.1-1.6-1.1-2.6c0-1.2,0.6-2.2,1.7-2.9
		c1.1-0.7,2.7-1.1,4.8-1.1h2.3v-1c0-0.9-0.3-1.7-0.8-2.1c-0.5-0.5-1.4-0.7-2.6-0.7c-1.1,0-1.9,0.2-2.6,0.7c-0.6,0.4-0.9,1-0.9,1.8
		h-1.5V526.4z M559.3,530c-0.8,0.5-1.2,1.1-1.2,1.9c0,0.6,0.2,1.1,0.7,1.5s1.1,0.6,2,0.6c0.8,0,1.7-0.2,2.5-0.6
		c0.6-0.3,1.3-0.8,2-1.6v-2.5h-2.4C561.3,529.3,560.1,529.6,559.3,530z"/>
	<path class="st38" d="M569,524.2v-1.5h2.2v-3.2h1.6v3.2h2.5v1.5h-2.5v8.8c0,0.3,0.1,0.5,0.2,0.7c0.2,0.1,0.4,0.2,0.7,0.2h1.6v1.5
		h-2c-0.6,0-1.1-0.2-1.5-0.6c-0.4-0.4-0.6-0.9-0.6-1.6v-9L569,524.2L569,524.2z"/>
	<path class="st38" d="M577.4,526.4c0-1.2,0.5-2.1,1.4-2.8s2.1-1.1,3.7-1.1c1.7,0,2.9,0.4,3.7,1.1c0.8,0.7,1.2,1.8,1.2,3.2v8.5h-1.6
		v-1.6c-0.7,0.6-1.3,1.1-1.9,1.3c-0.7,0.3-1.6,0.5-2.6,0.5c-1.4,0-2.5-0.3-3.2-1s-1.1-1.6-1.1-2.6c0-1.2,0.6-2.2,1.7-2.9
		c1.1-0.7,2.7-1.1,4.8-1.1h2.3v-1c0-0.9-0.3-1.7-0.8-2.1c-0.5-0.5-1.4-0.7-2.6-0.7c-1.1,0-1.9,0.2-2.6,0.7c-0.6,0.4-0.9,1-0.9,1.8
		h-1.5V526.4z M579.9,530c-0.8,0.5-1.2,1.1-1.2,1.9c0,0.6,0.2,1.1,0.7,1.5s1.1,0.6,2,0.6c0.8,0,1.7-0.2,2.5-0.6
		c0.6-0.3,1.3-0.8,2-1.6v-2.5h-2.4C581.9,529.3,580.7,529.6,579.9,530z"/>
	<path class="st38" d="M603,518.4v16.9h-1.6v-15.2l-2.8,2.8l-1-0.9l3.6-3.6H603z"/>
	<path class="st38" d="M612.9,532.9v2.4h-2.4v-2.4H612.9z"/>
	<path class="st38" d="M626.6,527.1c0,2.8-0.4,5-1.2,6.3c-0.8,1.4-2.2,2.1-4,2.1s-3.1-0.7-4-2.1c-0.9-1.4-1.3-3.5-1.3-6.3
		c0-3.1,0.4-5.4,1.2-6.8s2.2-2.1,4.1-2.1c1.9,0,3.2,0.7,4,2.1S626.6,524,626.6,527.1z M625,527.1c0-2.6-0.3-4.5-0.8-5.7
		c-0.6-1.2-1.5-1.8-2.8-1.8s-2.2,0.6-2.8,1.8s-0.9,3.1-0.9,5.7c0,2.3,0.3,4.1,0.9,5.2c0.6,1.2,1.5,1.8,2.8,1.8
		c1.2,0,2.1-0.6,2.7-1.8C624.7,531.1,625,529.4,625,527.1z"/>
</g>
<g>
	<path class="st38" d="M907,523.3c0-1.4,0.5-2.6,1.5-3.6s2.2-1.5,3.7-1.5s2.7,0.4,3.6,1.3c0.9,0.9,1.4,2,1.4,3.5
		c0,1-0.3,2.1-0.9,3.1s-1.7,2.3-3.3,3.9l-4.2,3.9h8.4v1.4H907v-1.5l4.5-4.4c1.6-1.6,2.7-2.8,3.3-3.7s0.8-1.8,0.8-2.7
		c0-1-0.3-1.8-0.9-2.4c-0.6-0.6-1.4-0.9-2.5-0.9s-2,0.3-2.6,1s-1,1.5-1,2.6L907,523.3L907,523.3z"/>
	<path class="st38" d="M935.8,517.2h1.6v18.1h-1.6v-1.7c-0.5,0.7-1.1,1.1-1.6,1.4c-0.7,0.3-1.4,0.5-2.1,0.5c-1.8,0-3.2-0.6-4.2-1.8
		s-1.5-2.7-1.5-4.7c0-2.1,0.5-3.7,1.5-4.8c1-1.2,2.4-1.7,4.1-1.7c0.8,0,1.6,0.2,2.3,0.6c0.5,0.3,1.1,0.7,1.6,1.4L935.8,517.2
		L935.8,517.2z M928,529.1c0,1.5,0.4,2.6,1.1,3.6c0.7,0.9,1.6,1.4,2.8,1.4c1.1,0,2.1-0.4,2.8-1.2s1.1-1.8,1.1-2.8v-1.8
		c0-1.2-0.4-2.2-1.1-3s-1.6-1.2-2.7-1.2c-1.2,0-2.2,0.4-2.9,1.3S928,527.4,928,529.1z"/>
	<path class="st38" d="M940.8,526.4c0-1.2,0.5-2.1,1.4-2.8s2.1-1.1,3.7-1.1c1.7,0,2.9,0.4,3.7,1.1c0.8,0.7,1.2,1.8,1.2,3.2v8.5h-1.6
		v-1.6c-0.7,0.6-1.3,1.1-1.9,1.3c-0.7,0.3-1.6,0.5-2.6,0.5c-1.4,0-2.5-0.3-3.2-1s-1.1-1.6-1.1-2.6c0-1.2,0.6-2.2,1.7-2.9
		c1.1-0.7,2.7-1.1,4.8-1.1h2.3v-1c0-0.9-0.3-1.7-0.8-2.1c-0.5-0.5-1.4-0.7-2.6-0.7c-1.1,0-1.9,0.2-2.6,0.7c-0.6,0.4-0.9,1-0.9,1.8
		h-1.5V526.4z M943.3,530c-0.8,0.5-1.2,1.1-1.2,1.9c0,0.6,0.2,1.1,0.7,1.5s1.1,0.6,2,0.6c0.8,0,1.7-0.2,2.5-0.6
		c0.6-0.3,1.3-0.8,2-1.6v-2.5h-2.4C945.3,529.3,944.1,529.6,943.3,530z"/>
	<path class="st38" d="M962.1,522.7h1.8l-5.7,16.5c-0.2,0.6-0.6,1.1-1,1.4c-0.5,0.3-1,0.5-1.6,0.5h-2.3v-1.5h1.9
		c0.4,0,0.7-0.1,1-0.3s0.5-0.5,0.7-0.9l1.1-3.1l-5.1-12.6h1.8l4.1,10.5L962.1,522.7z"/>
	<path class="st38" d="M965.1,531.7h1.6c0,0.7,0.3,1.3,0.9,1.7s1.5,0.6,2.7,0.6c0.9,0,1.7-0.2,2.3-0.5s0.9-0.8,0.9-1.5
		s-0.2-1.2-0.7-1.5c-0.5-0.4-1.4-0.6-2.8-0.8c-1.6-0.2-2.8-0.7-3.5-1.3s-1-1.5-1-2.6c0-1,0.4-1.8,1.2-2.4c0.8-0.6,1.9-0.9,3.3-0.9
		c1.5,0,2.7,0.3,3.5,1s1.2,1.6,1.2,2.6h-1.6c-0.1-0.7-0.4-1.3-0.9-1.6c-0.5-0.4-1.3-0.6-2.2-0.6s-1.6,0.2-2.2,0.5
		c-0.5,0.3-0.8,0.8-0.8,1.4c0,0.7,0.3,1.2,0.9,1.6c0.6,0.3,1.6,0.6,2.9,0.8c1.6,0.3,2.8,0.7,3.4,1.3s0.9,1.4,0.9,2.4
		c0,1.1-0.4,2-1.2,2.6s-2,1-3.7,1s-3-0.4-3.9-1.1C965.6,533.7,965.1,532.8,965.1,531.7z"/>
	<path class="st38" d="M984.2,526.4c0-1.2,0.5-2.1,1.4-2.8s2.1-1.1,3.7-1.1c1.7,0,2.9,0.4,3.7,1.1c0.8,0.7,1.2,1.8,1.2,3.2v8.5h-1.6
		v-1.6c-0.7,0.6-1.3,1.1-1.9,1.3c-0.7,0.3-1.6,0.5-2.6,0.5c-1.4,0-2.5-0.3-3.2-1s-1.1-1.6-1.1-2.6c0-1.2,0.6-2.2,1.7-2.9
		c1.1-0.7,2.7-1.1,4.8-1.1h2.3v-1c0-0.9-0.3-1.7-0.8-2.1c-0.5-0.5-1.4-0.7-2.6-0.7c-1.1,0-1.9,0.2-2.6,0.7c-0.6,0.4-0.9,1-0.9,1.8
		h-1.5V526.4z M986.7,530c-0.8,0.5-1.2,1.1-1.2,1.9c0,0.6,0.2,1.1,0.7,1.5s1.1,0.6,2,0.6c0.8,0,1.7-0.2,2.5-0.6
		c0.6-0.3,1.3-0.8,2-1.6v-2.5h-2.4C988.7,529.3,987.5,529.6,986.7,530z"/>
	<path class="st38" d="M1006.5,522.7h1.6v13.5c0,1.6-0.5,2.9-1.4,3.6c-1,0.8-2.3,1.2-4.1,1.2c-1.7,0-2.9-0.3-3.8-1
		c-0.9-0.6-1.4-1.6-1.5-2.8h1.7c0.1,0.8,0.4,1.4,0.9,1.7c0.6,0.4,1.4,0.5,2.6,0.5c1.3,0,2.3-0.3,2.9-0.9c0.6-0.6,1-1.4,1-2.4v-2.7
		c-0.4,0.6-0.9,1.1-1.4,1.4c-0.8,0.4-1.6,0.6-2.4,0.6c-1.7,0-3-0.6-4-1.7c-1-1.2-1.5-2.7-1.5-4.6c0-2.1,0.5-3.7,1.5-4.9
		s2.3-1.8,4-1.8c0.8,0,1.6,0.2,2.3,0.5c0.5,0.3,1.1,0.7,1.6,1.3L1006.5,522.7L1006.5,522.7z M1006.5,529.6v-1.7c0-1-0.4-2-1.1-2.7
		s-1.6-1.2-2.7-1.2c-1.2,0-2.1,0.5-2.8,1.4c-0.6,0.9-1,2.2-1,3.8c0,1.4,0.3,2.6,1,3.5s1.6,1.4,2.8,1.4c1.1,0,2-0.4,2.7-1.2
		S1006.5,531,1006.5,529.6z"/>
	<path class="st38" d="M1016.9,522.5c1.8,0,3.2,0.6,4.2,1.8s1.6,2.7,1.6,4.6c0,1.9-0.5,3.5-1.6,4.7s-2.5,1.9-4.2,1.9
		s-3.1-0.6-4.2-1.9c-1.1-1.2-1.6-2.8-1.6-4.7s0.5-3.4,1.6-4.6C1013.7,523.1,1015.1,522.5,1016.9,522.5z M1016.9,524
		c-1.2,0-2.2,0.4-3,1.3s-1.2,2.1-1.2,3.6c0,1.6,0.4,2.8,1.2,3.7s1.8,1.4,3,1.4s2.1-0.4,2.9-1.3s1.2-2.1,1.2-3.8
		c0-1.5-0.4-2.7-1.2-3.6C1019,524.4,1018,524,1016.9,524z"/>
</g>
<g>
	<g>
		<defs>
			<circle id="SVGID_00000124854319718451845140000016823686186294248620_" cx="143.9" cy="441.2" r="23.1"/>
		</defs>
		<clipPath id="SVGID_00000098191318076673634580000010016622976284513675_">
			<use xlink:href="#SVGID_00000124854319718451845140000016823686186294248620_"  style="overflow:visible;"/>
		</clipPath>
		<g style="clip-path:url(#SVGID_00000098191318076673634580000010016622976284513675_);">
			<path class="st40" d="M168.2,465.6c-16.2,0-32.4,0-48.6,0c0-16.2,0-32.4,0-48.6c16.2,0,32.4,0,48.6,0
				C168.2,433.1,168.2,449.3,168.2,465.6z M131.7,453.5c0-0.1,0-0.2,0-0.3c0-8,0-16,0-23.9c0-0.4,0-0.3,0.3-0.3c3.7,0,7.4,0,11.2,0
				c0.1,0,0.1,0,0.2,0c0.1,0,0.2,0,0.2-0.1c0.2-0.3,0.4-0.6,0.5-0.9c0.3-0.5,0.6-1,1-1.6c0,0,0.1-0.1,0.1-0.2c-0.1,0-0.1,0-0.2,0
				c-5.2,0-10.4,0-15.7,0c-0.3,0-0.3,0-0.3,0.3c0,9.8,0,19.7,0,29.5c0,0.1,0,0.1,0,0.2h0.1c0.1,0,0.1,0,0.2,0c2,0,4.1,0,6.1,0
				c0.1,0,0.1,0,0.2,0h0.1c0-0.1,0.1-0.1,0.1-0.2c0.6-1,1.3-2.1,1.9-3.1c2.1-3.4,4.1-6.8,6.2-10.2c0.1-0.2,0.1-0.2,0.3-0.2
				c3.9,0,7.9,0,11.8,0c0.1,0,0.1,0,0.2,0c0,0.1,0,0.2,0,0.3c0,4,0,8,0,12c0,0.4,0,0.7,0,1.1c0,0.2,0,0.2,0.2,0.2c0.7,0,1.5,0,2.2,0
				c0.3,0,0.3,0,0.3-0.3c0-9.8,0-19.6,0-29.4c0-0.3,0-0.3-0.3-0.3c-2.6,0-5.1,0-7.7,0h-0.1c-0.1,0-0.1,0-0.1,0.1
				c-0.1,0.2-0.3,0.5-0.4,0.7c-3.3,5.4-6.6,10.7-9.8,16.1c-2.1,3.4-4.2,6.8-6.3,10.2c0,0.1-0.1,0.2-0.1,0.2c-0.1,0-0.2,0-0.3,0
				C133.1,453.5,132.4,453.5,131.7,453.5z"/>
			<path class="st41" d="M128.9,456.2c0-0.1,0-0.1,0-0.2c0-9.8,0-19.7,0-29.5c0-0.3,0-0.3,0.3-0.3c5.2,0,10.4,0,15.7,0
				c0.1,0,0.1,0,0.2,0c0,0.1,0,0.1-0.1,0.2c-0.3,0.5-0.6,1-1,1.6c-0.2,0.3-0.4,0.6-0.5,0.9c-0.1,0.1-0.1,0.1-0.2,0.1
				c-0.1,0-0.1,0-0.2,0c-3.7,0-7.4,0-11.2,0c-0.4,0-0.3,0-0.3,0.3c0,8,0,16,0,23.9c0,0.1,0,0.2,0,0.3c0.1,0.1,0.1,0,0.2,0
				c0.7,0,1.3,0,2,0c0.1,0,0.1,0,0.2,0c0.1-0.1,0.1-0.1,0.1-0.2c2.1-3.4,4.2-6.8,6.3-10.2c3.3-5.4,6.6-10.7,9.8-16.1
				c0.1-0.2,0.3-0.4,0.4-0.7c0-0.1,0.1-0.1,0.1-0.1h0.1c2.6,0,5.1,0,7.7,0c0.3,0,0.3,0,0.3,0.3c0,9.8,0,19.6,0,29.4
				c0,0.3,0,0.3-0.3,0.3c-0.7,0-1.5,0-2.2,0c-0.2,0-0.2,0-0.2-0.2c0-0.4,0-0.7,0-1.1c0-4,0-8,0-12c0-0.1,0-0.2,0-0.3
				c-0.1,0-0.1,0-0.2,0c-3.9,0-7.9,0-11.8,0c-0.2,0-0.2,0-0.3,0.2c-2.1,3.4-4.1,6.8-6.2,10.2c-0.6,1-1.3,2.1-1.9,3.1
				c0,0.1-0.1,0.1-0.1,0.2c-0.1,0-0.2,0-0.3,0C133.2,456.2,131.1,456.2,128.9,456.2z M156.2,429c-0.1-0.1-0.2,0-0.3,0
				c-0.6,0-1.2,0-1.7,0s-1.1,0-1.6,0c-0.1,0-0.2,0-0.3,0c0,0.1-0.1,0.1-0.1,0.2c-2.1,3.5-4.3,7-6.4,10.5c0,0.1-0.1,0.1-0.1,0.2v0.1
				c0.1,0,0.1,0,0.2,0c3.3,0,6.7,0,10,0c0.1,0,0.1,0,0.2,0c0.1,0,0.1,0,0.1-0.1s0-0.1,0-0.2c0-0.5,0-1.1,0-1.6c0-2.9,0-5.8,0-8.7
				C156.2,429.1,156.2,429.1,156.2,429z"/>
			<path class="st42" d="M128.9,456.2c2.1,0,4.3,0,6.4,0c0.1,0,0.2,0,0.3,0h-0.1c-0.1,0-0.1,0-0.2,0c-2,0-4.1,0-6.1,0
				C129.2,456.2,129.1,456.2,128.9,456.2C129,456.2,128.9,456.2,128.9,456.2z"/>
			<path class="st42" d="M134.1,453.5c-0.1,0-0.1,0-0.2,0c-0.7,0-1.3,0-2,0c-0.1,0-0.2,0-0.2,0c0.7,0,1.4,0,2.1,0
				C133.9,453.5,134,453.5,134.1,453.5z"/>
			<path class="st40" d="M156.2,429c0,0.1,0,0.2,0,0.3c0,2.9,0,5.8,0,8.7c0,0.5,0,1.1,0,1.6c0,0.1,0,0.1,0,0.2s0,0.1-0.1,0.1
				s-0.1,0-0.2,0c-3.3,0-6.7,0-10,0c-0.1,0-0.1,0-0.2,0c-0.1,0-0.1,0,0-0.1c0-0.1,0.1-0.1,0.1-0.2c2.1-3.5,4.3-7,6.4-10.5
				c0-0.1,0.1-0.1,0.1-0.2c1.2,0,2.5,0,3.7,0C156,429,156.1,429,156.2,429z"/>
			<path class="st42" d="M156.2,429c-0.1,0-0.1,0-0.2,0c-1.2,0-2.5,0-3.7,0c0.1-0.1,0.2,0,0.3,0c0.5,0,1.1,0,1.6,0
				c0.6,0,1.2,0,1.7,0C156,428.9,156.1,428.9,156.2,429z"/>
		</g>
	</g>
</g>
<g>
	<path class="st43" d="M1074.8,369.1H946.3c-4,0-7.2-3.2-7.2-7.2v-39.4c0-4,3.2-7.2,7.2-7.2h128.5c4,0,7.2,3.2,7.2,7.2v39.4
		C1082,365.9,1078.8,369.1,1074.8,369.1z"/>
	<g>
		<g>
			<path class="st37" d="M978.1,346h2.4c-0.1,2.1-0.9,3.7-2.2,4.9c-1.4,1.2-3.3,1.8-5.7,1.8c-2.8,0-5.1-0.9-6.7-2.6
				c-1.7-1.8-2.5-4.2-2.5-7.4c0-3.1,0.8-5.6,2.5-7.4s3.9-2.7,6.7-2.7c2.2,0,4,0.5,5.4,1.6c1.3,1.1,2.1,2.4,2.4,4.1H978
				c-0.2-1.1-0.7-2-1.7-2.6c-0.9-0.7-2.1-1-3.6-1c-2,0-3.6,0.7-4.8,2s-1.9,3.4-1.9,6.1c0,2.6,0.6,4.6,1.8,6c1.2,1.3,2.8,2,4.9,2
				c1.6,0,2.9-0.4,3.9-1.3C977.5,348.6,978,347.4,978.1,346z"/>
			<path class="st37" d="M990.2,337.6c2.2,0,3.9,0.7,5.1,2.1c1.2,1.4,1.8,3.2,1.8,5.4c0,2.2-0.6,4.1-1.8,5.5s-2.9,2.2-5.1,2.2
				c-2.1,0-3.8-0.7-5-2.2s-1.9-3.3-1.9-5.5s0.6-4,1.9-5.4C986.3,338.3,988,337.6,990.2,337.6z M990.2,339.6c-1.3,0-2.4,0.5-3.2,1.4
				s-1.3,2.3-1.3,4.1c0,1.8,0.4,3.1,1.3,4.1s1.9,1.5,3.2,1.5s2.3-0.5,3.2-1.4c0.9-1,1.3-2.4,1.3-4.2c0-1.7-0.4-3.1-1.3-4
				C992.5,340.1,991.4,339.6,990.2,339.6z"/>
			<path class="st37" d="M1010.9,331.6h2.4v20.8h-2.4v-1.9c-0.6,0.8-1.3,1.3-1.8,1.6c-0.8,0.4-1.6,0.6-2.5,0.6c-2,0-3.6-0.7-4.8-2.1
				s-1.8-3.2-1.8-5.5c0-2.4,0.6-4.2,1.7-5.6s2.7-2,4.7-2.1c0.9,0,1.8,0.2,2.6,0.6c0.6,0.3,1.2,0.8,1.9,1.6L1010.9,331.6
				L1010.9,331.6z M1002.5,345.2c0,1.6,0.4,3,1.1,4c0.8,1,1.8,1.5,3.1,1.5c1.2,0,2.2-0.4,3-1.3s1.2-1.9,1.2-3.1v-2.1
				c-0.1-1.3-0.5-2.4-1.3-3.2c-0.8-0.9-1.8-1.3-3-1.3c-1.4,0-2.4,0.5-3.1,1.4S1002.5,343.4,1002.5,345.2z"/>
			<path class="st37" d="M1020.6,349.4c0.8,0.8,1.8,1.2,3.2,1.2c1.1,0,1.9-0.2,2.5-0.6c0.6-0.4,1-0.9,1.1-1.6h2.4
				c-0.2,1.3-0.9,2.3-1.9,3.1c-1.1,0.8-2.4,1.2-4.1,1.2c-2.1,0-3.8-0.7-5-2s-1.8-3.2-1.9-5.5c0-2.2,0.6-4.1,1.8-5.5s2.8-2.1,4.9-2.1
				c2,0,3.5,0.7,4.7,2.1c1.1,1.4,1.7,3.5,1.7,6.3h-10.6C1019.5,347.4,1019.9,348.6,1020.6,349.4z M1026.4,340.8
				c-0.7-0.8-1.6-1.3-2.8-1.3s-2.1,0.4-2.9,1.3c-0.7,0.8-1.1,1.8-1.2,3.1h8C1027.4,342.6,1027.1,341.6,1026.4,340.8z"/>
			<path class="st37" d="M1057.8,339.8l-6.5,10.8l-6.5-10.8H1057.8z"/>
		</g>
	</g>
</g>
<g>
	<path class="st35" d="M917.1,369.1H788.7c-4,0-7.2-3.2-7.2-7.2v-39.4c0-4,3.2-7.2,7.2-7.2h128.5c4,0,7.2,3.2,7.2,7.2v39.4
		C924.4,365.9,921.1,369.1,917.1,369.1z"/>
	<g>
		<path class="st37" d="M809.1,341.5h8.3v9.9h-2.3v-2.8c-0.8,1-1.6,1.8-2.4,2.2c-1.1,0.6-2.3,0.9-3.7,0.9c-2.7,0-4.9-0.9-6.5-2.7
			c-1.7-1.8-2.5-4.2-2.5-7.3c0-3,0.9-5.5,2.6-7.3c1.7-1.8,4-2.8,6.8-2.8c2.1,0,3.9,0.5,5.3,1.5c1.5,1,2.3,2.4,2.6,4.4h-2.4
			c-0.2-1.1-0.8-2.1-1.8-2.8c-1-0.7-2.2-1-3.8-1c-2.1,0-3.8,0.7-5,2.1s-1.8,3.4-1.8,5.9c0,2.7,0.6,4.7,1.9,6s2.8,2,4.7,2
			s3.3-0.6,4.4-1.7s1.6-2.5,1.6-3.9v-0.5h-6L809.1,341.5L809.1,341.5z"/>
		<path class="st37" d="M828,336.5c2.2,0,3.9,0.7,5.1,2.1c1.2,1.4,1.8,3.2,1.8,5.4s-0.6,4.1-1.8,5.5s-2.9,2.2-5.1,2.2
			c-2.1,0-3.8-0.7-5-2.2s-1.9-3.3-1.9-5.5s0.6-4,1.9-5.4S825.8,336.5,828,336.5z M828,338.5c-1.3,0-2.4,0.5-3.2,1.4
			s-1.3,2.3-1.3,4.1s0.4,3.1,1.3,4.1c0.8,1,1.9,1.5,3.2,1.5s2.3-0.5,3.2-1.4s1.3-2.4,1.3-4.2c0-1.7-0.4-3.1-1.3-4
			S829.2,338.5,828,338.5z"/>
		<path class="st37" d="M844.4,338.8v-2h2.5v-3.7h2.4v3.7h2.8v2h-2.8v9.5c0,0.4,0.1,0.6,0.3,0.8s0.5,0.3,0.9,0.3h1.7v2h-2.4
			c-0.8,0-1.5-0.2-2-0.7s-0.8-1.2-0.8-2v-9.8L844.4,338.8L844.4,338.8z"/>
		<path class="st37" d="M857.5,331.3v2.8h-2.6v-2.8H857.5z M857.4,336.7v14.6H855v-14.6H857.4z"/>
		<path class="st37" d="M872.3,351.4H870v-12.6h-2.5v-2h2.5v-2.6c0-1.1,0.3-2,1-2.6c0.7-0.7,1.6-1,2.7-1h2.3v2h-1.8
			c-0.6,0-1.1,0.1-1.3,0.4c-0.3,0.3-0.4,0.7-0.4,1.3v2.4h3.3v2h-3.3v12.7H872.3z"/>
		<path class="st37" d="M880.4,331.3v2.8h-2.6v-2.8H880.4z M880.3,336.7v14.6h-2.4v-14.6H880.3z"/>
		<path class="st37" d="M887,330.6v20.8h-2.4v-20.8H887z"/>
		<path class="st37" d="M894.3,348.4c0.8,0.8,1.8,1.2,3.2,1.2c1.1,0,1.9-0.2,2.5-0.6s1-0.9,1.1-1.6h2.4c-0.2,1.3-0.9,2.3-1.9,3.1
			c-1.1,0.8-2.4,1.2-4.1,1.2c-2.1,0-3.8-0.7-5-2s-1.8-3.2-1.9-5.5c0-2.2,0.6-4.1,1.8-5.5s2.8-2.1,4.9-2.1c2,0,3.5,0.7,4.7,2.1
			c1.1,1.4,1.7,3.5,1.7,6.3h-10.6C893.2,346.4,893.6,347.6,894.3,348.4z M900.1,339.8c-0.7-0.8-1.6-1.3-2.8-1.3s-2.1,0.4-2.9,1.3
			c-0.7,0.8-1.1,1.8-1.2,3.1h8C901.1,341.6,900.8,340.5,900.1,339.8z"/>
	</g>
</g>
<g>
	<g>
		<path class="st38" d="M129.6,510c-2.2,0-4,1.8-4,4v24c0,2.2,1.8,4,4,4h28.6c2.2,0,4-1.8,4-4v-19.4c0-2.2-1.8-4-4-4h-15.4
			c-0.2,0-0.3-0.1-0.5-0.2l-2.1-2.7c-0.8-1-1.9-1.6-3.2-1.6L129.6,510L129.6,510z"/>
	</g>
</g>
<line class="st36" x1="97.6" y1="566.2" x2="1078" y2="566.2"/>
<g>
	<path class="st38" d="M342.2,91.6l-10.5-16.7h2.4l9.1,14.8l9.3-14.8h2.4l-10.5,16.7C344.4,91.6,342.2,91.6,342.2,91.6z"/>
</g>
<g>
	<path class="st38" d="M582.7,91.6l-10.5-16.7h2.4l9.1,14.8l9.3-14.8h2.4l-10.5,16.7C584.9,91.6,582.7,91.6,582.7,91.6z"/>
</g>
<g>
	<path class="st38" d="M870.6,91.6l-10.5-16.7h2.4l9.1,14.8l9.3-14.8h2.4l-10.5,16.7C872.8,91.6,870.6,91.6,870.6,91.6z"/>
</g>
<g>
	<path class="st38" d="M132.8,613.6v-18.7c0-0.3,0.2-0.6,0.6-0.6H145v6.1c0,2.1,1.7,3.9,3.9,3.9h6.1v9.3h3.3v-12.2
		c0-1-0.4-2-1.1-2.7l-6.4-6.4c-0.7-0.7-1.7-1.1-2.7-1.1h-14.6c-2.1,0-3.9,1.7-3.9,3.9v18.7h3.2V613.6z M148.3,594.5L148.3,594.5
		l6.5,6.5l0,0h-5.9c-0.3,0-0.6-0.2-0.6-0.6V594.5z"/>
</g>
<g>
	<path class="st32" d="M478.2,214.5v27.1h16.4v3.7h-21v-30.8H478.2z"/>
	<path class="st32" d="M503.3,213.7v4.7h-4.9v-4.7H503.3z M503.1,222.3v23h-4.5v-23H503.1z"/>
	<path class="st32" d="M513.6,212.7v12.5c0.9-1.1,1.8-1.9,2.7-2.4c1.4-0.7,2.9-1,4.5-1c3.1,0,5.5,1.1,7.3,3.3c1.8,2.2,2.7,5,2.7,8.6
		c0,3.7-0.9,6.6-2.7,8.8c-1.8,2.2-4.3,3.3-7.3,3.3c-1.6,0-3.1-0.4-4.5-1.1c-0.9-0.5-1.8-1.3-2.7-2.4v3h-4.5v-32.5H513.6z
		 M526.2,233.7c0-2.6-0.6-4.6-1.7-6c-1.2-1.5-2.7-2.2-4.7-2.2c-1.7,0-3.1,0.6-4.3,1.7c-1.2,1.1-1.8,2.5-2,4.1v4.5
		c0.1,1.8,0.8,3.3,2,4.5c1.2,1.2,2.7,1.8,4.5,1.8c1.9,0,3.4-0.7,4.5-2.2C525.6,238.5,526.2,236.4,526.2,233.7z"/>
	<path class="st32" d="M540.8,240.3c1.1,1.2,2.7,1.8,4.8,1.8c1.5,0,2.7-0.3,3.7-0.9c0.9-0.6,1.5-1.4,1.7-2.3h4.4
		c-0.3,2-1.4,3.6-3.1,4.9c-1.7,1.3-3.9,1.9-6.7,1.9c-3.5,0-6.2-1-8.2-3.1c-1.9-2.1-2.9-5-2.9-8.7c0-3.5,1-6.4,2.9-8.7
		c1.9-2.2,4.5-3.3,7.9-3.3c3.2,0,5.7,1.1,7.6,3.2c1.9,2.1,2.8,5.5,2.8,10h-16.4C539.2,237.4,539.7,239.1,540.8,240.3z M549.3,227.2
		c-1-1.2-2.4-1.8-4.1-1.8c-1.7,0-3.1,0.6-4.3,1.8c-1,1.1-1.6,2.6-1.8,4.5h11.6C550.7,229.8,550.2,228.3,549.3,227.2z"/>
	<path class="st32" d="M564.4,245.3H560v-23h4.5v3.6c1-1.4,2-2.3,3.1-2.9c1.4-0.8,2.9-1.2,4.4-1.2v4.2c-1.8,0-3.4,0.5-4.9,1.5
		c-1,0.7-1.9,1.7-2.6,3V245.3z"/>
	<path class="st32" d="M572.9,218.2v-3.7h23.8v3.7h-9.5v27.1h-4.6v-27.1H572.9z"/>
	<path class="st32" d="M605,213.7v4.7H600v-4.7H605z M604.8,222.3v23h-4.5v-23H604.8z"/>
	<path class="st32" d="M615.1,245.3h-4.5v-23h4.5v3.1c0.9-1.1,1.7-1.9,2.7-2.4c1.3-0.7,2.6-1.1,4.1-1.1c2.2,0,3.9,0.7,5.1,2.2
		c0.4,0.5,0.8,1.1,1,1.7c1-1.3,2-2.2,3-2.7c1.3-0.8,2.6-1.2,4.1-1.2c2.2,0,4,0.7,5.2,2.1c1.2,1.4,1.9,3.3,1.9,5.7v15.6h-4.5v-15.4
		c0-1.3-0.3-2.4-0.9-3.1c-0.6-0.8-1.5-1.2-2.6-1.2c-1.2,0-2.4,0.5-3.6,1.5c-0.7,0.6-1.2,1.5-1.8,2.7v15.5h-4.5v-15.4
		c0-1.3-0.3-2.4-0.9-3.2c-0.6-0.8-1.5-1.2-2.6-1.2c-1.3,0-2.5,0.6-3.7,1.7c-0.8,0.7-1.4,1.6-1.8,2.8V245.3z"/>
	<path class="st32" d="M653.1,240.3c1.1,1.2,2.7,1.8,4.8,1.8c1.5,0,2.7-0.3,3.7-0.9c0.9-0.6,1.5-1.4,1.7-2.3h4.4
		c-0.3,2-1.4,3.6-3.1,4.9c-1.7,1.3-3.9,1.9-6.7,1.9c-3.5,0-6.2-1-8.2-3.1c-1.9-2.1-2.9-5-2.9-8.7c0-3.5,1-6.4,2.9-8.7
		c1.9-2.2,4.5-3.3,7.9-3.3c3.2,0,5.7,1.1,7.6,3.2c1.9,2.1,2.8,5.5,2.8,10h-16.4C651.5,237.4,652.1,239.1,653.1,240.3z M661.7,227.2
		c-1-1.2-2.4-1.8-4.1-1.8c-1.7,0-3.1,0.6-4.3,1.8c-1,1.1-1.6,2.6-1.8,4.5h11.6C663,229.8,662.5,228.3,661.7,227.2z"/>
	<path class="st32" d="M691,249.5v3.4h-21.5v-3.4H691z"/>
	<path class="st32" d="M699.8,245.3h-4.5v-19.3h-3.9v-3.6h3.9v-3.8c0-1.7,0.6-3.1,1.7-4.2c1.1-1.1,2.6-1.6,4.5-1.6h4.1v3.6h-3
		c-0.9,0-1.6,0.2-2,0.7c-0.4,0.4-0.7,1.1-0.7,2v3.3h5.1v3.6h-5.1V245.3z"/>
	<path class="st32" d="M718.2,221.9c3.6,0,6.4,1.1,8.3,3.3c1.9,2.2,2.9,5,2.9,8.5c0,3.5-1,6.4-2.9,8.6c-1.9,2.3-4.7,3.4-8.3,3.4
		c-3.5,0-6.2-1.1-8.2-3.4c-2-2.3-3-5.1-3-8.7c0-3.4,1-6.3,2.9-8.5C711.9,223,714.7,221.9,718.2,221.9z M718.2,225.4
		c-2,0-3.6,0.7-4.8,2.1c-1.2,1.4-1.8,3.4-1.8,6.1c0,2.7,0.6,4.8,1.8,6.3c1.2,1.5,2.8,2.2,4.8,2.2c1.9,0,3.4-0.7,4.7-2.1
		c1.2-1.4,1.8-3.5,1.8-6.3c0-2.6-0.6-4.7-1.8-6.1C721.7,226.1,720.1,225.4,718.2,225.4z"/>
	<path class="st32" d="M738.6,245.3h-4.5v-23h4.5v3.6c1-1.4,2-2.3,3.1-2.9c1.4-0.8,2.9-1.2,4.4-1.2v4.2c-1.8,0-3.4,0.5-4.9,1.5
		c-1,0.7-1.9,1.7-2.6,3V245.3z"/>
	<path class="st32" d="M767.9,249.5v3.4h-21.5v-3.4H767.9z"/>
	<path class="st32" d="M776.2,240.3c1.1,1.2,2.7,1.8,4.8,1.8c1.5,0,2.7-0.3,3.7-0.9c0.9-0.6,1.5-1.4,1.7-2.3h4.4
		c-0.3,2-1.4,3.6-3.1,4.9c-1.7,1.3-3.9,1.9-6.7,1.9c-3.5,0-6.2-1-8.2-3.1c-1.9-2.1-2.9-5-2.9-8.7c0-3.5,1-6.4,2.9-8.7
		c1.9-2.2,4.5-3.3,7.9-3.3c3.2,0,5.7,1.1,7.6,3.2c1.9,2.1,2.8,5.5,2.8,10h-16.4C774.6,237.4,775.1,239.1,776.2,240.3z M784.8,227.2
		c-1-1.2-2.4-1.8-4.1-1.8c-1.7,0-3.1,0.6-4.3,1.8c-1,1.1-1.6,2.6-1.8,4.5h11.6C786.1,229.8,785.6,228.3,784.8,227.2z"/>
	<path class="st32" d="M793.2,225.9v-3.6h3.9v-5.7h4.5v5.7h4.5v3.6h-4.5v14c0,0.6,0.2,1,0.5,1.3c0.3,0.3,0.8,0.4,1.5,0.4h2.6v3.6
		H802c-1.5,0-2.7-0.4-3.6-1.2c-0.9-0.8-1.3-2-1.3-3.5v-14.6H793.2z"/>
	<path class="st32" d="M824.7,222.3h4.5v23h-4.5v-2.8c-0.8,0.9-1.7,1.7-2.7,2.1c-1.4,0.7-3,1.1-4.6,1.1c-2.4,0-4.2-0.7-5.6-2
		c-1.3-1.4-2-3.2-2-5.6v-15.7h4.5v15.3c0,1.5,0.4,2.6,1.1,3.3c0.7,0.8,1.8,1.2,3.1,1.2c1.4,0,2.8-0.6,4.2-1.7
		c0.8-0.6,1.4-1.5,1.9-2.6V222.3z"/>
	<path class="st32" d="M832.5,225.9v-3.6h3.9v-5.7h4.5v5.7h4.5v3.6h-4.5v14c0,0.6,0.2,1,0.5,1.3c0.3,0.3,0.8,0.4,1.5,0.4h2.6v3.6
		h-4.1c-1.5,0-2.7-0.4-3.6-1.2c-0.9-0.8-1.3-2-1.3-3.5v-14.6H832.5z"/>
	<path class="st32" d="M859.6,221.9c3.6,0,6.4,1.1,8.3,3.3c1.9,2.2,2.9,5,2.9,8.5c0,3.5-1,6.4-2.9,8.6c-1.9,2.3-4.7,3.4-8.3,3.4
		c-3.5,0-6.2-1.1-8.2-3.4c-2-2.3-3-5.1-3-8.7c0-3.4,1-6.3,2.9-8.5C853.2,223,856,221.9,859.6,221.9z M859.6,225.4
		c-2,0-3.6,0.7-4.8,2.1c-1.2,1.4-1.8,3.4-1.8,6.1c0,2.7,0.6,4.8,1.8,6.3c1.2,1.5,2.8,2.2,4.8,2.2c1.9,0,3.4-0.7,4.7-2.1
		c1.2-1.4,1.8-3.5,1.8-6.3c0-2.6-0.6-4.7-1.8-6.1C863,226.1,861.5,225.4,859.6,225.4z"/>
	<path class="st32" d="M880,245.3h-4.5v-23h4.5v3.6c1-1.4,2-2.3,3.1-2.9c1.4-0.8,2.9-1.2,4.4-1.2v4.2c-1.8,0-3.4,0.5-4.9,1.5
		c-1,0.7-1.9,1.7-2.6,3V245.3z"/>
</g>
</svg>
